B.ufo
<glyph name="numbersign" format="1">
  <advance width="1683"/>
  <unicode hex="0023"/>
  <outline>
    <contour>
      <point x="187" y="0" type="line"/>
      <point x="381" y="0" type="line"/>
      <point x="625" y="1456" type="line"/>
      <point x="432" y="1456" type="line"/>
    </contour>
    <contour>
      <point x="552" y="0" type="line"/>
      <point x="746" y="0" type="line"/>
      <point x="991" y="1456" type="line"/>
      <point x="797" y="1456" type="line"/>
    </contour>
    <contour>
      <point x="1148" y="857" type="line"/>
      <point x="1148" y="1040" type="line"/>
      <point x="107" y="1040" type="line"/>
      <point x="107" y="857" type="line"/>
    </contour>
    <contour>
      <point x="1072" y="410" type="line"/>
      <point x="1072" y="593" type="line"/>
      <point x="32" y="593" type="line"/>
      <point x="32" y="410" type="line"/>
    </contour>
  </outline>
</glyph>
<glyph name="parenleft" format="1">
  <advance width="1193"/>
  <unicode hex="0028"/>
  <outline>
    <contour>
      <point x="81" y="564" type="line" smooth="yes"/>
      <point x="81" y="11"/>
      <point x="340" y="-350"/>
      <point x="580" y="-450" type="curve"/>
      <point x="641" y="-284" type="line"/>
      <point x="491" y="-174"/>
      <point x="342" y="83"/>
      <point x="342" y="562" type="curve" smooth="yes"/>
      <point x="342" y="594" type="line" smooth="yes"/>
      <point x="342" y="1073"/>
      <point x="491" y="1330"/>
      <point x="641" y="1440" type="curve"/>
      <point x="580" y="1606" type="line"/>
      <point x="340" y="1506"/>
      <point x="81" y="1145"/>
      <point x="81" y="592" type="curve" smooth="yes"/>
    </contour>
  </outline>
</glyph>
<glyph name="slash" format="1">
  <advance width="1223"/>
  <unicode hex="002F"/>
  <outline>
    <contour>
      <point x="711" y="1456" type="line"/>
      <point x="479" y="1456" type="line"/>
      <point x="-31" y="-125" type="line"/>
      <point x="201" y="-125" type="line"/>
    </contour>
  </outline>
</glyph>
<glyph name="zero" format="1">
  <advance width="1671"/>
  <unicode hex="0030"/>
  <outline>
    <contour>
      <point x="1094" y="881" type="line" smooth="yes"/>
      <point x="1094" y="1287"/>
      <point x="888" y="1477"/>
      <point x="591" y="1477" type="curve" smooth="yes"/>
      <point x="293" y="1477"/>
      <point x="89" y="1287"/>
      <point x="89" y="881" type="curve" smooth="yes"/>
      <point x="89" y="575" type="line" smooth="yes"/>
      <point x="89" y="169"/>
      <point x="295" y="-21"/>
      <point x="593" y="-21" type="curve" smooth="yes"/>
      <point x="890" y="-21"/>
      <point x="1094" y="169"/>
      <point x="1094" y="575" type="curve" smooth="yes"/>
    </contour>
    <contour>
      <point x="772" y="554" type="line" smooth="yes"/>
      <point x="772" y="318"/>
      <point x="705" y="239"/>
      <point x="593" y="239" type="curve" smooth="yes"/>
      <point x="479" y="239"/>
      <point x="411" y="318"/>
      <point x="411" y="554" type="curve" smooth="yes"/>
      <point x="411" y="904" type="line" smooth="yes"/>
      <point x="411" y="1136"/>
      <point x="478" y="1217"/>
      <point x="591" y="1217" type="curve" smooth="yes"/>
      <point x="704" y="1217"/>
      <point x="772" y="1136"/>
      <point x="772" y="904" type="curve" smooth="yes"/>
    </contour>
  </outline>
</glyph>
<glyph name="five" format="1">
  <advance width="1596"/>
  <unicode hex="0035"/>
  <outline>
    <contour>
      <point x="373" y="623" type="line"/>
      <point x="394" y="676"/>
      <point x="444" y="725"/>
      <point x="548" y="725" type="curve" smooth="yes"/>
      <point x="682" y="725"/>
      <point x="736" y="618"/>
      <point x="736" y="467" type="curve" smooth="yes"/>
      <point x="736" y="355"/>
      <point x="695" y="239"/>
      <point x="557" y="239" type="curve" smooth="yes"/>
      <point x="449" y="239"/>
      <point x="373" y="307"/>
      <point x="373" y="424" type="curve"/>
      <point x="51" y="403" type="line"/>
      <point x="51" y="135"/>
      <point x="300" y="-21"/>
      <point x="557" y="-21" type="curve" smooth="yes"/>
      <point x="899" y="-21"/>
      <point x="1058" y="218"/>
      <point x="1058" y="469" type="curve" smooth="yes"/>
      <point x="1058" y="781"/>
      <point x="902" y="964"/>
      <point x="615" y="958" type="curve" smooth="yes"/>
      <point x="521" y="956"/>
      <point x="443" y="929"/>
      <point x="394" y="891" type="curve"/>
      <point x="432" y="1194" type="line"/>
      <point x="1029" y="1194" type="line"/>
      <point x="1029" y="1456" type="line"/>
      <point x="169" y="1456" type="line"/>
      <point x="85" y="640" type="line"/>
    </contour>
    <contour>
      <point x="1029" y="1103" type="line"/>
      <point x="1029" y="1456" type="line"/>
      <point x="739" y="1456" type="line"/>
      <point x="839" y="1103" type="line"/>
    </contour>
  </outline>
</glyph>
<glyph name="seven" format="1">
  <advance width="1600"/>
  <unicode hex="0037"/>
  <outline>
    <contour>
      <point x="774" y="1196" type="line"/>
      <point x="515" y="910"/>
      <point x="377" y="544"/>
      <point x="335" y="141" type="curve" smooth="yes"/>
      <point x="321" y="0" type="line"/>
      <point x="644" y="0" type="line"/>
      <point x="658" y="141" type="line" smooth="yes"/>
      <point x="698" y="520"/>
      <point x="759" y="834"/>
      <point x="1084" y="1196" type="curve"/>
    </contour>
    <contour>
      <point x="1084" y="1456" type="line"/>
      <point x="41" y="1456" type="line"/>
      <point x="41" y="1196" type="line"/>
      <point x="1084" y="1196" type="line"/>
    </contour>
    <contour>
      <point x="41" y="1456" type="line"/>
      <point x="41" y="1063" type="line"/>
      <point x="282" y="1063" type="line"/>
      <point x="311" y="1456" type="line"/>
    </contour>
  </outline>
</glyph>
<glyph name="nine" format="1">
  <advance width="1637"/>
  <unicode hex="0039"/>
  <outline>
    <contour>
      <point x="498" y="239" type="curve" smooth="yes"/>
      <point x="388" y="239"/>
      <point x="310" y="256"/>
      <point x="225" y="283" type="curve"/>
      <point x="190" y="42" type="line"/>
      <point x="285" y="4"/>
      <point x="398" y="-21"/>
      <point x="498" y="-21" type="curve" smooth="yes"/>
      <point x="817" y="-21"/>
      <point x="1062" y="193"/>
      <point x="1062" y="535" type="curve" smooth="yes"/>
      <point x="1062" y="881" type="line" smooth="yes"/>
      <point x="1062" y="1263"/>
      <point x="844" y="1477"/>
      <point x="558" y="1477" type="curve" smooth="yes"/>
      <point x="261" y="1477"/>
      <point x="57" y="1241"/>
      <point x="57" y="957" type="curve" smooth="yes"/>
      <point x="57" y="649"/>
      <point x="217" y="455"/>
      <point x="485" y="455" type="curve" smooth="yes"/>
      <point x="677" y="455"/>
      <point x="838" y="615"/>
      <point x="838" y="904" type="curve"/>
      <point x="781" y="881" type="line"/>
      <point x="781" y="798"/>
      <point x="701" y="698"/>
      <point x="550" y="698" type="curve" smooth="yes"/>
      <point x="435" y="698"/>
      <point x="379" y="804"/>
      <point x="379" y="957" type="curve" smooth="yes"/>
      <point x="379" y="1083"/>
      <point x="445" y="1217"/>
      <point x="558" y="1217" type="curve" smooth="yes"/>
      <point x="662" y="1217"/>
      <point x="740" y="1124"/>
      <point x="740" y="923" type="curve" smooth="yes"/>
      <point x="740" y="512" type="line" smooth="yes"/>
      <point x="740" y="337"/>
      <point x="635" y="239"/>
    </contour>
  </outline>
</glyph>
<glyph name="equal" format="1">
  <advance width="1622"/>
  <unicode hex="003D"/>
  <outline>
    <contour>
      <point x="1032" y="992" type="line"/>
      <point x="116" y="992" type="line"/>
      <point x="116" y="732" type="line"/>
      <point x="1032" y="732" type="line"/>
    </contour>
    <contour>
      <point x="1032" y="553" type="line"/>
      <point x="116" y="553" type="line"/>
      <point x="116" y="293" type="line"/>
      <point x="1032" y="293" type="line"/>
    </contour>
  </outline>
</glyph>
<glyph name="A" format="1">
  <advance width="1962"/>
  <unicode hex="0041"/>
  <outline>
    <contour>
      <point x="803" y="1337" type="line"/>
      <point x="735" y="1456" type="line"/>
      <point x="560" y="1456" type="line"/>
      <point x="70" y="0" type="line"/>
      <point x="395" y="0" type="line"/>
    </contour>
    <contour>
      <point x="1067" y="0" type="line"/>
      <point x="1392" y="0" type="line"/>
      <point x="902" y="1456" type="line"/>
      <point x="727" y="1456" type="line"/>
      <point x="655" y="1346" type="line"/>
    </contour>
    <contour>
      <point x="1104" y="623" type="line"/>
      <point x="341" y="623" type="line"/>
      <point x="341" y="383" type="line"/>
      <point x="1104" y="383" type="line"/>
    </contour>
    <contour>
      <point x="395" y="0" type="line"/>
      <point x="558" y="0" type="line"/>
      <point x="558" y="200" type="line"/>
      <point x="395" y="230" type="line"/>
    </contour>
    <contour>
      <point x="70" y="0" type="line"/>
      <point x="250" y="230" type="line"/>
      <point x="37" y="200" type="line"/>
      <point x="37" y="0" type="line"/>
    </contour>
    <contour>
      <point x="1392" y="0" type="line"/>
      <point x="1425" y="0" type="line"/>
      <point x="1425" y="200" type="line"/>
      <point x="1212" y="230" type="line"/>
    </contour>
    <contour>
      <point x="1067" y="0" type="line"/>
      <point x="1067" y="230" type="line"/>
      <point x="904" y="200" type="line"/>
      <point x="904" y="0" type="line"/>
    </contour>
  </outline>
</glyph>
<glyph name="B" format="1">
  <advance width="1857"/>
  <unicode hex="0042"/>
  <outline>
    <contour>
      <point x="792" y="625" type="line"/>
      <point x="866" y="712" type="line"/>
      <point x="1154" y="717"/>
      <point x="1266" y="877"/>
      <point x="1266" y="1056" type="curve" smooth="yes"/>
      <point x="1266" y="1328"/>
      <point x="1048" y="1456"/>
      <point x="701" y="1456" type="curve" smooth="yes"/>
      <point x="204" y="1456" type="line"/>
      <point x="204" y="0" type="line"/>
      <point x="527" y="0" type="line"/>
      <point x="527" y="1196" type="line"/>
      <point x="701" y="1196" type="line" smooth="yes"/>
      <point x="862" y="1196"/>
      <point x="943" y="1144"/>
      <point x="943" y="1018" type="curve" smooth="yes"/>
      <point x="943" y="907"/>
      <point x="862" y="849"/>
      <point x="701" y="849" type="curve" smooth="yes"/>
      <point x="410" y="849" type="line"/>
      <point x="412" y="625" type="line"/>
    </contour>
    <contour>
      <point x="772" y="0" type="line" smooth="yes"/>
      <point x="1119" y="0"/>
      <point x="1317" y="146"/>
      <point x="1317" y="431" type="curve" smooth="yes"/>
      <point x="1317" y="600"/>
      <point x="1215" y="769"/>
      <point x="938" y="760" type="curve"/>
      <point x="864" y="849" type="line"/>
      <point x="494" y="849" type="line"/>
      <point x="492" y="625" type="line"/>
      <point x="792" y="625" type="line" smooth="yes"/>
      <point x="939" y="625"/>
      <point x="995" y="556"/>
      <point x="995" y="433" type="curve" smooth="yes"/>
      <point x="995" y="317"/>
      <point x="921" y="260"/>
      <point x="772" y="260" type="curve" smooth="yes"/>
      <point x="447" y="260" type="line"/>
      <point x="327" y="0" type="line"/>
    </contour>
    <contour>
      <point x="204" y="1456" type="line"/>
      <point x="51" y="1456" type="line"/>
      <point x="51" y="1256" type="line"/>
      <point x="204" y="1226" type="line"/>
    </contour>
    <contour>
      <point x="204" y="0" type="line"/>
      <point x="204" y="230" type="line"/>
      <point x="51" y="200" type="line"/>
      <point x="51" y="0" type="line"/>
    </contour>
  </outline>
</glyph>
<glyph name="G" format="1">
  <advance width="1843"/>
  <unicode hex="0047"/>
  <outline>
    <contour>
      <point x="1274" y="738" type="line"/>
      <point x="752" y="738" type="line"/>
      <point x="752" y="504" type="line"/>
      <point x="951" y="484" type="line"/>
      <point x="951" y="274" type="line"/>
      <point x="923" y="256"/>
      <point x="869" y="239"/>
      <point x="751" y="239" type="curve" smooth="yes"/>
      <point x="490" y="239"/>
      <point x="367" y="419"/>
      <point x="367" y="676" type="curve" smooth="yes"/>
      <point x="367" y="742" type="line" smooth="yes"/>
      <point x="367" y="1024"/>
      <point x="502" y="1217"/>
      <point x="741" y="1217" type="curve" smooth="yes"/>
      <point x="852" y="1217"/>
      <point x="939" y="1193"/>
      <point x="988" y="1149" type="curve"/>
      <point x="1026" y="957" type="line"/>
      <point x="1268" y="957" type="line"/>
      <point x="1268" y="1265" type="line"/>
      <point x="1141" y="1397"/>
      <point x="939" y="1477"/>
      <point x="701" y="1477" type="curve" smooth="yes"/>
      <point x="313" y="1477"/>
      <point x="45" y="1177"/>
      <point x="45" y="740" type="curve" smooth="yes"/>
      <point x="45" y="676" type="line" smooth="yes"/>
      <point x="45" y="263"/>
      <point x="318" y="-21"/>
      <point x="711" y="-21" type="curve" smooth="yes"/>
      <point x="1029" y="-21"/>
      <point x="1202" y="87"/>
      <point x="1274" y="161" type="curve"/>
    </contour>
  </outline>
</glyph>
<glyph name="J" format="1">
  <advance width="1695"/>
  <unicode hex="004A"/>
  <outline>
    <contour>
      <point x="703" y="457" type="line" smooth="yes"/>
      <point x="703" y="312"/>
      <point x="618" y="239"/>
      <point x="526" y="239" type="curve" smooth="yes"/>
      <point x="427" y="239"/>
      <point x="342" y="285"/>
      <point x="342" y="436" type="curve"/>
      <point x="19" y="436" type="line"/>
      <point x="19" y="123"/>
      <point x="227" y="-21"/>
      <point x="526" y="-21" type="curve" smooth="yes"/>
      <point x="805" y="-21"/>
      <point x="1025" y="156"/>
      <point x="1025" y="457" type="curve" smooth="yes"/>
      <point x="1025" y="1456" type="line"/>
      <point x="703" y="1456" type="line"/>
    </contour>
    <contour>
      <point x="1025" y="1456" type="line"/>
      <point x="1025" y="1226" type="line"/>
      <point x="1178" y="1256" type="line"/>
      <point x="1178" y="1456" type="line"/>
    </contour>
    <contour>
      <point x="703" y="1456" type="line"/>
      <point x="550" y="1456" type="line"/>
      <point x="550" y="1256" type="line"/>
      <point x="703" y="1226" type="line"/>
    </contour>
  </outline>
</glyph>
<glyph name="L" format="1">
  <advance width="1701"/>
  <unicode hex="004C"/>
  <outline>
    <contour>
      <point x="1161" y="260" type="line"/>
      <point x="419" y="260" type="line"/>
      <point x="419" y="0" type="line"/>
      <point x="1161" y="0" type="line"/>
    </contour>
    <contour>
      <point x="527" y="1456" type="line"/>
      <point x="204" y="1456" type="line"/>
      <point x="204" y="0" type="line"/>
      <point x="527" y="0" type="line"/>
    </contour>
    <contour>
      <point x="527" y="1456" type="line"/>
      <point x="527" y="1226" type="line"/>
      <point x="680" y="1256" type="line"/>
      <point x="680" y="1456" type="line"/>
    </contour>
    <contour>
      <point x="204" y="0" type="line"/>
      <point x="204" y="230" type="line"/>
      <point x="51" y="200" type="line"/>
      <point x="51" y="0" type="line"/>
    </contour>
    <contour>
      <point x="204" y="1456" type="line"/>
      <point x="51" y="1456" type="line"/>
      <point x="51" y="1256" type="line"/>
      <point x="204" y="1226" type="line"/>
    </contour>
    <contour>
      <point x="1161" y="0" type="line"/>
      <point x="1161" y="453" type="line"/>
      <point x="921" y="453" type="line"/>
      <point x="891" y="0" type="line"/>
    </contour>
  </outline>
</glyph>
<glyph name="M" format="1">
  <advance width="2437"/>
  <unicode hex="004D"/>
  <outline>
    <contour>
      <point x="357" y="1456" type="line"/>
      <point x="863" y="0" type="line"/>
      <point x="1080" y="0" type="line"/>
      <point x="1588" y="1456" type="line"/>
      <point x="1318" y="1456" type="line"/>
      <point x="971" y="428" type="line"/>
      <point x="627" y="1456" type="line"/>
    </contour>
    <contour>
      <point x="204" y="1456" type="line"/>
      <point x="204" y="0" type="line"/>
      <point x="527" y="0" type="line"/>
      <point x="527" y="361" type="line"/>
      <point x="477" y="1456" type="line"/>
    </contour>
    <contour>
      <point x="1470" y="1456" type="line"/>
      <point x="1420" y="361" type="line"/>
      <point x="1420" y="0" type="line"/>
      <point x="1743" y="0" type="line"/>
      <point x="1743" y="1456" type="line"/>
    </contour>
    <contour>
      <point x="1420" y="0" type="line"/>
      <point x="1420" y="230" type="line"/>
      <point x="1267" y="200" type="line"/>
      <point x="1267" y="0" type="line"/>
    </contour>
    <contour>
      <point x="1743" y="0" type="line"/>
      <point x="1896" y="0" type="line"/>
      <point x="1896" y="200" type="line"/>
      <point x="1743" y="230" type="line"/>
    </contour>
    <contour>
      <point x="1743" y="1456" type="line"/>
      <point x="1743" y="1226" type="line"/>
      <point x="1896" y="1256" type="line"/>
      <point x="1896" y="1456" type="line"/>
    </contour>
    <contour>
      <point x="527" y="0" type="line"/>
      <point x="680" y="0" type="line"/>
      <point x="680" y="200" type="line"/>
      <point x="527" y="230" type="line"/>
    </contour>
    <contour>
      <point x="204" y="0" type="line"/>
      <point x="204" y="230" type="line"/>
      <point x="51" y="200" type="line"/>
      <point x="51" y="0" type="line"/>
    </contour>
    <contour>
      <point x="204" y="1456" type="line"/>
      <point x="51" y="1456" type="line"/>
      <point x="51" y="1256" type="line"/>
      <point x="204" y="1226" type="line"/>
    </contour>
  </outline>
</glyph>
<glyph name="O" format="1">
  <advance width="1950"/>
  <unicode hex="004F"/>
  <outline>
    <contour>
      <point x="1394" y="739" type="line" smooth="yes"/>
      <point x="1394" y="1159"/>
      <point x="1133" y="1477"/>
      <point x="728" y="1477" type="curve" smooth="yes"/>
      <point x="323" y="1477"/>
      <point x="64" y="1159"/>
      <point x="64" y="739" type="curve" smooth="yes"/>
      <point x="64" y="717" type="line" smooth="yes"/>
      <point x="64" y="297"/>
      <point x="325" y="-21"/>
      <point x="730" y="-21" type="curve" smooth="yes"/>
      <point x="1135" y="-21"/>
      <point x="1394" y="297"/>
      <point x="1394" y="717" type="curve" smooth="yes"/>
    </contour>
    <contour>
      <point x="1072" y="717" type="line" smooth="yes"/>
      <point x="1072" y="450"/>
      <point x="975" y="239"/>
      <point x="730" y="239" type="curve" smooth="yes"/>
      <point x="483" y="239"/>
      <point x="386" y="450"/>
      <point x="386" y="717" type="curve" smooth="yes"/>
      <point x="386" y="741" type="line" smooth="yes"/>
      <point x="386" y="1008"/>
      <point x="481" y="1217"/>
      <point x="728" y="1217" type="curve" smooth="yes"/>
      <point x="973" y="1217"/>
      <point x="1072" y="1008"/>
      <point x="1072" y="741" type="curve" smooth="yes"/>
    </contour>
  </outline>
</glyph>
<glyph name="U" format="1">
  <advance width="2048"/>
  <unicode hex="0055"/>
  <outline>
    <contour>
      <point x="1052" y="1456" type="line"/>
      <point x="1052" y="502" type="line" smooth="yes"/>
      <point x="1052" y="318"/>
      <point x="948" y="239"/>
      <point x="781" y="239" type="curve" smooth="yes"/>
      <point x="616" y="239"/>
      <point x="508" y="318"/>
      <point x="508" y="502" type="curve" smooth="yes"/>
      <point x="508" y="1456" type="line"/>
      <point x="185" y="1456" type="line"/>
      <point x="185" y="502" type="line" smooth="yes"/>
      <point x="185" y="162"/>
      <point x="436" y="-21"/>
      <point x="781" y="-21" type="curve" smooth="yes"/>
      <point x="1126" y="-21"/>
      <point x="1375" y="162"/>
      <point x="1375" y="502" type="curve" smooth="yes"/>
      <point x="1375" y="1456" type="line"/>
    </contour>
    <contour>
      <point x="508" y="1456" type="line"/>
      <point x="508" y="1226" type="line"/>
      <point x="661" y="1256" type="line"/>
      <point x="661" y="1456" type="line"/>
    </contour>
    <contour>
      <point x="185" y="1456" type="line"/>
      <point x="32" y="1456" type="line"/>
      <point x="32" y="1256" type="line"/>
      <point x="185" y="1226" type="line"/>
    </contour>
    <contour>
      <point x="1052" y="1456" type="line"/>
      <point x="899" y="1456" type="line"/>
      <point x="899" y="1256" type="line"/>
      <point x="1052" y="1226" type="line"/>
    </contour>
    <contour>
      <point x="1375" y="1456" type="line"/>
      <point x="1375" y="1226" type="line"/>
      <point x="1528" y="1256" type="line"/>
      <point x="1528" y="1456" type="line"/>
    </contour>
  </outline>
</glyph>
<glyph name="V" format="1">
  <advance width="1968"/>
  <unicode hex="0056"/>
  <outline>
    <contour>
      <point x="748" y="391" type="line"/>
      <point x="669" y="0" type="line"/>
      <point x="905" y="0" type="line"/>
      <point x="1385" y="1456" type="line"/>
      <point x="1046" y="1456" type="line"/>
    </contour>
    <contour>
      <point x="422" y="1456" type="line"/>
      <point x="83" y="1456" type="line"/>
      <point x="562" y="0" type="line"/>
      <point x="799" y="0" type="line"/>
      <point x="717" y="395" type="line"/>
    </contour>
    <contour>
      <point x="1046" y="1456" type="line"/>
      <point x="883" y="1456" type="line"/>
      <point x="883" y="1256" type="line"/>
      <point x="1046" y="1226" type="line"/>
    </contour>
    <contour>
      <point x="1385" y="1456" type="line"/>
      <point x="1205" y="1226" type="line"/>
      <point x="1438" y="1256" type="line"/>
      <point x="1438" y="1456" type="line"/>
    </contour>
    <contour>
      <point x="83" y="1456" type="line"/>
      <point x="30" y="1456" type="line"/>
      <point x="30" y="1256" type="line"/>
      <point x="263" y="1226" type="line"/>
    </contour>
    <contour>
      <point x="422" y="1456" type="line"/>
      <point x="422" y="1226" type="line"/>
      <point x="585" y="1256" type="line"/>
      <point x="585" y="1456" type="line"/>
    </contour>
  </outline>
</glyph>
<glyph name="W" format="1">
  <advance width="2493"/>
  <unicode hex="0057"/>
  <outline>
    <contour>
      <point x="544" y="163" type="line"/>
      <point x="567" y="0" type="line"/>
      <point x="742" y="0" type="line"/>
      <point x="1091" y="1315" type="line"/>
      <point x="1028" y="1456" type="line"/>
      <point x="882" y="1456" type="line"/>
    </contour>
    <contour>
      <point x="417" y="1456" type="line"/>
      <point x="103" y="1456" type="line"/>
      <point x="440" y="0" type="line"/>
      <point x="636" y="0" type="line"/>
      <point x="673" y="156" type="line"/>
    </contour>
    <contour>
      <point x="1323" y="163" type="line"/>
      <point x="1358" y="0" type="line"/>
      <point x="1554" y="0" type="line"/>
      <point x="1890" y="1456" type="line"/>
      <point x="1577" y="1456" type="line"/>
    </contour>
    <contour>
      <point x="1111" y="1456" type="line"/>
      <point x="966" y="1456" type="line"/>
      <point x="901" y="1317" type="line"/>
      <point x="1252" y="0" type="line"/>
      <point x="1427" y="0" type="line"/>
      <point x="1453" y="156" type="line"/>
    </contour>
    <contour>
      <point x="1890" y="1456" type="line"/>
      <point x="1710" y="1226" type="line"/>
      <point x="1963" y="1256" type="line"/>
      <point x="1963" y="1456" type="line"/>
    </contour>
    <contour>
      <point x="1577" y="1456" type="line"/>
      <point x="1404" y="1456" type="line"/>
      <point x="1404" y="1256" type="line"/>
      <point x="1577" y="1226" type="line"/>
    </contour>
    <contour>
      <point x="103" y="1456" type="line"/>
      <point x="30" y="1456" type="line"/>
      <point x="30" y="1256" type="line"/>
      <point x="283" y="1226" type="line"/>
    </contour>
    <contour>
      <point x="417" y="1456" type="line"/>
      <point x="417" y="1226" type="line"/>
      <point x="590" y="1256" type="line"/>
      <point x="590" y="1456" type="line"/>
    </contour>
  </outline>
</glyph>
<glyph name="X" format="1">
  <advance width="1949"/>
  <unicode hex="0058"/>
  <outline>
    <contour>
      <point x="30" y="0" type="line"/>
      <point x="620" y="0" type="line"/>
      <point x="620" y="200" type="line"/>
      <point x="503" y="211" type="line"/>
      <point x="716" y="541" type="line"/>
      <point x="929" y="211" type="line"/>
      <point x="812" y="200" type="line"/>
      <point x="812" y="0" type="line"/>
      <point x="1419" y="0" type="line"/>
      <point x="1419" y="200" type="line"/>
      <point x="1291" y="226" type="line"/>
      <point x="904" y="734" type="line"/>
      <point x="1269" y="1231" type="line"/>
      <point x="1389" y="1256" type="line"/>
      <point x="1389" y="1456" type="line"/>
      <point x="800" y="1456" type="line"/>
      <point x="800" y="1256" type="line"/>
      <point x="917" y="1244" type="line"/>
      <point x="712" y="925" type="line"/>
      <point x="509" y="1244" type="line"/>
      <point x="628" y="1256" type="line"/>
      <point x="628" y="1456" type="line"/>
      <point x="41" y="1456" type="line"/>
      <point x="41" y="1256" type="line"/>
      <point x="161" y="1231" type="line"/>
      <point x="526" y="734" type="line"/>
      <point x="151" y="225" type="line"/>
      <point x="30" y="200" type="line"/>
    </contour>
  </outline>
</glyph>
<glyph name="Z" format="1">
  <advance width="1728"/>
  <unicode hex="005A"/>
  <outline>
    <contour>
      <point x="1172" y="260" type="line"/>
      <point x="148" y="260" type="line"/>
      <point x="148" y="0" type="line"/>
      <point x="1172" y="0" type="line"/>
    </contour>
    <contour>
      <point x="1160" y="1310" type="line"/>
      <point x="1160" y="1456" type="line"/>
      <point x="919" y="1456" type="line"/>
      <point x="68" y="152" type="line"/>
      <point x="68" y="0" type="line"/>
      <point x="307" y="0" type="line"/>
    </contour>
    <contour>
      <point x="1052" y="1456" type="line"/>
      <point x="96" y="1456" type="line"/>
      <point x="96" y="1196" type="line"/>
      <point x="1052" y="1196" type="line"/>
    </contour>
    <contour>
      <point x="96" y="1456" type="line"/>
      <point x="66" y="1013" type="line"/>
      <point x="307" y="1013" type="line"/>
      <point x="366" y="1456" type="line"/>
    </contour>
    <contour>
      <point x="1172" y="0" type="line"/>
      <point x="1202" y="443" type="line"/>
      <point x="962" y="443" type="line"/>
      <point x="902" y="0" type="line"/>
    </contour>
  </outline>
</glyph>
<glyph name="bracketleft" format="1">
  <advance width="1080"/>
  <unicode hex="005B"/>
  <outline>
    <contour>
      <point x="582" y="1706" type="line"/>
      <point x="133" y="1706" type="line"/>
      <point x="133" y="-349" type="line"/>
      <point x="582" y="-349" type="line"/>
      <point x="582" y="-104" type="line"/>
      <point x="456" y="-104" type="line"/>
      <point x="456" y="1460" type="line"/>
      <point x="582" y="1460" type="line"/>
    </contour>
  </outline>
</glyph>
<glyph name="asciicircum" format="1">
  <advance width="1391"/>
  <unicode hex="005E"/>
  <outline>
    <contour>
      <point x="445" y="1142" type="line"/>
      <point x="516" y="1456" type="line"/>
      <point x="336" y="1456" type="line"/>
      <point x="37" y="729" type="line"/>
      <point x="283" y="729" type="line"/>
    </contour>
    <contour>
      <point x="626" y="729" type="line"/>
      <point x="872" y="729" type="line"/>
      <point x="573" y="1456" type="line"/>
      <point x="393" y="1456" type="line"/>
      <point x="461" y="1142" type="line"/>
    </contour>
  </outline>
</glyph>
<glyph name="underscore" format="1">
  <advance width="1570"/>
  <unicode hex="005F"/>
  <outline>
    <contour>
      <point x="989" y="0" type="line"/>
      <point x="83" y="0" type="line"/>
      <point x="83" y="-201" type="line"/>
      <point x="989" y="-201" type="line"/>
    </contour>
  </outline>
</glyph>
<glyph name="b" format="1">
  <advance width="1679"/>
  <unicode hex="0062"/>
  <outline>
    <contour>
      <point x="126" y="1560" type="line"/>
      <point x="126" y="0" type="line"/>
      <point x="405" y="0" type="line"/>
      <point x="448" y="266" type="line"/>
      <point x="448" y="1560" type="line"/>
    </contour>
    <contour>
      <point x="1119" y="539" type="line" smooth="yes"/>
      <point x="1119" y="868"/>
      <point x="985" y="1102"/>
      <point x="697" y="1102" type="curve" smooth="yes"/>
      <point x="449" y="1102"/>
      <point x="348" y="848"/>
      <point x="308" y="535" type="curve"/>
      <point x="308" y="510" type="line"/>
      <point x="348" y="217"/>
      <point x="449" y="-21"/>
      <point x="699" y="-21" type="curve" smooth="yes"/>
      <point x="985" y="-21"/>
      <point x="1119" y="203"/>
      <point x="1119" y="518" type="curve" smooth="yes"/>
    </contour>
    <contour>
      <point x="797" y="518" type="line" smooth="yes"/>
      <point x="797" y="356"/>
      <point x="769" y="239"/>
      <point x="618" y="239" type="curve" smooth="yes"/>
      <point x="469" y="239"/>
      <point x="408" y="329"/>
      <point x="408" y="483" type="curve" smooth="yes"/>
      <point x="408" y="562" type="line" smooth="yes"/>
      <point x="408" y="738"/>
      <point x="469" y="842"/>
      <point x="616" y="842" type="curve" smooth="yes"/>
      <point x="765" y="842"/>
      <point x="797" y="707"/>
      <point x="797" y="539" type="curve" smooth="yes"/>
    </contour>
    <contour>
      <point x="126" y="1560" type="line"/>
      <point x="-27" y="1560" type="line"/>
      <point x="-27" y="1360" type="line"/>
      <point x="126" y="1330" type="line"/>
    </contour>
  </outline>
</glyph>
<glyph name="e" format="1">
  <advance width="1588"/>
  <unicode hex="0065"/>
  <outline>
    <contour>
      <point x="581" y="-21" type="curve" smooth="yes"/>
      <point x="766" y="-21"/>
      <point x="918" y="37"/>
      <point x="1001" y="100" type="curve"/>
      <point x="921" y="306" type="line"/>
      <point x="833" y="268"/>
      <point x="765" y="239"/>
      <point x="622" y="239" type="curve" smooth="yes"/>
      <point x="458" y="239"/>
      <point x="382" y="365"/>
      <point x="382" y="505" type="curve" smooth="yes"/>
      <point x="382" y="543" type="line" smooth="yes"/>
      <point x="382" y="704"/>
      <point x="422" y="842"/>
      <point x="556" y="842" type="curve" smooth="yes"/>
      <point x="663" y="842"/>
      <point x="708" y="779"/>
      <point x="708" y="672" type="curve" smooth="yes"/>
      <point x="708" y="646" type="line"/>
      <point x="187" y="646" type="line"/>
      <point x="187" y="435" type="line"/>
      <point x="1023" y="435" type="line"/>
      <point x="1023" y="612" type="line" smooth="yes"/>
      <point x="1023" y="913"/>
      <point x="852" y="1102"/>
      <point x="556" y="1102" type="curve" smooth="yes"/>
      <point x="234" y="1104"/>
      <point x="60" y="859"/>
      <point x="60" y="543" type="curve" smooth="yes"/>
      <point x="60" y="505" type="line" smooth="yes"/>
      <point x="60" y="212"/>
      <point x="258" y="-21"/>
    </contour>
  </outline>
</glyph>
<glyph name="i" format="1">
  <advance width="1155"/>
  <unicode hex="0069"/>
  <outline>
    <contour>
      <point x="499" y="1082" type="line"/>
      <point x="176" y="1082" type="line"/>
      <point x="176" y="0" type="line"/>
      <point x="499" y="0" type="line"/>
    </contour>
    <contour>
      <point x="499" y="1560" type="line"/>
      <point x="176" y="1560" type="line"/>
      <point x="176" y="1333" type="line"/>
      <point x="499" y="1333" type="line"/>
    </contour>
    <contour>
      <point x="176" y="0" type="line"/>
      <point x="176" y="230" type="line"/>
      <point x="43" y="200" type="line"/>
      <point x="43" y="0" type="line"/>
    </contour>
    <contour>
      <point x="499" y="0" type="line"/>
      <point x="632" y="0" type="line"/>
      <point x="632" y="200" type="line"/>
      <point x="499" y="230" type="line"/>
    </contour>
    <contour>
      <point x="176" y="1082" type="line"/>
      <point x="23" y="1082" type="line"/>
      <point x="23" y="882" type="line"/>
      <point x="176" y="852" type="line"/>
    </contour>
  </outline>
</glyph>
<glyph name="m" format="1">
  <advance width="2395"/>
  <unicode hex="006D"/>
  <outline>
    <contour>
      <point x="498" y="853" type="line"/>
      <point x="478" y="1082" type="line"/>
      <point x="176" y="1082" type="line"/>
      <point x="176" y="0" type="line"/>
      <point x="498" y="0" type="line"/>
    </contour>
    <contour>
      <point x="437" y="578" type="line"/>
      <point x="437" y="729"/>
      <point x="513" y="842"/>
      <point x="655" y="842" type="curve" smooth="yes"/>
      <point x="744" y="842"/>
      <point x="796" y="808"/>
      <point x="796" y="659" type="curve" smooth="yes"/>
      <point x="796" y="0" type="line"/>
      <point x="1118" y="0" type="line"/>
      <point x="1118" y="722" type="line" smooth="yes"/>
      <point x="1118" y="992"/>
      <point x="988" y="1102"/>
      <point x="798" y="1102" type="curve" smooth="yes"/>
      <point x="537" y="1102"/>
      <point x="398" y="880"/>
      <point x="398" y="576" type="curve"/>
    </contour>
    <contour>
      <point x="1064" y="578" type="line"/>
      <point x="1064" y="729"/>
      <point x="1133" y="842"/>
      <point x="1276" y="842" type="curve" smooth="yes"/>
      <point x="1363" y="842"/>
      <point x="1416" y="808"/>
      <point x="1416" y="659" type="curve" smooth="yes"/>
      <point x="1416" y="0" type="line"/>
      <point x="1739" y="0" type="line"/>
      <point x="1739" y="659" type="line" smooth="yes"/>
      <point x="1739" y="973"/>
      <point x="1600" y="1102"/>
      <point x="1398" y="1102" type="curve" smooth="yes"/>
      <point x="1137" y="1102"/>
      <point x="1005" y="880"/>
      <point x="1005" y="576" type="curve"/>
    </contour>
    <contour>
      <point x="1416" y="0" type="line"/>
      <point x="1416" y="230" type="line"/>
      <point x="1303" y="200" type="line"/>
      <point x="1303" y="0" type="line"/>
    </contour>
    <contour>
      <point x="1739" y="0" type="line"/>
      <point x="1872" y="0" type="line"/>
      <point x="1872" y="200" type="line"/>
      <point x="1739" y="230" type="line"/>
    </contour>
    <contour>
      <point x="1118" y="0" type="line"/>
      <point x="1221" y="0" type="line"/>
      <point x="1221" y="200" type="line"/>
      <point x="1118" y="230" type="line"/>
    </contour>
    <contour>
      <point x="796" y="0" type="line"/>
      <point x="796" y="230" type="line"/>
      <point x="693" y="200" type="line"/>
      <point x="693" y="0" type="line"/>
    </contour>
    <contour>
      <point x="498" y="0" type="line"/>
      <point x="611" y="0" type="line"/>
      <point x="611" y="200" type="line"/>
      <point x="498" y="230" type="line"/>
    </contour>
    <contour>
      <point x="176" y="1082" type="line"/>
      <point x="23" y="1082" type="line"/>
      <point x="23" y="882" type="line"/>
      <point x="176" y="852" type="line"/>
    </contour>
    <contour>
      <point x="176" y="0" type="line"/>
      <point x="176" y="230" type="line"/>
      <point x="43" y="200" type="line"/>
      <point x="43" y="0" type="line"/>
    </contour>
  </outline>
</glyph>
<glyph name="u" format="1">
  <advance width="1790"/>
  <unicode hex="0075"/>
  <outline>
    <contour>
      <point x="786" y="263" type="line"/>
      <point x="827" y="0" type="line"/>
      <point x="1109" y="0" type="line"/>
      <point x="1109" y="1082" type="line"/>
      <point x="786" y="1082" type="line"/>
    </contour>
    <contour>
      <point x="848" y="503" type="line"/>
      <point x="848" y="353"/>
      <point x="785" y="239"/>
      <point x="609" y="239" type="curve" smooth="yes"/>
      <point x="521" y="239"/>
      <point x="468" y="297"/>
      <point x="468" y="420" type="curve" smooth="yes"/>
      <point x="468" y="1082" type="line"/>
      <point x="146" y="1082" type="line"/>
      <point x="146" y="422" type="line" smooth="yes"/>
      <point x="146" y="108"/>
      <point x="293" y="-21"/>
      <point x="507" y="-21" type="curve" smooth="yes"/>
      <point x="768" y="-21"/>
      <point x="906" y="202"/>
      <point x="906" y="505" type="curve"/>
    </contour>
    <contour>
      <point x="786" y="1082" type="line"/>
      <point x="663" y="1082" type="line"/>
      <point x="663" y="882" type="line"/>
      <point x="786" y="852" type="line"/>
    </contour>
    <contour>
      <point x="146" y="1082" type="line"/>
      <point x="28" y="1082" type="line"/>
      <point x="28" y="882" type="line"/>
      <point x="146" y="852" type="line"/>
    </contour>
    <contour>
      <point x="1109" y="0" type="line"/>
      <point x="1242" y="0" type="line"/>
      <point x="1242" y="200" type="line"/>
      <point x="1109" y="230" type="line"/>
    </contour>
  </outline>
</glyph>
<glyph name="braceright" format="1">
  <advance width="1135"/>
  <unicode hex="007D"/>
  <outline>
    <contour>
      <point x="6" y="1421" type="line"/>
      <point x="115" y="1380"/>
      <point x="145" y="1268"/>
      <point x="145" y="1132" type="curve" smooth="yes"/>
      <point x="145" y="929" type="line" smooth="yes"/>
      <point x="145" y="726"/>
      <point x="276" y="567"/>
      <point x="594" y="567" type="curve"/>
      <point x="594" y="732" type="line"/>
      <point x="476" y="732"/>
      <point x="427" y="809"/>
      <point x="427" y="929" type="curve" smooth="yes"/>
      <point x="427" y="1132" type="line" smooth="yes"/>
      <point x="427" y="1342"/>
      <point x="342" y="1520"/>
      <point x="67" y="1597" type="curve"/>
    </contour>
    <contour>
      <point x="67" y="-360" type="line"/>
      <point x="342" y="-283"/>
      <point x="427" y="-104"/>
      <point x="427" y="106" type="curve" smooth="yes"/>
      <point x="427" y="309" type="line" smooth="yes"/>
      <point x="427" y="428"/>
      <point x="476" y="505"/>
      <point x="594" y="505" type="curve"/>
      <point x="594" y="671" type="line"/>
      <point x="276" y="671"/>
      <point x="145" y="512"/>
      <point x="145" y="309" type="curve" smooth="yes"/>
      <point x="145" y="106" type="line" smooth="yes"/>
      <point x="145" y="-30"/>
      <point x="115" y="-142"/>
      <point x="6" y="-183" type="curve"/>
    </contour>
  </outline>
</glyph>
<glyph name="asciitilde" format="1">
  <advance width="1802"/>
  <unicode hex="007E"/>
  <outline>
    <contour>
      <point x="978" y="800" type="line"/>
      <point x="978" y="704"/>
      <point x="927" y="628"/>
      <point x="866" y="628" type="curve" smooth="yes"/>
      <point x="810" y="628"/>
      <point x="768" y="654"/>
      <point x="710" y="707" type="curve" smooth="yes"/>
      <point x="615" y="792"/>
      <point x="516" y="836"/>
      <point x="405" y="836" type="curve" smooth="yes"/>
      <point x="221" y="836"/>
      <point x="93" y="668"/>
      <point x="93" y="435" type="curve"/>
      <point x="314" y="405" type="line"/>
      <point x="314" y="500"/>
      <point x="364" y="576"/>
      <point x="425" y="576" type="curve" smooth="yes"/>
      <point x="485" y="576"/>
      <point x="525" y="550"/>
      <point x="584" y="497" type="curve" smooth="yes"/>
      <point x="685" y="407"/>
      <point x="774" y="367"/>
      <point x="886" y="367" type="curve" smooth="yes"/>
      <point x="1070" y="367"/>
      <point x="1200" y="538"/>
      <point x="1200" y="769" type="curve"/>
    </contour>
  </outline>
</glyph>
<glyph name="cent" format="1">
  <advance width="1583"/>
  <unicode hex="00A2"/>
  <outline>
    <contour>
      <point x="668" y="1318" type="line"/>
      <point x="468" y="1318" type="line"/>
      <point x="468" y="1026" type="line"/>
      <point x="668" y="1026" type="line"/>
    </contour>
    <contour>
      <point x="668" y="46" type="line"/>
      <point x="468" y="46" type="line"/>
      <point x="468" y="-245" type="line"/>
      <point x="668" y="-245" type="line"/>
    </contour>
    <contour>
      <point x="582" y="239" type="curve" smooth="yes"/>
      <point x="431" y="239"/>
      <point x="394" y="369"/>
      <point x="394" y="529" type="curve" smooth="yes"/>
      <point x="394" y="552" type="line" smooth="yes"/>
      <point x="394" y="708"/>
      <point x="436" y="842"/>
      <point x="600" y="842" type="curve" smooth="yes"/>
      <point x="647" y="842"/>
      <point x="679" y="827"/>
      <point x="699" y="814" type="curve"/>
      <point x="749" y="644" type="line"/>
      <point x="1011" y="644" type="line"/>
      <point x="1010" y="959" type="line"/>
      <point x="919" y="1052"/>
      <point x="778" y="1102"/>
      <point x="600" y="1102" type="curve" smooth="yes"/>
      <point x="252" y="1102"/>
      <point x="72" y="865"/>
      <point x="72" y="552" type="curve" smooth="yes"/>
      <point x="72" y="529" type="line" smooth="yes"/>
      <point x="72" y="216"/>
      <point x="245" y="-21"/>
      <point x="582" y="-21" type="curve" smooth="yes"/>
      <point x="839" y="-21"/>
      <point x="1031" y="141"/>
      <point x="1031" y="385" type="curve"/>
      <point x="729" y="385" type="line"/>
      <point x="729" y="293"/>
      <point x="680" y="239"/>
    </contour>
  </outline>
</glyph>
<glyph name="copyright" format="1">
  <advance width="2057"/>
  <unicode hex="00A9"/>
  <outline>
    <contour>
      <point x="944" y="596" type="line"/>
      <point x="944" y="466"/>
      <point x="883" y="417"/>
      <point x="765" y="417" type="curve" smooth="yes"/>
      <point x="637" y="417"/>
      <point x="571" y="520"/>
      <point x="571" y="669" type="curve" smooth="yes"/>
      <point x="571" y="789" type="line" smooth="yes"/>
      <point x="571" y="936"/>
      <point x="637" y="1040"/>
      <point x="765" y="1040" type="curve" smooth="yes"/>
      <point x="883" y="1040"/>
      <point x="945" y="989"/>
      <point x="945" y="861" type="curve"/>
      <point x="1101" y="861" type="line"/>
      <point x="1101" y="1070"/>
      <point x="971" y="1175"/>
      <point x="765" y="1175" type="curve" smooth="yes"/>
      <point x="550" y="1175"/>
      <point x="416" y="1017"/>
      <point x="416" y="788" type="curve" smooth="yes"/>
      <point x="416" y="669" type="line" smooth="yes"/>
      <point x="416" y="439"/>
      <point x="550" y="282"/>
      <point x="765" y="282" type="curve" smooth="yes"/>
      <point x="971" y="282"/>
      <point x="1100" y="386"/>
      <point x="1100" y="596" type="curve"/>
    </contour>
    <contour>
      <point x="191" y="729" type="curve" smooth="yes"/>
      <point x="191" y="1082"/>
      <point x="454" y="1351"/>
      <point x="779" y="1351" type="curve" smooth="yes"/>
      <point x="1103" y="1351"/>
      <point x="1366" y="1082"/>
      <point x="1366" y="729" type="curve" smooth="yes"/>
      <point x="1366" y="376"/>
      <point x="1103" y="104"/>
      <point x="779" y="104" type="curve" smooth="yes"/>
      <point x="454" y="104"/>
      <point x="191" y="376"/>
    </contour>
    <contour>
      <point x="69" y="729" type="curve" smooth="yes"/>
      <point x="69" y="306"/>
      <point x="387" y="-21"/>
      <point x="779" y="-21" type="curve" smooth="yes"/>
      <point x="1170" y="-21"/>
      <point x="1489" y="306"/>
      <point x="1489" y="729" type="curve" smooth="yes"/>
      <point x="1489" y="1152"/>
      <point x="1170" y="1476"/>
      <point x="779" y="1476" type="curve" smooth="yes"/>
      <point x="387" y="1476"/>
      <point x="69" y="1152"/>
    </contour>
  </outline>
</glyph>
<glyph name="ordfeminine" format="1">
  <advance width="1358"/>
  <unicode hex="00AA"/>
  <outline>
    <contour>
      <point x="558" y="862" type="line" smooth="yes"/>
      <point x="558" y="807"/>
      <point x="566" y="753"/>
      <point x="582" y="706" type="curve"/>
      <point x="759" y="706" type="line"/>
      <point x="740" y="764"/>
      <point x="733" y="822"/>
      <point x="733" y="887" type="curve" smooth="yes"/>
      <point x="733" y="1201" type="line" smooth="yes"/>
      <point x="733" y="1384"/>
      <point x="616" y="1477"/>
      <point x="442" y="1477" type="curve" smooth="yes"/>
      <point x="254" y="1477"/>
      <point x="131" y="1379"/>
      <point x="131" y="1244" type="curve"/>
      <point x="304" y="1230" type="line"/>
      <point x="304" y="1294"/>
      <point x="356" y="1329"/>
      <point x="442" y="1329" type="curve" smooth="yes"/>
      <point x="520" y="1329"/>
      <point x="558" y="1284"/>
      <point x="558" y="1202" type="curve" smooth="yes"/>
    </contour>
    <contour>
      <point x="576" y="1151" type="line"/>
      <point x="421" y="1151" type="line" smooth="yes"/>
      <point x="204" y="1151"/>
      <point x="90" y="1067"/>
      <point x="90" y="920" type="curve" smooth="yes"/>
      <point x="90" y="782"/>
      <point x="179" y="692"/>
      <point x="339" y="692" type="curve" smooth="yes"/>
      <point x="475" y="692"/>
      <point x="551" y="770"/>
      <point x="581" y="834" type="curve"/>
      <point x="563" y="951" type="line"/>
      <point x="563" y="902"/>
      <point x="463" y="836"/>
      <point x="382" y="836" type="curve" smooth="yes"/>
      <point x="302" y="836"/>
      <point x="265" y="869"/>
      <point x="265" y="924" type="curve" smooth="yes"/>
      <point x="265" y="982"/>
      <point x="319" y="1034"/>
      <point x="422" y="1034" type="curve" smooth="yes"/>
      <point x="577" y="1034" type="line"/>
    </contour>
  </outline>
</glyph>
<glyph name="threesuperior" format="1">
  <advance width="1329"/>
  <unicode hex="00B3"/>
  <outline>
    <contour>
      <point x="454" y="1050" type="line" smooth="yes"/>
      <point x="622" y="1050"/>
      <point x="735" y="1139"/>
      <point x="735" y="1249" type="curve" smooth="yes"/>
      <point x="735" y="1399"/>
      <point x="603" y="1478"/>
      <point x="402" y="1478" type="curve" smooth="yes"/>
      <point x="227" y="1478"/>
      <point x="85" y="1394"/>
      <point x="85" y="1243" type="curve"/>
      <point x="307" y="1243" type="line"/>
      <point x="307" y="1276"/>
      <point x="339" y="1312"/>
      <point x="409" y="1312" type="curve" smooth="yes"/>
      <point x="483" y="1312"/>
      <point x="512" y="1272"/>
      <point x="512" y="1229" type="curve" smooth="yes"/>
      <point x="512" y="1174"/>
      <point x="478" y="1139"/>
      <point x="393" y="1139" type="curve" smooth="yes"/>
      <point x="289" y="1139" type="line"/>
      <point x="289" y="1050" type="line"/>
    </contour>
    <contour>
      <point x="289" y="1099" type="line"/>
      <point x="289" y="1005" type="line"/>
      <point x="393" y="1005" type="line" smooth="yes"/>
      <point x="481" y="1005"/>
      <point x="527" y="966"/>
      <point x="527" y="907" type="curve" smooth="yes"/>
      <point x="527" y="849"/>
      <point x="479" y="822"/>
      <point x="413" y="822" type="curve" smooth="yes"/>
      <point x="334" y="822"/>
      <point x="295" y="853"/>
      <point x="295" y="906" type="curve"/>
      <point x="72" y="906" type="line"/>
      <point x="72" y="743"/>
      <point x="222" y="655"/>
      <point x="416" y="655" type="curve" smooth="yes"/>
      <point x="621" y="655"/>
      <point x="749" y="740"/>
      <point x="749" y="891" type="curve" smooth="yes"/>
      <point x="749" y="1024"/>
      <point x="640" y="1099"/>
      <point x="454" y="1099" type="curve" smooth="yes"/>
    </contour>
  </outline>
</glyph>
<glyph name="onesuperior" format="1">
  <advance width="1032"/>
  <unicode hex="00B9"/>
  <outline>
    <contour>
      <point x="453" y="1477" type="line"/>
      <point x="104" y="1454" type="line"/>
      <point x="104" y="1284" type="line"/>
      <point x="231" y="1284" type="line"/>
      <point x="231" y="665" type="line"/>
      <point x="453" y="665" type="line"/>
    </contour>
  </outline>
</glyph>
<glyph name="multiply" format="1">
  <advance width="1568"/>
  <unicode hex="00D7"/>
  <outline>
    <contour>
      <point x="241" y="198" type="line"/>
      <point x="1020" y="992" type="line"/>
      <point x="834" y="1175" type="line"/>
      <point x="55" y="381" type="line"/>
    </contour>
    <contour>
      <point x="834" y="198" type="line"/>
      <point x="1020" y="381" type="line"/>
      <point x="241" y="1175" type="line"/>
      <point x="55" y="992" type="line"/>
    </contour>
  </outline>
</glyph>
<glyph name="germandbls" format="1">
  <advance width="1832"/>
  <unicode hex="00DF"/>
  <outline>
    <contour>
      <point x="509" y="1106" type="line" smooth="yes"/>
      <point x="509" y="1240"/>
      <point x="573" y="1322"/>
      <point x="659" y="1322" type="curve" smooth="yes"/>
      <point x="759" y="1322"/>
      <point x="802" y="1259"/>
      <point x="802" y="1187" type="curve" smooth="yes"/>
      <point x="802" y="1031"/>
      <point x="703" y="1013"/>
      <point x="703" y="827" type="curve" smooth="yes"/>
      <point x="703" y="574"/>
      <point x="988" y="519"/>
      <point x="988" y="364" type="curve" smooth="yes"/>
      <point x="988" y="284"/>
      <point x="929" y="239"/>
      <point x="841" y="239" type="curve" smooth="yes"/>
      <point x="753" y="239"/>
      <point x="685" y="262"/>
      <point x="648" y="283" type="curve"/>
      <point x="590" y="27" type="line"/>
      <point x="641" y="-5"/>
      <point x="748" y="-21"/>
      <point x="842" y="-21" type="curve" smooth="yes"/>
      <point x="1148" y="-21"/>
      <point x="1309" y="110"/>
      <point x="1309" y="377" type="curve" smooth="yes"/>
      <point x="1309" y="626"/>
      <point x="1025" y="724"/>
      <point x="1025" y="842" type="curve" smooth="yes"/>
      <point x="1025" y="1003"/>
      <point x="1124" y="1006"/>
      <point x="1124" y="1201" type="curve" smooth="yes"/>
      <point x="1124" y="1450"/>
      <point x="925" y="1581"/>
      <point x="688" y="1581" type="curve" smooth="yes"/>
      <point x="377" y="1581"/>
      <point x="187" y="1417"/>
      <point x="187" y="1112" type="curve" smooth="yes"/>
      <point x="187" y="0" type="line"/>
      <point x="509" y="0" type="line"/>
    </contour>
    <contour>
      <point x="187" y="0" type="line"/>
      <point x="187" y="230" type="line"/>
      <point x="34" y="200" type="line"/>
      <point x="34" y="0" type="line"/>
    </contour>
  </outline>
</glyph>
<glyph name="ae" format="1">
  <advance width="2280"/>
  <unicode hex="00E6"/>
  <outline>
    <contour>
      <point x="743" y="183" type="line"/>
      <point x="1065" y="218" type="line"/>
      <point x="1065" y="699" type="line" smooth="yes"/>
      <point x="1065" y="967"/>
      <point x="879" y="1102"/>
      <point x="606" y="1102" type="curve" smooth="yes"/>
      <point x="312" y="1102"/>
      <point x="123" y="958"/>
      <point x="123" y="759" type="curve"/>
      <point x="445" y="740" type="line"/>
      <point x="445" y="797"/>
      <point x="501" y="842"/>
      <point x="602" y="842" type="curve" smooth="yes"/>
      <point x="693" y="842"/>
      <point x="743" y="789"/>
      <point x="743" y="701" type="curve" smooth="yes"/>
    </contour>
    <contour>
      <point x="767" y="655" type="line"/>
      <point x="578" y="655" type="line" smooth="yes"/>
      <point x="242" y="655"/>
      <point x="66" y="535"/>
      <point x="66" y="324" type="curve" smooth="yes"/>
      <point x="66" y="115"/>
      <point x="213" y="-21"/>
      <point x="482" y="-21" type="curve" smooth="yes"/>
      <point x="726" y="-21"/>
      <point x="867" y="96"/>
      <point x="918" y="193" type="curve"/>
      <point x="771" y="349" type="line"/>
      <point x="771" y="290"/>
      <point x="646" y="211"/>
      <point x="543" y="211" type="curve" smooth="yes"/>
      <point x="437" y="211"/>
      <point x="388" y="253"/>
      <point x="388" y="320" type="curve" smooth="yes"/>
      <point x="388" y="388"/>
      <point x="454" y="451"/>
      <point x="580" y="451" type="curve" smooth="yes"/>
      <point x="769" y="451" type="line"/>
    </contour>
    <contour>
      <point x="1264" y="-21" type="curve" smooth="yes"/>
      <point x="1439" y="-21"/>
      <point x="1595" y="37"/>
      <point x="1673" y="100" type="curve"/>
      <point x="1593" y="306" type="line"/>
      <point x="1512" y="268"/>
      <point x="1438" y="239"/>
      <point x="1305" y="239" type="curve" smooth="yes"/>
      <point x="1126" y="239"/>
      <point x="1065" y="344"/>
      <point x="1065" y="485" type="curve" smooth="yes"/>
      <point x="1065" y="564" type="line" smooth="yes"/>
      <point x="1065" y="725"/>
      <point x="1100" y="842"/>
      <point x="1249" y="842" type="curve" smooth="yes"/>
      <point x="1343" y="842"/>
      <point x="1391" y="779"/>
      <point x="1391" y="672" type="curve" smooth="yes"/>
      <point x="1391" y="646" type="line"/>
      <point x="869" y="646" type="line"/>
      <point x="869" y="435" type="line"/>
      <point x="1706" y="435" type="line"/>
      <point x="1706" y="612" type="line" smooth="yes"/>
      <point x="1706" y="913"/>
      <point x="1532" y="1102"/>
      <point x="1249" y="1102" type="curve" smooth="yes"/>
      <point x="914" y="1104"/>
      <point x="743" y="880"/>
      <point x="743" y="564" type="curve" smooth="yes"/>
      <point x="743" y="485" type="line" smooth="yes"/>
      <point x="743" y="191"/>
      <point x="928" y="-21"/>
    </contour>
  </outline>
</glyph>
<glyph name="thorn" format="1">
  <advance width="1736"/>
  <unicode hex="00FE"/>
  <outline>
    <contour>
      <point x="513" y="1560" type="line"/>
      <point x="191" y="1560" type="line"/>
      <point x="191" y="-416" type="line"/>
      <point x="513" y="-416" type="line"/>
    </contour>
    <contour>
      <point x="1184" y="539" type="line" smooth="yes"/>
      <point x="1184" y="868"/>
      <point x="1037" y="1102"/>
      <point x="762" y="1102" type="curve" smooth="yes"/>
      <point x="514" y="1102"/>
      <point x="413" y="848"/>
      <point x="373" y="535" type="curve"/>
      <point x="373" y="508" type="line"/>
      <point x="413" y="216"/>
      <point x="514" y="-21"/>
      <point x="764" y="-21" type="curve" smooth="yes"/>
      <point x="1037" y="-21"/>
      <point x="1184" y="203"/>
      <point x="1184" y="518" type="curve" smooth="yes"/>
    </contour>
    <contour>
      <point x="862" y="518" type="line" smooth="yes"/>
      <point x="862" y="356"/>
      <point x="818" y="239"/>
      <point x="683" y="239" type="curve" smooth="yes"/>
      <point x="534" y="239"/>
      <point x="473" y="328"/>
      <point x="473" y="480" type="curve" smooth="yes"/>
      <point x="473" y="562" type="line" smooth="yes"/>
      <point x="473" y="738"/>
      <point x="534" y="842"/>
      <point x="681" y="842" type="curve" smooth="yes"/>
      <point x="814" y="842"/>
      <point x="862" y="707"/>
      <point x="862" y="539" type="curve" smooth="yes"/>
    </contour>
    <contour>
      <point x="513" y="-416" type="line"/>
      <point x="646" y="-416" type="line"/>
      <point x="646" y="-216" type="line"/>
      <point x="513" y="-186" type="line"/>
    </contour>
    <contour>
      <point x="191" y="1560" type="line"/>
      <point x="38" y="1560" type="line"/>
      <point x="38" y="1360" type="line"/>
      <point x="191" y="1330" type="line"/>
    </contour>
    <contour>
      <point x="191" y="-416" type="line"/>
      <point x="191" y="-186" type="line"/>
      <point x="58" y="-216" type="line"/>
      <point x="58" y="-416" type="line"/>
    </contour>
  </outline>
</glyph>
<glyph name="dotlessi" format="1">
  <advance width="1191"/>
  <unicode hex="0131"/>
  <outline>
    <contour>
      <point x="540" y="1082" type="line"/>
      <point x="217" y="1082" type="line"/>
      <point x="217" y="0" type="line"/>
      <point x="540" y="0" type="line"/>
    </contour>
    <contour>
      <point x="217" y="0" type="line"/>
      <point x="217" y="230" type="line"/>
      <point x="84" y="200" type="line"/>
      <point x="84" y="0" type="line"/>
    </contour>
    <contour>
      <point x="540" y="0" type="line"/>
      <point x="673" y="0" type="line"/>
      <point x="673" y="200" type="line"/>
      <point x="540" y="230" type="line"/>
    </contour>
    <contour>
      <point x="217" y="1082" type="line"/>
      <point x="64" y="1082" type="line"/>
      <point x="64" y="882" type="line"/>
      <point x="217" y="852" type="line"/>
    </contour>
  </outline>
</glyph>
<glyph name="kgreenlandic" format="1">
  <advance width="1774"/>
  <unicode hex="0138"/>
  <outline>
    <contour>
      <point x="498" y="1082" type="line"/>
      <point x="176" y="1082" type="line"/>
      <point x="176" y="0" type="line"/>
      <point x="498" y="0" type="line"/>
    </contour>
    <contour>
      <point x="850" y="1082" type="line"/>
      <point x="617" y="1082" type="line"/>
      <point x="617" y="882" type="line"/>
      <point x="850" y="852" type="line"/>
    </contour>
    <contour>
      <point x="176" y="0" type="line"/>
      <point x="176" y="230" type="line"/>
      <point x="43" y="200" type="line"/>
      <point x="43" y="0" type="line"/>
    </contour>
    <contour>
      <point x="498" y="0" type="line"/>
      <point x="611" y="0" type="line"/>
      <point x="611" y="200" type="line"/>
      <point x="498" y="230" type="line"/>
    </contour>
    <contour>
      <point x="176" y="1082" type="line"/>
      <point x="33" y="1082" type="line"/>
      <point x="33" y="882" type="line"/>
      <point x="176" y="852" type="line"/>
    </contour>
    <contour>
      <point x="865" y="0" type="line"/>
      <point x="1217" y="0" type="line"/>
      <point x="1217" y="200" type="line"/>
      <point x="1110" y="221" type="line"/>
      <point x="840" y="650" type="line"/>
      <point x="597" y="473" type="line"/>
    </contour>
    <contour>
      <point x="1174" y="1082" type="line"/>
      <point x="850" y="1082" type="line"/>
      <point x="582" y="665" type="line"/>
      <point x="322" y="665" type="line"/>
      <point x="417" y="430" type="line"/>
      <point x="735" y="430" type="line"/>
      <point x="1048" y="853" type="line"/>
      <point x="1174" y="882" type="line"/>
    </contour>
  </outline>
</glyph>
<glyph name="OE" format="1">
  <advance width="2505"/>
  <unicode hex="0152"/>
  <outline>
    <contour>
      <point x="719" y="1477" type="curve" smooth="yes"/>
      <point x="350" y="1477"/>
      <point x="99" y="1233"/>
      <point x="99" y="880" type="curve" smooth="yes"/>
      <point x="99" y="576" type="line" smooth="yes"/>
      <point x="99" y="223"/>
      <point x="352" y="-21"/>
      <point x="721" y="-21" type="curve" smooth="yes"/>
      <point x="822" y="-21"/>
      <point x="920" y="-10"/>
      <point x="1009" y="0" type="curve"/>
      <point x="1009" y="267" type="line"/>
      <point x="923" y="251"/>
      <point x="824" y="239"/>
      <point x="721" y="239" type="curve" smooth="yes"/>
      <point x="537" y="239"/>
      <point x="421" y="352"/>
      <point x="421" y="576" type="curve" smooth="yes"/>
      <point x="421" y="882" type="line" smooth="yes"/>
      <point x="421" y="1106"/>
      <point x="535" y="1217"/>
      <point x="719" y="1217" type="curve" smooth="yes"/>
      <point x="823" y="1217"/>
      <point x="922" y="1204"/>
      <point x="1009" y="1189" type="curve"/>
      <point x="1009" y="1456" type="line"/>
      <point x="920" y="1467"/>
      <point x="820" y="1477"/>
    </contour>
    <contour>
      <point x="1954" y="260" type="line"/>
      <point x="1162" y="260" type="line"/>
      <point x="1162" y="0" type="line"/>
      <point x="1954" y="0" type="line"/>
    </contour>
    <contour>
      <point x="1270" y="1456" type="line"/>
      <point x="947" y="1456" type="line"/>
      <point x="947" y="0" type="line"/>
      <point x="1270" y="0" type="line"/>
    </contour>
    <contour>
      <point x="1742" y="883" type="line"/>
      <point x="1162" y="883" type="line"/>
      <point x="1162" y="623" type="line"/>
      <point x="1742" y="623" type="line"/>
    </contour>
    <contour>
      <point x="1954" y="1456" type="line"/>
      <point x="1162" y="1456" type="line"/>
      <point x="1162" y="1196" type="line"/>
      <point x="1954" y="1196" type="line"/>
    </contour>
    <contour>
      <point x="1954" y="1456" type="line"/>
      <point x="1684" y="1456" type="line"/>
      <point x="1713" y="1033" type="line"/>
      <point x="1954" y="1033" type="line"/>
    </contour>
    <contour>
      <point x="947" y="0" type="line"/>
      <point x="947" y="230" type="line"/>
      <point x="794" y="200" type="line"/>
      <point x="794" y="0" type="line"/>
    </contour>
    <contour>
      <point x="947" y="1456" type="line"/>
      <point x="794" y="1456" type="line"/>
      <point x="794" y="1256" type="line"/>
      <point x="947" y="1226" type="line"/>
    </contour>
    <contour>
      <point x="1954" y="0" type="line"/>
      <point x="1954" y="423" type="line"/>
      <point x="1714" y="423" type="line"/>
      <point x="1684" y="0" type="line"/>
    </contour>
  </outline>
</glyph>
<glyph name="florin" format="1">
  <advance width="1307"/>
  <unicode hex="0192"/>
  <outline>
    <contour>
      <point x="743" y="1082" type="line"/>
      <point x="531" y="1082" type="line"/>
      <point x="531" y="1194" type="line" smooth="yes"/>
      <point x="531" y="1276"/>
      <point x="580" y="1321"/>
      <point x="667" y="1321" type="curve" smooth="yes"/>
      <point x="711" y="1321"/>
      <point x="737" y="1317"/>
      <point x="767" y="1311" type="curve"/>
      <point x="792" y="1560" type="line"/>
      <point x="736" y="1572"/>
      <point x="683" y="1581"/>
      <point x="627" y="1581" type="curve" smooth="yes"/>
      <point x="363" y="1581"/>
      <point x="208" y="1445"/>
      <point x="208" y="1194" type="curve" smooth="yes"/>
      <point x="208" y="1082" type="line"/>
      <point x="50" y="1082" type="line"/>
      <point x="50" y="848" type="line"/>
      <point x="208" y="848" type="line"/>
      <point x="208" y="-15" type="line" smooth="yes"/>
      <point x="208" y="-122"/>
      <point x="165" y="-177"/>
      <point x="89" y="-177" type="curve" smooth="yes"/>
      <point x="47" y="-177"/>
      <point x="22" y="-173"/>
      <point x="-10" y="-165" type="curve"/>
      <point x="-25" y="-420" type="line"/>
      <point x="30" y="-433"/>
      <point x="75" y="-437"/>
      <point x="130" y="-437" type="curve" smooth="yes"/>
      <point x="379" y="-437"/>
      <point x="530" y="-288"/>
      <point x="530" y="-15" type="curve" smooth="yes"/>
      <point x="531" y="848" type="line"/>
      <point x="743" y="848" type="line"/>
    </contour>
  </outline>
</glyph>
<glyph name="Uhorn" format="1">
  <advance width="2293"/>
  <unicode hex="01AF"/>
  <outline>
    <contour>
      <point x="1592" y="1462" type="line"/>
      <point x="1592" y="1256"/>
      <point x="1580" y="1128"/>
      <point x="1345" y="1128" type="curve"/>
      <point x="1345" y="964" type="line"/>
      <point x="1696" y="964"/>
      <point x="1793" y="1147"/>
      <point x="1793" y="1462" type="curve"/>
    </contour>
    <contour>
      <point x="1061" y="1456" type="line"/>
      <point x="1061" y="502" type="line" smooth="yes"/>
      <point x="1061" y="318"/>
      <point x="957" y="239"/>
      <point x="790" y="239" type="curve" smooth="yes"/>
      <point x="625" y="239"/>
      <point x="517" y="318"/>
      <point x="517" y="502" type="curve" smooth="yes"/>
      <point x="517" y="1456" type="line"/>
      <point x="194" y="1456" type="line"/>
      <point x="194" y="502" type="line" smooth="yes"/>
      <point x="194" y="162"/>
      <point x="445" y="-21"/>
      <point x="790" y="-21" type="curve" smooth="yes"/>
      <point x="1135" y="-21"/>
      <point x="1384" y="162"/>
      <point x="1384" y="502" type="curve" smooth="yes"/>
      <point x="1384" y="1456" type="line"/>
    </contour>
    <contour>
      <point x="517" y="1456" type="line"/>
      <point x="517" y="1226" type="line"/>
      <point x="670" y="1256" type="line"/>
      <point x="670" y="1456" type="line"/>
    </contour>
    <contour>
      <point x="194" y="1456" type="line"/>
      <point x="41" y="1456" type="line"/>
      <point x="41" y="1256" type="line"/>
      <point x="194" y="1226" type="line"/>
    </contour>
    <contour>
      <point x="1061" y="1456" type="line"/>
      <point x="908" y="1456" type="line"/>
      <point x="908" y="1256" type="line"/>
      <point x="1061" y="1226" type="line"/>
    </contour>
  </outline>
</glyph>
<glyph name="macron" format="1">
  <advance width="2002"/>
  <unicode hex="02C9"/>
  <outline>
    <contour>
      <point x="877" y="1458" type="line"/>
      <point x="144" y="1458" type="line"/>
      <point x="144" y="1285" type="line"/>
      <point x="877" y="1285" type="line"/>
    </contour>
  </outline>
</glyph>
<glyph name="gravecomb" format="1">
  <advance width="1034"/>
  <unicode hex="0300"/>
  <outline>
    <contour>
      <point x="321" y="1483" type="line"/>
      <point x="75" y="1483" type="line"/>
      <point x="268" y="1190" type="line"/>
      <point x="460" y="1190" type="line"/>
    </contour>
  </outline>
</glyph>
<glyph name="hook" format="1">
  <advance width="1125"/>
  <unicode hex="0309"/>
  <outline>
    <contour>
      <point x="389" y="1276" type="line"/>
      <point x="389" y="1338" type="line"/>
      <point x="463" y="1348"/>
      <point x="539" y="1391"/>
      <point x="539" y="1479" type="curve" smooth="yes"/>
      <point x="539" y="1602"/>
      <point x="399" y="1676"/>
      <point x="132" y="1676" type="curve"/>
      <point x="125" y="1531" type="line"/>
      <point x="205" y="1531"/>
      <point x="262" y="1518"/>
      <point x="262" y="1465" type="curve" smooth="yes"/>
      <point x="262" y="1426"/>
      <point x="222" y="1406"/>
      <point x="125" y="1402" type="curve"/>
      <point x="145" y="1276" type="line"/>
    </contour>
  </outline>
</glyph>
<glyph name="anoteleia" format="1">
  <advance width="1065"/>
  <unicode hex="0387"/>
  <outline>
    <contour>
      <point x="463" y="823" type="line"/>
      <point x="141" y="823" type="line"/>
      <point x="141" y="539" type="line"/>
      <point x="463" y="539" type="line"/>
    </contour>
  </outline>
</glyph>
<glyph name="Lambda" format="1">
  <advance width="1973"/>
  <unicode hex="039B"/>
  <outline>
    <contour>
      <point x="732" y="1065" type="line"/>
      <point x="811" y="1456" type="line"/>
      <point x="575" y="1456" type="line"/>
      <point x="95" y="0" type="line"/>
      <point x="434" y="0" type="line"/>
    </contour>
    <contour>
      <point x="1058" y="0" type="line"/>
      <point x="1397" y="0" type="line"/>
      <point x="917" y="1456" type="line"/>
      <point x="681" y="1456" type="line"/>
      <point x="762" y="1061" type="line"/>
    </contour>
    <contour>
      <point x="434" y="0" type="line"/>
      <point x="587" y="0" type="line"/>
      <point x="587" y="200" type="line"/>
      <point x="434" y="230" type="line"/>
    </contour>
    <contour>
      <point x="95" y="0" type="line"/>
      <point x="275" y="230" type="line"/>
      <point x="32" y="200" type="line"/>
      <point x="32" y="0" type="line"/>
    </contour>
    <contour>
      <point x="1397" y="0" type="line"/>
      <point x="1460" y="0" type="line"/>
      <point x="1460" y="200" type="line"/>
      <point x="1217" y="230" type="line"/>
    </contour>
    <contour>
      <point x="1058" y="0" type="line"/>
      <point x="1058" y="230" type="line"/>
      <point x="905" y="200" type="line"/>
      <point x="905" y="0" type="line"/>
    </contour>
  </outline>
</glyph>
<glyph name="Xi" format="1">
  <advance width="1767"/>
  <unicode hex="039E"/>
  <outline>
    <contour>
      <point x="143" y="0" type="line"/>
      <point x="1138" y="0" type="line"/>
      <point x="1138" y="260" type="line"/>
      <point x="143" y="260" type="line"/>
    </contour>
    <contour>
      <point x="325" y="608" type="line"/>
      <point x="958" y="608" type="line"/>
      <point x="958" y="856" type="line"/>
      <point x="325" y="856" type="line"/>
    </contour>
    <contour>
      <point x="172" y="1196" type="line"/>
      <point x="1088" y="1196" type="line"/>
      <point x="1088" y="1456" type="line"/>
      <point x="172" y="1456" type="line"/>
    </contour>
    <contour>
      <point x="1168" y="1456" type="line"/>
      <point x="898" y="1456" type="line"/>
      <point x="927" y="1063" type="line"/>
      <point x="1168" y="1063" type="line"/>
    </contour>
    <contour>
      <point x="92" y="1456" type="line"/>
      <point x="92" y="1063" type="line"/>
      <point x="333" y="1063" type="line"/>
      <point x="362" y="1456" type="line"/>
    </contour>
    <contour>
      <point x="63" y="0" type="line"/>
      <point x="333" y="0" type="line"/>
      <point x="303" y="393" type="line"/>
      <point x="63" y="393" type="line"/>
    </contour>
    <contour>
      <point x="1218" y="0" type="line"/>
      <point x="1218" y="393" type="line"/>
      <point x="978" y="393" type="line"/>
      <point x="948" y="0" type="line"/>
    </contour>
  </outline>
</glyph>
<glyph name="Pi" format="1">
  <advance width="2111"/>
  <unicode hex="03A0"/>
  <outline>
    <contour>
      <point x="1416" y="1456" type="line"/>
      <point x="214" y="1456" type="line"/>
      <point x="214" y="0" type="line"/>
      <point x="537" y="0" type="line"/>
      <point x="537" y="1196" type="line"/>
      <point x="1094" y="1196" type="line"/>
      <point x="1094" y="0" type="line"/>
      <point x="1416" y="0" type="line"/>
    </contour>
    <contour>
      <point x="1094" y="0" type="line"/>
      <point x="1094" y="230" type="line"/>
      <point x="941" y="200" type="line"/>
      <point x="941" y="0" type="line"/>
    </contour>
    <contour>
      <point x="1416" y="0" type="line"/>
      <point x="1569" y="0" type="line"/>
      <point x="1569" y="200" type="line"/>
      <point x="1416" y="230" type="line"/>
    </contour>
    <contour>
      <point x="214" y="0" type="line"/>
      <point x="214" y="230" type="line"/>
      <point x="61" y="200" type="line"/>
      <point x="61" y="0" type="line"/>
    </contour>
    <contour>
      <point x="537" y="0" type="line"/>
      <point x="690" y="0" type="line"/>
      <point x="690" y="200" type="line"/>
      <point x="537" y="230" type="line"/>
    </contour>
    <contour>
      <point x="1416" y="1456" type="line"/>
      <point x="1416" y="1226" type="line"/>
      <point x="1569" y="1256" type="line"/>
      <point x="1569" y="1456" type="line"/>
    </contour>
    <contour>
      <point x="214" y="1456" type="line"/>
      <point x="61" y="1456" type="line"/>
      <point x="61" y="1256" type="line"/>
      <point x="214" y="1226" type="line"/>
    </contour>
  </outline>
</glyph>
<glyph name="Sigma" format="1">
  <advance width="1677"/>
  <unicode hex="03A3"/>
  <outline>
    <contour>
      <point x="1102" y="260" type="line"/>
      <point x="188" y="260" type="line"/>
      <point x="188" y="0" type="line"/>
      <point x="1102" y="0" type="line"/>
    </contour>
    <contour>
      <point x="1083" y="1456" type="line"/>
      <point x="229" y="1456" type="line"/>
      <point x="229" y="1196" type="line"/>
      <point x="1083" y="1196" type="line"/>
    </contour>
    <contour>
      <point x="839" y="745" type="line"/>
      <point x="327" y="1456" type="line"/>
      <point x="67" y="1456" type="line"/>
      <point x="67" y="1306" type="line"/>
      <point x="498" y="738" type="line"/>
      <point x="67" y="152" type="line"/>
      <point x="67" y="0" type="line"/>
      <point x="327" y="0" type="line"/>
      <point x="839" y="731" type="line"/>
    </contour>
    <contour>
      <point x="1152" y="0" type="line"/>
      <point x="1152" y="393" type="line"/>
      <point x="912" y="393" type="line"/>
      <point x="882" y="0" type="line"/>
    </contour>
    <contour>
      <point x="1133" y="1456" type="line"/>
      <point x="863" y="1456" type="line"/>
      <point x="892" y="1063" type="line"/>
      <point x="1133" y="1063" type="line"/>
    </contour>
  </outline>
</glyph>
<glyph name="Psi" format="1">
  <advance width="2256"/>
  <unicode hex="03A8"/>
  <outline>
    <contour>
      <point x="1279" y="1456" type="line"/>
      <point x="1279" y="1009" type="line" smooth="yes"/>
      <point x="1279" y="767"/>
      <point x="1190" y="654"/>
      <point x="985" y="654" type="curve" smooth="yes"/>
      <point x="832" y="654" type="line" smooth="yes"/>
      <point x="626" y="654"/>
      <point x="510" y="767"/>
      <point x="510" y="1009" type="curve" smooth="yes"/>
      <point x="510" y="1456" type="line"/>
      <point x="188" y="1456" type="line"/>
      <point x="188" y="1009" type="line" smooth="yes"/>
      <point x="188" y="615"/>
      <point x="436" y="394"/>
      <point x="817" y="394" type="curve" smooth="yes"/>
      <point x="970" y="394" type="line" smooth="yes"/>
      <point x="1352" y="394"/>
      <point x="1602" y="615"/>
      <point x="1602" y="1009" type="curve" smooth="yes"/>
      <point x="1602" y="1456" type="line"/>
    </contour>
    <contour>
      <point x="1064" y="1456" type="line"/>
      <point x="742" y="1456" type="line"/>
      <point x="742" y="0" type="line"/>
      <point x="1064" y="0" type="line"/>
    </contour>
    <contour>
      <point x="1602" y="1456" type="line"/>
      <point x="1602" y="1226" type="line"/>
      <point x="1735" y="1256" type="line"/>
      <point x="1735" y="1456" type="line"/>
    </contour>
    <contour>
      <point x="1064" y="0" type="line"/>
      <point x="1217" y="0" type="line"/>
      <point x="1217" y="200" type="line"/>
      <point x="1064" y="230" type="line"/>
    </contour>
    <contour>
      <point x="742" y="0" type="line"/>
      <point x="742" y="230" type="line"/>
      <point x="589" y="200" type="line"/>
      <point x="589" y="0" type="line"/>
    </contour>
    <contour>
      <point x="742" y="1456" type="line"/>
      <point x="609" y="1456" type="line"/>
      <point x="609" y="1256" type="line"/>
      <point x="742" y="1226" type="line"/>
    </contour>
    <contour>
      <point x="1064" y="1456" type="line"/>
      <point x="1064" y="1226" type="line"/>
      <point x="1197" y="1256" type="line"/>
      <point x="1197" y="1456" type="line"/>
    </contour>
    <contour>
      <point x="188" y="1456" type="line"/>
      <point x="55" y="1456" type="line"/>
      <point x="55" y="1256" type="line"/>
      <point x="188" y="1226" type="line"/>
    </contour>
  </outline>
</glyph>
<glyph name="beta" format="1">
  <advance width="1708"/>
  <unicode hex="03B2"/>
  <outline>
    <contour>
      <point x="555" y="795" type="line"/>
      <point x="555" y="626" type="line"/>
      <point x="635" y="626" type="line" smooth="yes"/>
      <point x="769" y="626"/>
      <point x="841" y="562"/>
      <point x="841" y="415" type="curve" smooth="yes"/>
      <point x="841" y="317"/>
      <point x="766" y="239"/>
      <point x="639" y="239" type="curve" smooth="yes"/>
      <point x="470" y="239"/>
      <point x="361" y="311"/>
      <point x="361" y="404" type="curve"/>
      <point x="243" y="404" type="line"/>
      <point x="243" y="106"/>
      <point x="507" y="-21"/>
      <point x="720" y="-21" type="curve" smooth="yes"/>
      <point x="999" y="-21"/>
      <point x="1163" y="135"/>
      <point x="1163" y="408" type="curve" smooth="yes"/>
      <point x="1163" y="651"/>
      <point x="988" y="795"/>
      <point x="688" y="795" type="curve" smooth="yes"/>
    </contour>
    <contour>
      <point x="598" y="1477" type="curve" smooth="yes"/>
      <point x="336" y="1477"/>
      <point x="121" y="1303"/>
      <point x="121" y="1018" type="curve" smooth="yes"/>
      <point x="121" y="-415" type="line"/>
      <point x="443" y="-415" type="line"/>
      <point x="443" y="1018" type="line" smooth="yes"/>
      <point x="443" y="1144"/>
      <point x="508" y="1217"/>
      <point x="598" y="1217" type="curve" smooth="yes"/>
      <point x="707" y="1217"/>
      <point x="758" y="1139"/>
      <point x="758" y="1051" type="curve" smooth="yes"/>
      <point x="758" y="925"/>
      <point x="711" y="857"/>
      <point x="594" y="857" type="curve" smooth="yes"/>
      <point x="555" y="857" type="line"/>
      <point x="555" y="705" type="line"/>
      <point x="667" y="705" type="line" smooth="yes"/>
      <point x="914" y="705"/>
      <point x="1080" y="870"/>
      <point x="1080" y="1082" type="curve" smooth="yes"/>
      <point x="1080" y="1332"/>
      <point x="881" y="1477"/>
    </contour>
  </outline>
</glyph>
<glyph name="gamma" format="1">
  <advance width="1622"/>
  <unicode hex="03B3"/>
  <outline>
    <contour>
      <point x="726" y="70" type="line"/>
      <point x="404" y="70" type="line"/>
      <point x="404" y="-417" type="line"/>
      <point x="726" y="-417" type="line"/>
    </contour>
    <contour>
      <point x="591" y="446" type="line"/>
      <point x="509" y="0" type="line"/>
      <point x="727" y="0" type="line"/>
      <point x="1084" y="1082" type="line"/>
      <point x="746" y="1082" type="line"/>
    </contour>
    <contour>
      <point x="422" y="921" type="line" smooth="yes"/>
      <point x="381" y="1054"/>
      <point x="345" y="1093"/>
      <point x="185" y="1093" type="curve" smooth="yes"/>
      <point x="138" y="1093"/>
      <point x="63" y="1085"/>
      <point x="28" y="1076" type="curve"/>
      <point x="53" y="820" type="line"/>
      <point x="55" y="821"/>
      <point x="77" y="822"/>
      <point x="87" y="822" type="curve" smooth="yes"/>
      <point x="142" y="822"/>
      <point x="172" y="802"/>
      <point x="187" y="745" type="curve" smooth="yes"/>
      <point x="422" y="0" type="line"/>
      <point x="640" y="0" type="line"/>
      <point x="567" y="446" type="line"/>
    </contour>
    <contour>
      <point x="746" y="1082" type="line"/>
      <point x="593" y="1082" type="line"/>
      <point x="593" y="882" type="line"/>
      <point x="746" y="852" type="line"/>
    </contour>
    <contour>
      <point x="1084" y="1082" type="line"/>
      <point x="904" y="852" type="line"/>
      <point x="1107" y="882" type="line"/>
      <point x="1107" y="1082" type="line"/>
    </contour>
  </outline>
</glyph>
<glyph name="eta" format="1">
  <advance width="1759"/>
  <unicode hex="03B7"/>
  <outline>
    <contour>
      <point x="418" y="578" type="line"/>
      <point x="418" y="729"/>
      <point x="501" y="842"/>
      <point x="657" y="842" type="curve" smooth="yes"/>
      <point x="745" y="842"/>
      <point x="797" y="797"/>
      <point x="797" y="652" type="curve" smooth="yes"/>
      <point x="797" y="-416" type="line"/>
      <point x="1120" y="-416" type="line"/>
      <point x="1120" y="651" type="line" smooth="yes"/>
      <point x="1120" y="980"/>
      <point x="981" y="1102"/>
      <point x="779" y="1102" type="curve" smooth="yes"/>
      <point x="539" y="1102"/>
      <point x="379" y="880"/>
      <point x="379" y="576" type="curve"/>
    </contour>
    <contour>
      <point x="479" y="-1" type="line"/>
      <point x="479" y="861" type="line" smooth="yes"/>
      <point x="479" y="1017"/>
      <point x="385" y="1092"/>
      <point x="228" y="1092" type="curve" smooth="yes"/>
      <point x="141" y="1092"/>
      <point x="47" y="1071"/>
      <point x="-1" y="1051" type="curve"/>
      <point x="24" y="824" type="line"/>
      <point x="46" y="828"/>
      <point x="58" y="831"/>
      <point x="87" y="831" type="curve" smooth="yes"/>
      <point x="134" y="831"/>
      <point x="156" y="812"/>
      <point x="156" y="761" type="curve" smooth="yes"/>
      <point x="156" y="-1" type="line"/>
    </contour>
  </outline>
</glyph>
<glyph name="pi" format="1">
  <advance width="1813"/>
  <unicode hex="03C0"/>
  <outline>
    <contour>
      <point x="1232" y="1082" type="line"/>
      <point x="52" y="1082" type="line"/>
      <point x="52" y="840" type="line"/>
      <point x="1232" y="840" type="line"/>
    </contour>
    <contour>
      <point x="534" y="1082" type="line"/>
      <point x="212" y="1082" type="line"/>
      <point x="212" y="0" type="line"/>
      <point x="534" y="0" type="line"/>
    </contour>
    <contour>
      <point x="781" y="1083" type="line"/>
      <point x="781" y="351" type="line" smooth="yes"/>
      <point x="781" y="102"/>
      <point x="912" y="-20"/>
      <point x="1132" y="-20" type="curve" smooth="yes"/>
      <point x="1204" y="-20"/>
      <point x="1253" y="-15"/>
      <point x="1318" y="4" type="curve"/>
      <point x="1293" y="254" type="line"/>
      <point x="1257" y="246"/>
      <point x="1240" y="241"/>
      <point x="1193" y="241" type="curve" smooth="yes"/>
      <point x="1132" y="241"/>
      <point x="1104" y="270"/>
      <point x="1104" y="351" type="curve" smooth="yes"/>
      <point x="1104" y="1083" type="line"/>
    </contour>
    <contour>
      <point x="781" y="1083" type="line"/>
      <point x="628" y="1083" type="line"/>
      <point x="628" y="883" type="line"/>
      <point x="781" y="853" type="line"/>
    </contour>
  </outline>
</glyph>
<glyph name="sigma" format="1">
  <advance width="1740"/>
  <unicode hex="03C3"/>
  <outline>
    <contour>
      <point x="70" y="530" type="line" smooth="yes"/>
      <point x="70" y="214"/>
      <point x="254" y="-21"/>
      <point x="590" y="-21" type="curve" smooth="yes"/>
      <point x="912" y="-21"/>
      <point x="1088" y="196"/>
      <point x="1088" y="489" type="curve" smooth="yes"/>
      <point x="1088" y="510" type="line" smooth="yes"/>
      <point x="1088" y="691"/>
      <point x="928" y="852"/>
      <point x="778" y="905" type="curve"/>
      <point x="656" y="940"/>
      <point x="625" y="1055"/>
      <point x="588" y="1082" type="curve"/>
      <point x="254" y="1082"/>
      <point x="70" y="856"/>
      <point x="70" y="551" type="curve" smooth="yes"/>
    </contour>
    <contour>
      <point x="392" y="551" type="line" smooth="yes"/>
      <point x="392" y="698"/>
      <point x="441" y="822"/>
      <point x="589" y="822" type="curve" smooth="yes"/>
      <point x="725" y="822"/>
      <point x="766" y="698"/>
      <point x="766" y="551" type="curve" smooth="yes"/>
      <point x="766" y="530" type="line" smooth="yes"/>
      <point x="766" y="367"/>
      <point x="723" y="239"/>
      <point x="590" y="239" type="curve" smooth="yes"/>
      <point x="439" y="239"/>
      <point x="392" y="367"/>
      <point x="392" y="530" type="curve" smooth="yes"/>
    </contour>
    <contour>
      <point x="1165" y="1082" type="line"/>
      <point x="589" y="1082" type="line"/>
      <point x="589" y="822" type="line"/>
      <point x="1165" y="822" type="line"/>
    </contour>
  </outline>
</glyph>
<glyph name="chi" format="1">
  <advance width="1691"/>
  <unicode hex="03C7"/>
  <outline>
    <contour>
      <point x="23" y="0" type="line"/>
      <point x="522" y="0" type="line"/>
      <point x="522" y="190" type="line"/>
      <point x="439" y="199" type="line"/>
      <point x="579" y="384" type="line"/>
      <point x="871" y="0" type="line"/>
      <point x="1168" y="0" type="line"/>
      <point x="1168" y="200" type="line"/>
      <point x="1072" y="211" type="line"/>
      <point x="786" y="547" type="line"/>
      <point x="1055" y="869" type="line"/>
      <point x="1147" y="882" type="line"/>
      <point x="1147" y="1082" type="line"/>
      <point x="638" y="1082" type="line"/>
      <point x="638" y="892" type="line"/>
      <point x="740" y="880" type="line"/>
      <point x="603" y="706" type="line"/>
      <point x="331" y="1082" type="line"/>
      <point x="33" y="1082" type="line"/>
      <point x="33" y="882" type="line"/>
      <point x="129" y="870" type="line"/>
      <point x="405" y="547" type="line"/>
      <point x="119" y="211" type="line"/>
      <point x="23" y="200" type="line"/>
    </contour>
  </outline>
</glyph>
<glyph name="uni0404" format="1">
  <advance width="1805"/>
  <unicode hex="0404"/>
  <outline>
    <contour>
      <point x="852" y="859" type="line"/>
      <point x="263" y="859" type="line"/>
      <point x="263" y="598" type="line"/>
      <point x="852" y="598" type="line"/>
    </contour>
    <contour>
      <point x="1226" y="1246" type="line"/>
      <point x="1100" y="1397"/>
      <point x="912" y="1478"/>
      <point x="679" y="1478" type="curve" smooth="yes"/>
      <point x="286" y="1478"/>
      <point x="7" y="1186"/>
      <point x="7" y="761" type="curve" smooth="yes"/>
      <point x="7" y="697" type="line" smooth="yes"/>
      <point x="7" y="272"/>
      <point x="286" y="-20"/>
      <point x="679" y="-20" type="curve" smooth="yes"/>
      <point x="912" y="-20"/>
      <point x="1100" y="61"/>
      <point x="1226" y="212" type="curve"/>
      <point x="1226" y="515" type="line"/>
      <point x="984" y="515" type="line"/>
      <point x="956" y="328" type="line"/>
      <point x="907" y="271"/>
      <point x="810" y="240"/>
      <point x="699" y="240" type="curve" smooth="yes"/>
      <point x="458" y="240"/>
      <point x="329" y="428"/>
      <point x="329" y="697" type="curve" smooth="yes"/>
      <point x="329" y="763" type="line" smooth="yes"/>
      <point x="329" y="1033"/>
      <point x="458" y="1218"/>
      <point x="699" y="1218" type="curve" smooth="yes"/>
      <point x="819" y="1218"/>
      <point x="903" y="1187"/>
      <point x="956" y="1130" type="curve"/>
      <point x="984" y="943" type="line"/>
      <point x="1226" y="943" type="line"/>
    </contour>
  </outline>
</glyph>
<glyph name="uni0417" format="1">
  <advance width="1721"/>
  <unicode hex="0417"/>
  <outline>
    <contour>
      <point x="665" y="697" type="line" smooth="yes"/>
      <point x="949" y="697"/>
      <point x="1139" y="861"/>
      <point x="1139" y="1061" type="curve" smooth="yes"/>
      <point x="1139" y="1333"/>
      <point x="925" y="1477"/>
      <point x="596" y="1477" type="curve" smooth="yes"/>
      <point x="372" y="1477"/>
      <point x="180" y="1396"/>
      <point x="59" y="1245" type="curve"/>
      <point x="59" y="962" type="line"/>
      <point x="301" y="962" type="line"/>
      <point x="329" y="1129" type="line"/>
      <point x="378" y="1186"/>
      <point x="465" y="1217"/>
      <point x="576" y="1217" type="curve" smooth="yes"/>
      <point x="747" y="1217"/>
      <point x="817" y="1141"/>
      <point x="817" y="1054" type="curve" smooth="yes"/>
      <point x="817" y="940"/>
      <point x="757" y="869"/>
      <point x="612" y="869" type="curve" smooth="yes"/>
      <point x="430" y="869" type="line"/>
      <point x="430" y="697" type="line"/>
    </contour>
    <contour>
      <point x="430" y="786" type="line"/>
      <point x="430" y="618" type="line"/>
      <point x="612" y="618" type="line" smooth="yes"/>
      <point x="760" y="618"/>
      <point x="839" y="562"/>
      <point x="839" y="415" type="curve" smooth="yes"/>
      <point x="839" y="317"/>
      <point x="750" y="239"/>
      <point x="596" y="239" type="curve" smooth="yes"/>
      <point x="463" y="239"/>
      <point x="369" y="311"/>
      <point x="369" y="404" type="curve"/>
      <point x="46" y="404" type="line"/>
      <point x="46" y="106"/>
      <point x="330" y="-21"/>
      <point x="596" y="-21" type="curve" smooth="yes"/>
      <point x="925" y="-21"/>
      <point x="1162" y="135"/>
      <point x="1162" y="408" type="curve" smooth="yes"/>
      <point x="1162" y="651"/>
      <point x="979" y="786"/>
      <point x="665" y="786" type="curve" smooth="yes"/>
    </contour>
  </outline>
</glyph>
<glyph name="uni0424" format="1">
  <advance width="2143"/>
  <unicode hex="0424"/>
  <outline>
    <contour>
      <point x="680" y="1272" type="line" smooth="yes"/>
      <point x="309" y="1272"/>
      <point x="54" y="1056"/>
      <point x="54" y="717" type="curve" smooth="yes"/>
      <point x="54" y="390"/>
      <point x="309" y="184"/>
      <point x="680" y="184" type="curve" smooth="yes"/>
      <point x="996" y="184" type="line" smooth="yes"/>
      <point x="1367" y="184"/>
      <point x="1622" y="392"/>
      <point x="1622" y="719" type="curve" smooth="yes"/>
      <point x="1622" y="1058"/>
      <point x="1367" y="1272"/>
      <point x="996" y="1272" type="curve" smooth="yes"/>
    </contour>
    <contour>
      <point x="680" y="1050" type="curve" smooth="yes"/>
      <point x="998" y="1050" type="line" smooth="yes"/>
      <point x="1183" y="1050"/>
      <point x="1306" y="945"/>
      <point x="1306" y="719" type="curve" smooth="yes"/>
      <point x="1306" y="510"/>
      <point x="1183" y="406"/>
      <point x="998" y="406" type="curve" smooth="yes"/>
      <point x="680" y="406" type="line" smooth="yes"/>
      <point x="496" y="406"/>
      <point x="370" y="505"/>
      <point x="370" y="717" type="curve" smooth="yes"/>
      <point x="370" y="944"/>
      <point x="496" y="1050"/>
    </contour>
    <contour>
      <point x="1001" y="1546" type="line"/>
      <point x="679" y="1546" type="line"/>
      <point x="679" y="-90" type="line"/>
      <point x="1001" y="-90" type="line"/>
    </contour>
    <contour>
      <point x="1001" y="1546" type="line"/>
      <point x="1001" y="1336" type="line"/>
      <point x="1154" y="1366" type="line"/>
      <point x="1154" y="1546" type="line"/>
    </contour>
    <contour>
      <point x="679" y="1546" type="line"/>
      <point x="526" y="1546" type="line"/>
      <point x="526" y="1366" type="line"/>
      <point x="679" y="1336" type="line"/>
    </contour>
    <contour>
      <point x="679" y="-90" type="line"/>
      <point x="679" y="120" type="line"/>
      <point x="526" y="90" type="line"/>
      <point x="526" y="-90" type="line"/>
    </contour>
    <contour>
      <point x="1001" y="-90" type="line"/>
      <point x="1154" y="-90" type="line"/>
      <point x="1154" y="90" type="line"/>
      <point x="1001" y="120" type="line"/>
    </contour>
  </outline>
</glyph>
<glyph name="uni0428" format="1">
  <advance width="2640"/>
  <unicode hex="0428"/>
  <outline>
    <contour>
      <point x="220" y="1456" type="line"/>
      <point x="220" y="0" type="line"/>
      <point x="1955" y="0" type="line"/>
      <point x="1955" y="1456" type="line"/>
      <point x="1633" y="1456" type="line"/>
      <point x="1633" y="260" type="line"/>
      <point x="1251" y="260" type="line"/>
      <point x="1251" y="1456" type="line"/>
      <point x="929" y="1456" type="line"/>
      <point x="929" y="260" type="line"/>
      <point x="543" y="260" type="line"/>
      <point x="543" y="1456" type="line"/>
    </contour>
    <contour>
      <point x="543" y="1456" type="line"/>
      <point x="543" y="1226" type="line"/>
      <point x="696" y="1256" type="line"/>
      <point x="696" y="1456" type="line"/>
    </contour>
    <contour>
      <point x="929" y="1456" type="line"/>
      <point x="776" y="1456" type="line"/>
      <point x="776" y="1256" type="line"/>
      <point x="929" y="1226" type="line"/>
    </contour>
    <contour>
      <point x="1251" y="1456" type="line"/>
      <point x="1251" y="1226" type="line"/>
      <point x="1404" y="1256" type="line"/>
      <point x="1404" y="1456" type="line"/>
    </contour>
    <contour>
      <point x="1633" y="1456" type="line"/>
      <point x="1480" y="1456" type="line"/>
      <point x="1480" y="1256" type="line"/>
      <point x="1633" y="1226" type="line"/>
    </contour>
    <contour>
      <point x="1955" y="0" type="line"/>
      <point x="2108" y="0" type="line"/>
      <point x="2108" y="200" type="line"/>
      <point x="1955" y="230" type="line"/>
    </contour>
    <contour>
      <point x="1955" y="1456" type="line"/>
      <point x="1955" y="1226" type="line"/>
      <point x="2108" y="1256" type="line"/>
      <point x="2108" y="1456" type="line"/>
    </contour>
    <contour>
      <point x="220" y="1456" type="line"/>
      <point x="67" y="1456" type="line"/>
      <point x="67" y="1256" type="line"/>
      <point x="220" y="1226" type="line"/>
    </contour>
    <contour>
      <point x="220" y="0" type="line"/>
      <point x="220" y="230" type="line"/>
      <point x="67" y="200" type="line"/>
      <point x="67" y="0" type="line"/>
    </contour>
  </outline>
</glyph>
<glyph name="uni042D" format="1">
  <advance width="1772"/>
  <unicode hex="042D"/>
  <outline>
    <contour>
      <point x="1037" y="859" type="line"/>
      <point x="417" y="859" type="line"/>
      <point x="417" y="598" type="line"/>
      <point x="1037" y="598" type="line"/>
    </contour>
    <contour>
      <point x="36" y="942" type="line"/>
      <point x="278" y="942" type="line"/>
      <point x="306" y="1129" type="line"/>
      <point x="359" y="1186"/>
      <point x="443" y="1217"/>
      <point x="563" y="1217" type="curve" smooth="yes"/>
      <point x="804" y="1217"/>
      <point x="923" y="1032"/>
      <point x="923" y="762" type="curve" smooth="yes"/>
      <point x="923" y="696" type="line" smooth="yes"/>
      <point x="923" y="427"/>
      <point x="804" y="239"/>
      <point x="563" y="239" type="curve" smooth="yes"/>
      <point x="452" y="239"/>
      <point x="355" y="270"/>
      <point x="306" y="327" type="curve"/>
      <point x="278" y="514" type="line"/>
      <point x="36" y="514" type="line"/>
      <point x="36" y="211" type="line"/>
      <point x="162" y="60"/>
      <point x="350" y="-21"/>
      <point x="583" y="-21" type="curve" smooth="yes"/>
      <point x="976" y="-21"/>
      <point x="1245" y="271"/>
      <point x="1245" y="696" type="curve" smooth="yes"/>
      <point x="1245" y="760" type="line" smooth="yes"/>
      <point x="1245" y="1185"/>
      <point x="976" y="1477"/>
      <point x="583" y="1477" type="curve" smooth="yes"/>
      <point x="350" y="1477"/>
      <point x="162" y="1396"/>
      <point x="36" y="1245" type="curve"/>
    </contour>
  </outline>
</glyph>
<glyph name="uni042F" format="1">
  <advance width="1875"/>
  <unicode hex="042F"/>
  <outline>
    <contour>
      <point x="982" y="537" type="line"/>
      <point x="984" y="778" type="line"/>
      <point x="674" y="778" type="line" smooth="yes"/>
      <point x="528" y="778"/>
      <point x="454" y="851"/>
      <point x="454" y="985" type="curve" smooth="yes"/>
      <point x="454" y="1126"/>
      <point x="528" y="1196"/>
      <point x="674" y="1196" type="curve" smooth="yes"/>
      <point x="868" y="1196" type="line"/>
      <point x="868" y="0" type="line"/>
      <point x="1191" y="0" type="line"/>
      <point x="1191" y="1456" type="line"/>
      <point x="674" y="1456" type="line" smooth="yes"/>
      <point x="340" y="1456"/>
      <point x="132" y="1302"/>
      <point x="132" y="1005" type="curve" smooth="yes"/>
      <point x="132" y="778"/>
      <point x="257" y="654"/>
      <point x="489" y="579" type="curve"/>
      <point x="593" y="537" type="line"/>
    </contour>
    <contour>
      <point x="868" y="0" type="line"/>
      <point x="868" y="230" type="line"/>
      <point x="715" y="200" type="line"/>
      <point x="715" y="0" type="line"/>
    </contour>
    <contour>
      <point x="1191" y="1456" type="line"/>
      <point x="1191" y="1226" type="line"/>
      <point x="1344" y="1256" type="line"/>
      <point x="1344" y="1456" type="line"/>
    </contour>
    <contour>
      <point x="1191" y="0" type="line"/>
      <point x="1344" y="0" type="line"/>
      <point x="1344" y="200" type="line"/>
      <point x="1191" y="230" type="line"/>
    </contour>
    <contour>
      <point x="70" y="44" type="line"/>
      <point x="118" y="13"/>
      <point x="185" y="-10"/>
      <point x="259" y="-10" type="curve" smooth="yes"/>
      <point x="422" y="-10"/>
      <point x="532" y="102"/>
      <point x="602" y="267" type="curve" smooth="yes"/>
      <point x="713" y="547" type="line"/>
      <point x="919" y="547" type="line"/>
      <point x="809" y="772" type="line"/>
      <point x="501" y="772" type="line"/>
      <point x="343" y="422" type="line" smooth="yes"/>
      <point x="282" y="303"/>
      <point x="233" y="291"/>
      <point x="182" y="291" type="curve" smooth="yes"/>
      <point x="151" y="291"/>
      <point x="132" y="297"/>
      <point x="111" y="304" type="curve"/>
    </contour>
  </outline>
</glyph>
<glyph name="uni0432" format="1">
  <advance width="1784"/>
  <unicode hex="0432"/>
  <outline>
    <contour>
      <point x="773" y="441" type="line"/>
      <point x="803" y="525" type="line"/>
      <point x="1034" y="539"/>
      <point x="1162" y="645"/>
      <point x="1162" y="779" type="curve" smooth="yes"/>
      <point x="1162" y="984"/>
      <point x="986" y="1082"/>
      <point x="703" y="1082" type="curve" smooth="yes"/>
      <point x="243" y="1082" type="line"/>
      <point x="243" y="0" type="line"/>
      <point x="565" y="0" type="line"/>
      <point x="565" y="824" type="line"/>
      <point x="703" y="824" type="line" smooth="yes"/>
      <point x="795" y="824"/>
      <point x="840" y="799"/>
      <point x="840" y="730" type="curve" smooth="yes"/>
      <point x="840" y="677"/>
      <point x="805" y="649"/>
      <point x="714" y="649" type="curve" smooth="yes"/>
      <point x="437" y="649" type="line"/>
      <point x="439" y="441" type="line"/>
    </contour>
    <contour>
      <point x="773" y="0" type="line" smooth="yes"/>
      <point x="1064" y="0"/>
      <point x="1224" y="104"/>
      <point x="1224" y="309" type="curve" smooth="yes"/>
      <point x="1224" y="441"/>
      <point x="1117" y="549"/>
      <point x="873" y="564" type="curve"/>
      <point x="801" y="649" type="line"/>
      <point x="509" y="649" type="line"/>
      <point x="507" y="441" type="line"/>
      <point x="773" y="441" type="line" smooth="yes"/>
      <point x="873" y="441"/>
      <point x="902" y="402"/>
      <point x="902" y="347" type="curve" smooth="yes"/>
      <point x="902" y="288"/>
      <point x="864" y="258"/>
      <point x="773" y="258" type="curve" smooth="yes"/>
      <point x="469" y="258" type="line"/>
      <point x="366" y="0" type="line"/>
    </contour>
    <contour>
      <point x="243" y="1082" type="line"/>
      <point x="90" y="1082" type="line"/>
      <point x="90" y="882" type="line"/>
      <point x="243" y="852" type="line"/>
    </contour>
    <contour>
      <point x="243" y="0" type="line"/>
      <point x="243" y="230" type="line"/>
      <point x="90" y="200" type="line"/>
      <point x="90" y="0" type="line"/>
    </contour>
  </outline>
</glyph>
<glyph name="uni0434" format="1">
  <advance width="1862"/>
  <unicode hex="0434"/>
  <outline>
    <contour>
      <point x="312" y="1082" type="line"/>
      <point x="311" y="741" type="line"/>
      <point x="311" y="536"/>
      <point x="292" y="422"/>
      <point x="139" y="261" type="curve"/>
      <point x="111" y="261" type="line"/>
      <point x="117" y="0" type="line"/>
      <point x="160" y="0" type="line"/>
      <point x="407" y="52"/>
      <point x="615" y="251"/>
      <point x="633" y="741" type="curve" smooth="yes"/>
      <point x="634" y="1082" type="line"/>
    </contour>
    <contour>
      <point x="401" y="1082" type="line"/>
      <point x="401" y="822" type="line"/>
      <point x="819" y="822" type="line"/>
      <point x="819" y="0" type="line"/>
      <point x="1140" y="0" type="line"/>
      <point x="1140" y="1082" type="line"/>
    </contour>
    <contour>
      <point x="44" y="262" type="line"/>
      <point x="71" y="-328" type="line"/>
      <point x="374" y="-328" type="line"/>
      <point x="374" y="0" type="line"/>
      <point x="978" y="0" type="line"/>
      <point x="978" y="-328" type="line"/>
      <point x="1280" y="-328" type="line"/>
      <point x="1300" y="260" type="line"/>
    </contour>
    <contour>
      <point x="1140" y="1082" type="line"/>
      <point x="1140" y="852" type="line"/>
      <point x="1293" y="882" type="line"/>
      <point x="1293" y="1082" type="line"/>
    </contour>
    <contour>
      <point x="312" y="1082" type="line"/>
      <point x="159" y="1082" type="line"/>
      <point x="159" y="882" type="line"/>
      <point x="312" y="852" type="line"/>
    </contour>
  </outline>
</glyph>
<glyph name="uni0438" format="1">
  <advance width="1924"/>
  <unicode hex="0438"/>
  <outline>
    <contour>
      <point x="876" y="1082" type="line"/>
      <point x="377" y="97" type="line"/>
      <point x="558" y="0" type="line"/>
      <point x="1055" y="985" type="line"/>
    </contour>
    <contour>
      <point x="876" y="0" type="line"/>
      <point x="1198" y="0" type="line"/>
      <point x="1198" y="1082" type="line"/>
      <point x="876" y="1082" type="line"/>
    </contour>
    <contour>
      <point x="235" y="0" type="line"/>
      <point x="558" y="0" type="line"/>
      <point x="558" y="1082" type="line"/>
      <point x="235" y="1082" type="line"/>
    </contour>
    <contour>
      <point x="235" y="1082" type="line"/>
      <point x="82" y="1082" type="line"/>
      <point x="82" y="882" type="line"/>
      <point x="235" y="852" type="line"/>
    </contour>
    <contour>
      <point x="558" y="1082" type="line"/>
      <point x="558" y="852" type="line"/>
      <point x="691" y="882" type="line"/>
      <point x="691" y="1082" type="line"/>
    </contour>
    <contour>
      <point x="235" y="0" type="line"/>
      <point x="235" y="230" type="line"/>
      <point x="82" y="200" type="line"/>
      <point x="82" y="0" type="line"/>
    </contour>
    <contour>
      <point x="876" y="0" type="line"/>
      <point x="876" y="230" type="line"/>
      <point x="743" y="200" type="line"/>
      <point x="743" y="0" type="line"/>
    </contour>
    <contour>
      <point x="1198" y="0" type="line"/>
      <point x="1351" y="0" type="line"/>
      <point x="1351" y="200" type="line"/>
      <point x="1198" y="230" type="line"/>
    </contour>
    <contour>
      <point x="1198" y="1082" type="line"/>
      <point x="1198" y="852" type="line"/>
      <point x="1351" y="882" type="line"/>
      <point x="1351" y="1082" type="line"/>
    </contour>
  </outline>
</glyph>
<glyph name="uni043D" format="1">
  <advance width="1922"/>
  <unicode hex="043D"/>
  <outline>
    <contour>
      <point x="985" y="660" type="line"/>
      <point x="443" y="660" type="line"/>
      <point x="443" y="401" type="line"/>
      <point x="985" y="401" type="line"/>
    </contour>
    <contour>
      <point x="557" y="1082" type="line"/>
      <point x="235" y="1082" type="line"/>
      <point x="235" y="0" type="line"/>
      <point x="557" y="0" type="line"/>
    </contour>
    <contour>
      <point x="1195" y="1082" type="line"/>
      <point x="872" y="1082" type="line"/>
      <point x="872" y="0" type="line"/>
      <point x="1195" y="0" type="line"/>
    </contour>
    <contour>
      <point x="1195" y="1082" type="line"/>
      <point x="1195" y="852" type="line"/>
      <point x="1348" y="882" type="line"/>
      <point x="1348" y="1082" type="line"/>
    </contour>
    <contour>
      <point x="872" y="1082" type="line"/>
      <point x="759" y="1082" type="line"/>
      <point x="759" y="882" type="line"/>
      <point x="872" y="852" type="line"/>
    </contour>
    <contour>
      <point x="872" y="0" type="line"/>
      <point x="872" y="230" type="line"/>
      <point x="759" y="200" type="line"/>
      <point x="759" y="0" type="line"/>
    </contour>
    <contour>
      <point x="1195" y="0" type="line"/>
      <point x="1348" y="0" type="line"/>
      <point x="1348" y="200" type="line"/>
      <point x="1195" y="230" type="line"/>
    </contour>
    <contour>
      <point x="557" y="0" type="line"/>
      <point x="670" y="0" type="line"/>
      <point x="670" y="200" type="line"/>
      <point x="557" y="230" type="line"/>
    </contour>
    <contour>
      <point x="235" y="0" type="line"/>
      <point x="235" y="230" type="line"/>
      <point x="82" y="200" type="line"/>
      <point x="82" y="0" type="line"/>
    </contour>
    <contour>
      <point x="235" y="1082" type="line"/>
      <point x="82" y="1082" type="line"/>
      <point x="82" y="882" type="line"/>
      <point x="235" y="852" type="line"/>
    </contour>
    <contour>
      <point x="557" y="1082" type="line"/>
      <point x="557" y="852" type="line"/>
      <point x="670" y="882" type="line"/>
      <point x="670" y="1082" type="line"/>
    </contour>
  </outline>
</glyph>
<glyph name="uni0442" format="1">
  <advance width="1762"/>
  <unicode hex="0442"/>
  <outline>
    <contour>
      <point x="789" y="1082" type="line"/>
      <point x="466" y="1082" type="line"/>
      <point x="466" y="0" type="line"/>
      <point x="789" y="0" type="line"/>
    </contour>
    <contour>
      <point x="1132" y="1082" type="line"/>
      <point x="128" y="1082" type="line"/>
      <point x="128" y="824" type="line"/>
      <point x="1132" y="824" type="line"/>
    </contour>
    <contour>
      <point x="466" y="0" type="line"/>
      <point x="466" y="230" type="line"/>
      <point x="313" y="200" type="line"/>
      <point x="313" y="0" type="line"/>
    </contour>
    <contour>
      <point x="789" y="0" type="line"/>
      <point x="942" y="0" type="line"/>
      <point x="942" y="200" type="line"/>
      <point x="789" y="230" type="line"/>
    </contour>
    <contour>
      <point x="48" y="1082" type="line"/>
      <point x="48" y="689" type="line"/>
      <point x="289" y="689" type="line"/>
      <point x="318" y="1082" type="line"/>
    </contour>
    <contour>
      <point x="1212" y="1082" type="line"/>
      <point x="942" y="1082" type="line"/>
      <point x="971" y="689" type="line"/>
      <point x="1212" y="689" type="line"/>
    </contour>
  </outline>
</glyph>
<glyph name="uni044A" format="1">
  <advance width="1932"/>
  <unicode hex="044A"/>
  <outline>
    <contour>
      <point x="671" y="1082" type="line"/>
      <point x="82" y="1082" type="line"/>
      <point x="82" y="821" type="line"/>
      <point x="671" y="821" type="line"/>
    </contour>
    <contour>
      <point x="42" y="1082" type="line"/>
      <point x="42" y="689" type="line"/>
      <point x="283" y="689" type="line"/>
      <point x="312" y="1082" type="line"/>
    </contour>
    <contour>
      <point x="673" y="745" type="line"/>
      <point x="673" y="506" type="line"/>
      <point x="982" y="506" type="line" smooth="yes"/>
      <point x="1101" y="506"/>
      <point x="1150" y="460"/>
      <point x="1150" y="380" type="curve" smooth="yes"/>
      <point x="1150" y="308"/>
      <point x="1101" y="258"/>
      <point x="982" y="258" type="curve" smooth="yes"/>
      <point x="800" y="258" type="line"/>
      <point x="800" y="1082" type="line"/>
      <point x="477" y="1082" type="line"/>
      <point x="477" y="0" type="line"/>
      <point x="982" y="0" type="line" smooth="yes"/>
      <point x="1289" y="0"/>
      <point x="1471" y="150"/>
      <point x="1471" y="378" type="curve" smooth="yes"/>
      <point x="1471" y="604"/>
      <point x="1289" y="745"/>
      <point x="982" y="745" type="curve" smooth="yes"/>
    </contour>
    <contour>
      <point x="800" y="1082" type="line"/>
      <point x="800" y="852" type="line"/>
      <point x="953" y="882" type="line"/>
      <point x="953" y="1082" type="line"/>
    </contour>
    <contour>
      <point x="477" y="1082" type="line"/>
      <point x="324" y="1082" type="line"/>
      <point x="324" y="882" type="line"/>
      <point x="477" y="852" type="line"/>
    </contour>
    <contour>
      <point x="477" y="0" type="line"/>
      <point x="477" y="230" type="line"/>
      <point x="324" y="200" type="line"/>
      <point x="324" y="0" type="line"/>
    </contour>
  </outline>
</glyph>
<glyph name="uni044C" format="1">
  <advance width="1768"/>
  <unicode hex="044C"/>
  <outline>
    <contour>
      <point x="439" y="745" type="line"/>
      <point x="439" y="506" type="line"/>
      <point x="748" y="506" type="line" smooth="yes"/>
      <point x="867" y="506"/>
      <point x="916" y="460"/>
      <point x="916" y="380" type="curve" smooth="yes"/>
      <point x="916" y="308"/>
      <point x="867" y="258"/>
      <point x="748" y="258" type="curve" smooth="yes"/>
      <point x="566" y="258" type="line"/>
      <point x="566" y="1082" type="line"/>
      <point x="243" y="1082" type="line"/>
      <point x="243" y="0" type="line"/>
      <point x="748" y="0" type="line" smooth="yes"/>
      <point x="1055" y="0"/>
      <point x="1237" y="150"/>
      <point x="1237" y="378" type="curve" smooth="yes"/>
      <point x="1237" y="604"/>
      <point x="1055" y="745"/>
      <point x="748" y="745" type="curve" smooth="yes"/>
    </contour>
    <contour>
      <point x="566" y="1082" type="line"/>
      <point x="566" y="852" type="line"/>
      <point x="719" y="882" type="line"/>
      <point x="719" y="1082" type="line"/>
    </contour>
    <contour>
      <point x="243" y="1082" type="line"/>
      <point x="90" y="1082" type="line"/>
      <point x="90" y="882" type="line"/>
      <point x="243" y="852" type="line"/>
    </contour>
    <contour>
      <point x="243" y="0" type="line"/>
      <point x="243" y="230" type="line"/>
      <point x="90" y="200" type="line"/>
      <point x="90" y="0" type="line"/>
    </contour>
  </outline>
</glyph>
<glyph name="uni0454" format="1">
  <advance width="1603"/>
  <unicode hex="0454"/>
  <outline>
    <contour>
      <point x="671" y="616" type="line"/>
      <point x="317" y="616" type="line"/>
      <point x="317" y="433" type="line"/>
      <point x="671" y="433" type="line"/>
    </contour>
    <contour>
      <point x="582" y="239" type="curve" smooth="yes"/>
      <point x="431" y="239"/>
      <point x="394" y="369"/>
      <point x="394" y="529" type="curve" smooth="yes"/>
      <point x="394" y="552" type="line" smooth="yes"/>
      <point x="394" y="708"/>
      <point x="436" y="842"/>
      <point x="600" y="842" type="curve" smooth="yes"/>
      <point x="647" y="842"/>
      <point x="679" y="827"/>
      <point x="699" y="814" type="curve"/>
      <point x="749" y="644" type="line"/>
      <point x="1011" y="644" type="line"/>
      <point x="1010" y="959" type="line"/>
      <point x="919" y="1052"/>
      <point x="778" y="1102"/>
      <point x="600" y="1102" type="curve" smooth="yes"/>
      <point x="252" y="1102"/>
      <point x="72" y="865"/>
      <point x="72" y="552" type="curve" smooth="yes"/>
      <point x="72" y="529" type="line" smooth="yes"/>
      <point x="72" y="216"/>
      <point x="245" y="-21"/>
      <point x="582" y="-21" type="curve" smooth="yes"/>
      <point x="839" y="-21"/>
      <point x="1031" y="141"/>
      <point x="1031" y="385" type="curve"/>
      <point x="729" y="385" type="line"/>
      <point x="729" y="293"/>
      <point x="680" y="239"/>
    </contour>
  </outline>
</glyph>
<glyph name="uni0461" format="1">
  <advance width="2245"/>
  <unicode hex="0461"/>
  <outline>
    <contour>
      <point x="747" y="1082" type="line"/>
      <point x="747" y="482" type="line" smooth="yes"/>
      <point x="747" y="312"/>
      <point x="693" y="239"/>
      <point x="586" y="239" type="curve" smooth="yes"/>
      <point x="493" y="239"/>
      <point x="443" y="312"/>
      <point x="443" y="482" type="curve" smooth="yes"/>
      <point x="443" y="1082" type="line"/>
      <point x="120" y="1082" type="line"/>
      <point x="120" y="482" type="line" smooth="yes"/>
      <point x="120" y="155"/>
      <point x="313" y="-21"/>
      <point x="586" y="-21" type="curve" smooth="yes"/>
      <point x="836" y="-21"/>
      <point x="1010" y="155"/>
      <point x="1010" y="482" type="curve" smooth="yes"/>
      <point x="1010" y="1082" type="line"/>
    </contour>
    <contour>
      <point x="1364" y="1082" type="line"/>
      <point x="1364" y="482" type="line" smooth="yes"/>
      <point x="1364" y="312"/>
      <point x="1318" y="239"/>
      <point x="1223" y="239" type="curve" smooth="yes"/>
      <point x="1118" y="239"/>
      <point x="1070" y="312"/>
      <point x="1070" y="482" type="curve" smooth="yes"/>
      <point x="1070" y="1082" type="line"/>
      <point x="807" y="1082" type="line"/>
      <point x="807" y="482" type="line" smooth="yes"/>
      <point x="807" y="155"/>
      <point x="972" y="-21"/>
      <point x="1223" y="-21" type="curve" smooth="yes"/>
      <point x="1496" y="-21"/>
      <point x="1687" y="155"/>
      <point x="1687" y="482" type="curve" smooth="yes"/>
      <point x="1687" y="1082" type="line"/>
    </contour>
  </outline>
</glyph>
<glyph name="uni0468" format="1">
  <advance width="2623"/>
  <unicode hex="0468"/>
  <outline>
    <contour>
      <point x="1034" y="674" type="line"/>
      <point x="414" y="674" type="line"/>
      <point x="414" y="454" type="line"/>
      <point x="1034" y="454" type="line"/>
    </contour>
    <contour>
      <point x="1504" y="1337" type="line"/>
      <point x="1417" y="1456" type="line"/>
      <point x="1241" y="1456" type="line"/>
      <point x="731" y="0" type="line"/>
      <point x="1070" y="0" type="line"/>
    </contour>
    <contour>
      <point x="1755" y="0" type="line"/>
      <point x="2094" y="0" type="line"/>
      <point x="1584" y="1456" type="line"/>
      <point x="1408" y="1456" type="line"/>
      <point x="1317" y="1346" type="line"/>
    </contour>
    <contour>
      <point x="1786" y="674" type="line"/>
      <point x="992" y="674" type="line"/>
      <point x="992" y="456" type="line"/>
      <point x="1786" y="456" type="line"/>
    </contour>
    <contour>
      <point x="1537" y="565" type="line"/>
      <point x="1276" y="565" type="line"/>
      <point x="1276" y="0" type="line"/>
      <point x="1537" y="0" type="line"/>
    </contour>
    <contour>
      <point x="1070" y="0" type="line"/>
      <point x="1223" y="0" type="line"/>
      <point x="1223" y="200" type="line"/>
      <point x="1070" y="230" type="line"/>
    </contour>
    <contour>
      <point x="731" y="0" type="line"/>
      <point x="911" y="230" type="line"/>
      <point x="688" y="200" type="line"/>
      <point x="688" y="0" type="line"/>
    </contour>
    <contour>
      <point x="2094" y="0" type="line"/>
      <point x="2137" y="0" type="line"/>
      <point x="2137" y="200" type="line"/>
      <point x="1914" y="230" type="line"/>
    </contour>
    <contour>
      <point x="1755" y="0" type="line"/>
      <point x="1755" y="230" type="line"/>
      <point x="1602" y="200" type="line"/>
      <point x="1602" y="0" type="line"/>
    </contour>
    <contour>
      <point x="486" y="1456" type="line"/>
      <point x="164" y="1456" type="line"/>
      <point x="164" y="0" type="line"/>
      <point x="486" y="0" type="line"/>
    </contour>
    <contour>
      <point x="164" y="0" type="line"/>
      <point x="164" y="230" type="line"/>
      <point x="11" y="200" type="line"/>
      <point x="11" y="0" type="line"/>
    </contour>
    <contour>
      <point x="486" y="0" type="line"/>
      <point x="639" y="0" type="line"/>
      <point x="639" y="200" type="line"/>
      <point x="486" y="230" type="line"/>
    </contour>
    <contour>
      <point x="486" y="1456" type="line"/>
      <point x="486" y="1226" type="line"/>
      <point x="639" y="1256" type="line"/>
      <point x="639" y="1456" type="line"/>
    </contour>
    <contour>
      <point x="164" y="1456" type="line"/>
      <point x="11" y="1456" type="line"/>
      <point x="11" y="1256" type="line"/>
      <point x="164" y="1226" type="line"/>
    </contour>
  </outline>
</glyph>
<glyph name="uni046B" format="1">
  <advance width="2181"/>
  <unicode hex="046B"/>
  <outline>
    <contour>
      <point x="517" y="0" type="line"/>
      <point x="517" y="190" type="line" smooth="yes"/>
      <point x="517" y="332"/>
      <point x="571" y="373"/>
      <point x="684" y="373" type="curve" smooth="yes"/>
      <point x="1008" y="373" type="line" smooth="yes"/>
      <point x="1121" y="373"/>
      <point x="1175" y="332"/>
      <point x="1175" y="190" type="curve" smooth="yes"/>
      <point x="1175" y="0" type="line"/>
      <point x="1497" y="0" type="line"/>
      <point x="1497" y="190" type="line" smooth="yes"/>
      <point x="1497" y="501"/>
      <point x="1313" y="617"/>
      <point x="1008" y="617" type="curve" smooth="yes"/>
      <point x="684" y="617" type="line" smooth="yes"/>
      <point x="377" y="617"/>
      <point x="195" y="501"/>
      <point x="195" y="190" type="curve" smooth="yes"/>
      <point x="195" y="0" type="line"/>
    </contour>
    <contour>
      <point x="1252" y="1082" type="line"/>
      <point x="489" y="1082" type="line"/>
      <point x="489" y="880" type="line"/>
      <point x="1252" y="880" type="line"/>
    </contour>
    <contour>
      <point x="792" y="502" type="line"/>
      <point x="824" y="371" type="line"/>
      <point x="994" y="371" type="line"/>
      <point x="1403" y="1082" type="line"/>
      <point x="1056" y="1082" type="line"/>
    </contour>
    <contour>
      <point x="652" y="1082" type="line"/>
      <point x="305" y="1082" type="line"/>
      <point x="715" y="371" type="line"/>
      <point x="883" y="371" type="line"/>
      <point x="920" y="496" type="line"/>
    </contour>
    <contour>
      <point x="1012" y="496" type="line"/>
      <point x="690" y="496" type="line"/>
      <point x="690" y="0" type="line"/>
      <point x="1012" y="0" type="line"/>
    </contour>
    <contour>
      <point x="1497" y="0" type="line"/>
      <point x="1620" y="0" type="line"/>
      <point x="1620" y="200" type="line"/>
      <point x="1497" y="230" type="line"/>
    </contour>
    <contour>
      <point x="195" y="0" type="line"/>
      <point x="195" y="230" type="line"/>
      <point x="72" y="200" type="line"/>
      <point x="72" y="0" type="line"/>
    </contour>
    <contour>
      <point x="305" y="1082" type="line"/>
      <point x="242" y="1082" type="line"/>
      <point x="242" y="882" type="line"/>
      <point x="485" y="852" type="line"/>
    </contour>
    <contour>
      <point x="1012" y="0" type="line"/>
      <point x="1125" y="0" type="line"/>
      <point x="1125" y="200" type="line"/>
      <point x="1012" y="230" type="line"/>
    </contour>
    <contour>
      <point x="690" y="0" type="line"/>
      <point x="690" y="230" type="line"/>
      <point x="577" y="200" type="line"/>
      <point x="577" y="0" type="line"/>
    </contour>
    <contour>
      <point x="1223" y="852" type="line"/>
      <point x="1466" y="882" type="line"/>
      <point x="1466" y="1082" type="line"/>
      <point x="1403" y="1082" type="line"/>
    </contour>
  </outline>
</glyph>
<glyph name="uni0472" format="1">
  <advance width="1898"/>
  <unicode hex="0472"/>
  <outline>
    <contour>
      <point x="1174" y="832" type="line"/>
      <point x="311" y="832" type="line"/>
      <point x="311" y="641" type="line"/>
      <point x="1174" y="641" type="line"/>
    </contour>
    <contour>
      <point x="1401" y="739" type="line" smooth="yes"/>
      <point x="1401" y="1159"/>
      <point x="1140" y="1477"/>
      <point x="735" y="1477" type="curve" smooth="yes"/>
      <point x="330" y="1477"/>
      <point x="71" y="1159"/>
      <point x="71" y="739" type="curve" smooth="yes"/>
      <point x="71" y="717" type="line" smooth="yes"/>
      <point x="71" y="297"/>
      <point x="332" y="-21"/>
      <point x="737" y="-21" type="curve" smooth="yes"/>
      <point x="1142" y="-21"/>
      <point x="1401" y="297"/>
      <point x="1401" y="717" type="curve" smooth="yes"/>
    </contour>
    <contour>
      <point x="1079" y="717" type="line" smooth="yes"/>
      <point x="1079" y="450"/>
      <point x="982" y="239"/>
      <point x="737" y="239" type="curve" smooth="yes"/>
      <point x="490" y="239"/>
      <point x="393" y="450"/>
      <point x="393" y="717" type="curve" smooth="yes"/>
      <point x="393" y="741" type="line" smooth="yes"/>
      <point x="393" y="1008"/>
      <point x="488" y="1217"/>
      <point x="735" y="1217" type="curve" smooth="yes"/>
      <point x="980" y="1217"/>
      <point x="1079" y="1008"/>
      <point x="1079" y="741" type="curve" smooth="yes"/>
    </contour>
  </outline>
</glyph>
<glyph name="uni0475" format="1">
  <advance width="1697"/>
  <unicode hex="0475"/>
  <outline>
    <contour>
      <point x="619" y="446" type="line"/>
      <point x="546" y="0" type="line"/>
      <point x="764" y="0" type="line"/>
      <point x="975" y="724" type="line" smooth="yes"/>
      <point x="990" y="783"/>
      <point x="1034" y="834"/>
      <point x="1089" y="834" type="curve" smooth="yes"/>
      <point x="1105" y="834"/>
      <point x="1139" y="832"/>
      <point x="1143" y="831" type="curve"/>
      <point x="1168" y="1087" type="line"/>
      <point x="1140" y="1099"/>
      <point x="1105" y="1103"/>
      <point x="1067" y="1103" type="curve" smooth="yes"/>
      <point x="869" y="1103"/>
      <point x="758" y="966"/>
      <point x="692" y="737" type="curve" smooth="yes"/>
    </contour>
    <contour>
      <point x="444" y="1082" type="line"/>
      <point x="105" y="1082" type="line"/>
      <point x="442" y="0" type="line"/>
      <point x="660" y="0" type="line"/>
      <point x="580" y="446" type="line"/>
    </contour>
    <contour>
      <point x="105" y="1082" type="line"/>
      <point x="42" y="1082" type="line"/>
      <point x="42" y="882" type="line"/>
      <point x="285" y="852" type="line"/>
    </contour>
    <contour>
      <point x="444" y="1082" type="line"/>
      <point x="444" y="852" type="line"/>
      <point x="597" y="882" type="line"/>
      <point x="597" y="1082" type="line"/>
    </contour>
  </outline>
</glyph>
<glyph name="uni047B" format="1">
  <advance width="1648"/>
  <unicode hex="047B"/>
  <outline>
    <contour>
      <point x="654" y="1203" type="line"/>
      <point x="520" y="1203" type="line"/>
      <point x="520" y="726" type="line"/>
      <point x="654" y="726" type="line"/>
    </contour>
    <contour>
      <point x="647" y="371" type="line"/>
      <point x="513" y="371" type="line"/>
      <point x="513" y="-126" type="line"/>
      <point x="647" y="-126" type="line"/>
    </contour>
    <contour>
      <point x="55" y="530" type="line" smooth="yes"/>
      <point x="55" y="214"/>
      <point x="239" y="-21"/>
      <point x="575" y="-21" type="curve" smooth="yes"/>
      <point x="910" y="-21"/>
      <point x="1093" y="214"/>
      <point x="1093" y="530" type="curve" smooth="yes"/>
      <point x="1093" y="551" type="line" smooth="yes"/>
      <point x="1093" y="867"/>
      <point x="910" y="1102"/>
      <point x="573" y="1102" type="curve" smooth="yes"/>
      <point x="239" y="1102"/>
      <point x="55" y="867"/>
      <point x="55" y="551" type="curve" smooth="yes"/>
    </contour>
    <contour>
      <point x="377" y="551" type="line" smooth="yes"/>
      <point x="377" y="709"/>
      <point x="425" y="842"/>
      <point x="573" y="842" type="curve" smooth="yes"/>
      <point x="724" y="842"/>
      <point x="771" y="709"/>
      <point x="771" y="551" type="curve" smooth="yes"/>
      <point x="771" y="530" type="line" smooth="yes"/>
      <point x="771" y="367"/>
      <point x="723" y="239"/>
      <point x="575" y="239" type="curve" smooth="yes"/>
      <point x="424" y="239"/>
      <point x="377" y="367"/>
      <point x="377" y="530" type="curve" smooth="yes"/>
    </contour>
  </outline>
</glyph>
<glyph name="uni0484" format="1">
  <advance width="1532"/>
  <unicode hex="0484"/>
  <outline>
    <contour>
      <point x="128" y="1437" type="line"/>
      <point x="128" y="1303" type="line"/>
      <point x="144" y="1303" type="line" smooth="yes"/>
      <point x="377" y="1303"/>
      <point x="534" y="1423"/>
      <point x="648" y="1423" type="curve" smooth="yes"/>
      <point x="710" y="1423"/>
      <point x="754" y="1393"/>
      <point x="754" y="1321" type="curve" smooth="yes"/>
      <point x="754" y="1303" type="line"/>
      <point x="890" y="1303" type="line"/>
      <point x="890" y="1340" type="line" smooth="yes"/>
      <point x="890" y="1489"/>
      <point x="800" y="1557"/>
      <point x="652" y="1557" type="curve" smooth="yes"/>
      <point x="494" y="1557"/>
      <point x="355" y="1437"/>
      <point x="142" y="1437" type="curve" smooth="yes"/>
    </contour>
  </outline>
</glyph>
<glyph name="uni0488" format="1">
  <advance width="2472"/>
  <unicode hex="0488"/>
  <outline>
    <contour>
      <point x="884" y="1267" type="line"/>
      <point x="884" y="1320"/>
      <point x="910" y="1368"/>
      <point x="981" y="1368" type="curve" smooth="yes"/>
      <point x="1053" y="1368"/>
      <point x="1080" y="1320"/>
      <point x="1080" y="1267" type="curve"/>
      <point x="1192" y="1267" type="line"/>
      <point x="1192" y="1377"/>
      <point x="1111" y="1455"/>
      <point x="981" y="1455" type="curve" smooth="yes"/>
      <point x="851" y="1455"/>
      <point x="771" y="1377"/>
      <point x="771" y="1267" type="curve"/>
    </contour>
    <contour>
      <point x="1476" y="990" type="line"/>
      <point x="1476" y="1043"/>
      <point x="1502" y="1091"/>
      <point x="1572" y="1091" type="curve" smooth="yes"/>
      <point x="1645" y="1091"/>
      <point x="1671" y="1043"/>
      <point x="1671" y="990" type="curve"/>
      <point x="1784" y="990" type="line"/>
      <point x="1784" y="1100"/>
      <point x="1703" y="1178"/>
      <point x="1572" y="1178" type="curve" smooth="yes"/>
      <point x="1443" y="1178"/>
      <point x="1362" y="1100"/>
      <point x="1362" y="990" type="curve"/>
    </contour>
    <contour>
      <point x="1662" y="487" type="line"/>
      <point x="1662" y="540"/>
      <point x="1689" y="588"/>
      <point x="1759" y="588" type="curve" smooth="yes"/>
      <point x="1832" y="588"/>
      <point x="1858" y="540"/>
      <point x="1858" y="487" type="curve"/>
      <point x="1970" y="487" type="line"/>
      <point x="1970" y="597"/>
      <point x="1890" y="675"/>
      <point x="1759" y="675" type="curve" smooth="yes"/>
      <point x="1630" y="675"/>
      <point x="1549" y="597"/>
      <point x="1549" y="487" type="curve"/>
    </contour>
    <contour>
      <point x="1465" y="-32" type="line"/>
      <point x="1465" y="21"/>
      <point x="1492" y="69"/>
      <point x="1562" y="69" type="curve" smooth="yes"/>
      <point x="1635" y="69"/>
      <point x="1661" y="21"/>
      <point x="1661" y="-32" type="curve"/>
      <point x="1773" y="-32" type="line"/>
      <point x="1773" y="78"/>
      <point x="1693" y="156"/>
      <point x="1562" y="156" type="curve" smooth="yes"/>
      <point x="1433" y="156"/>
      <point x="1352" y="78"/>
      <point x="1352" y="-32" type="curve"/>
    </contour>
    <contour>
      <point x="889" y="-316" type="line"/>
      <point x="889" y="-263"/>
      <point x="916" y="-215"/>
      <point x="986" y="-215" type="curve" smooth="yes"/>
      <point x="1058" y="-215"/>
      <point x="1085" y="-263"/>
      <point x="1085" y="-316" type="curve"/>
      <point x="1197" y="-316" type="line"/>
      <point x="1197" y="-206"/>
      <point x="1116" y="-128"/>
      <point x="986" y="-128" type="curve" smooth="yes"/>
      <point x="856" y="-128"/>
      <point x="776" y="-206"/>
      <point x="776" y="-316" type="curve"/>
    </contour>
    <contour>
      <point x="312" y="990" type="line"/>
      <point x="312" y="1043"/>
      <point x="338" y="1091"/>
      <point x="409" y="1091" type="curve" smooth="yes"/>
      <point x="481" y="1091"/>
      <point x="508" y="1043"/>
      <point x="508" y="990" type="curve"/>
      <point x="620" y="990" type="line"/>
      <point x="620" y="1100"/>
      <point x="539" y="1178"/>
      <point x="409" y="1178" type="curve" smooth="yes"/>
      <point x="279" y="1178"/>
      <point x="198" y="1100"/>
      <point x="198" y="990" type="curve"/>
    </contour>
    <contour>
      <point x="135" y="487" type="line"/>
      <point x="135" y="540"/>
      <point x="162" y="588"/>
      <point x="232" y="588" type="curve" smooth="yes"/>
      <point x="305" y="588"/>
      <point x="331" y="540"/>
      <point x="331" y="487" type="curve"/>
      <point x="443" y="487" type="line"/>
      <point x="443" y="597"/>
      <point x="363" y="675"/>
      <point x="232" y="675" type="curve" smooth="yes"/>
      <point x="103" y="675"/>
      <point x="22" y="597"/>
      <point x="22" y="487" type="curve"/>
    </contour>
    <contour>
      <point x="302" y="-32" type="line"/>
      <point x="302" y="21"/>
      <point x="328" y="69"/>
      <point x="398" y="69" type="curve" smooth="yes"/>
      <point x="471" y="69"/>
      <point x="497" y="21"/>
      <point x="497" y="-32" type="curve"/>
      <point x="610" y="-32" type="line"/>
      <point x="610" y="78"/>
      <point x="529" y="156"/>
      <point x="398" y="156" type="curve" smooth="yes"/>
      <point x="269" y="156"/>
      <point x="188" y="78"/>
      <point x="188" y="-32" type="curve"/>
    </contour>
  </outline>
</glyph>
<glyph name="uni048D" format="1">
  <advance width="1744"/>
  <unicode hex="048D"/>
  <outline>
    <contour>
      <point x="416" y="805" type="line"/>
      <point x="416" y="546" type="line"/>
      <point x="725" y="546" type="line" smooth="yes"/>
      <point x="844" y="546"/>
      <point x="893" y="485"/>
      <point x="893" y="405" type="curve" smooth="yes"/>
      <point x="893" y="322"/>
      <point x="844" y="258"/>
      <point x="725" y="258" type="curve" smooth="yes"/>
      <point x="543" y="258" type="line"/>
      <point x="543" y="1602" type="line"/>
      <point x="220" y="1602" type="line"/>
      <point x="220" y="0" type="line"/>
      <point x="725" y="0" type="line" smooth="yes"/>
      <point x="1032" y="0"/>
      <point x="1214" y="163"/>
      <point x="1214" y="403" type="curve" smooth="yes"/>
      <point x="1214" y="641"/>
      <point x="1032" y="805"/>
      <point x="725" y="805" type="curve" smooth="yes"/>
    </contour>
    <contour>
      <point x="746" y="1290" type="line"/>
      <point x="45" y="1290" type="line"/>
      <point x="45" y="1099" type="line"/>
      <point x="746" y="1099" type="line"/>
    </contour>
    <contour>
      <point x="220" y="1602" type="line"/>
      <point x="67" y="1602" type="line"/>
      <point x="67" y="1402" type="line"/>
      <point x="220" y="1372" type="line"/>
    </contour>
    <contour>
      <point x="220" y="0" type="line"/>
      <point x="220" y="230" type="line"/>
      <point x="67" y="200" type="line"/>
      <point x="67" y="0" type="line"/>
    </contour>
  </outline>
</glyph>
<glyph name="uni048E" format="1">
  <advance width="1876"/>
  <unicode hex="048E"/>
  <outline>
    <contour>
      <point x="776" y="1011" type="line"/>
      <point x="680" y="926" type="line"/>
      <point x="1139" y="407" type="line"/>
      <point x="1235" y="491" type="line"/>
    </contour>
    <contour>
      <point x="700" y="499" type="line" smooth="yes"/>
      <point x="1047" y="499"/>
      <point x="1255" y="695"/>
      <point x="1255" y="977" type="curve" smooth="yes"/>
      <point x="1255" y="1260"/>
      <point x="1047" y="1456"/>
      <point x="700" y="1456" type="curve" smooth="yes"/>
      <point x="153" y="1456" type="line"/>
      <point x="153" y="0" type="line"/>
      <point x="476" y="0" type="line"/>
      <point x="476" y="1196" type="line"/>
      <point x="700" y="1196" type="line" smooth="yes"/>
      <point x="861" y="1196"/>
      <point x="933" y="1097"/>
      <point x="933" y="975" type="curve" smooth="yes"/>
      <point x="933" y="857"/>
      <point x="861" y="759"/>
      <point x="700" y="759" type="curve" smooth="yes"/>
      <point x="361" y="759" type="line"/>
      <point x="361" y="499" type="line"/>
    </contour>
    <contour>
      <point x="153" y="0" type="line"/>
      <point x="153" y="230" type="line"/>
      <point x="0" y="200" type="line"/>
      <point x="0" y="0" type="line"/>
    </contour>
    <contour>
      <point x="476" y="0" type="line"/>
      <point x="629" y="0" type="line"/>
      <point x="629" y="200" type="line"/>
      <point x="476" y="230" type="line"/>
    </contour>
    <contour>
      <point x="153" y="1456" type="line"/>
      <point x="0" y="1456" type="line"/>
      <point x="0" y="1256" type="line"/>
      <point x="153" y="1226" type="line"/>
    </contour>
  </outline>
</glyph>
<glyph name="uni048F" format="1">
  <advance width="1776"/>
  <unicode hex="048F"/>
  <outline>
    <contour>
      <point x="675" y="515" type="line"/>
      <point x="576" y="433" type="line"/>
      <point x="976" y="-61" type="line"/>
      <point x="1076" y="21" type="line"/>
    </contour>
    <contour>
      <point x="438" y="874" type="line"/>
      <point x="416" y="1082" type="line"/>
      <point x="116" y="1082" type="line"/>
      <point x="116" y="-416" type="line"/>
      <point x="438" y="-416" type="line"/>
    </contour>
    <contour>
      <point x="1109" y="539" type="line" smooth="yes"/>
      <point x="1109" y="868"/>
      <point x="962" y="1102"/>
      <point x="687" y="1102" type="curve" smooth="yes"/>
      <point x="439" y="1102"/>
      <point x="338" y="848"/>
      <point x="298" y="535" type="curve"/>
      <point x="298" y="508" type="line"/>
      <point x="338" y="216"/>
      <point x="439" y="-21"/>
      <point x="689" y="-21" type="curve" smooth="yes"/>
      <point x="962" y="-21"/>
      <point x="1109" y="203"/>
      <point x="1109" y="518" type="curve" smooth="yes"/>
    </contour>
    <contour>
      <point x="787" y="518" type="line" smooth="yes"/>
      <point x="787" y="356"/>
      <point x="743" y="239"/>
      <point x="608" y="239" type="curve" smooth="yes"/>
      <point x="459" y="239"/>
      <point x="398" y="328"/>
      <point x="398" y="480" type="curve" smooth="yes"/>
      <point x="398" y="562" type="line" smooth="yes"/>
      <point x="398" y="738"/>
      <point x="459" y="842"/>
      <point x="606" y="842" type="curve" smooth="yes"/>
      <point x="739" y="842"/>
      <point x="787" y="707"/>
      <point x="787" y="539" type="curve" smooth="yes"/>
    </contour>
    <contour>
      <point x="438" y="-416" type="line"/>
      <point x="571" y="-416" type="line"/>
      <point x="571" y="-216" type="line"/>
      <point x="438" y="-186" type="line"/>
    </contour>
    <contour>
      <point x="116" y="1082" type="line"/>
      <point x="-37" y="1082" type="line"/>
      <point x="-37" y="882" type="line"/>
      <point x="116" y="852" type="line"/>
    </contour>
    <contour>
      <point x="116" y="-416" type="line"/>
      <point x="116" y="-186" type="line"/>
      <point x="-17" y="-216" type="line"/>
      <point x="-17" y="-416" type="line"/>
    </contour>
  </outline>
</glyph>
<glyph name="uni049D" format="1">
  <advance width="1970"/>
  <unicode hex="049D"/>
  <outline>
    <contour>
      <point x="235" y="1082" type="line"/>
      <point x="235" y="0" type="line"/>
      <point x="557" y="0" type="line"/>
      <point x="557" y="1082" type="line"/>
    </contour>
    <contour>
      <point x="671" y="846" type="line"/>
      <point x="671" y="245" type="line"/>
      <point x="780" y="245" type="line"/>
      <point x="780" y="846" type="line"/>
    </contour>
    <contour>
      <point x="806" y="441" type="line"/>
      <point x="958" y="0" type="line"/>
      <point x="1372" y="0" type="line"/>
      <point x="1078" y="582" type="line"/>
    </contour>
    <contour>
      <point x="1372" y="0" type="line"/>
      <point x="1395" y="0" type="line"/>
      <point x="1395" y="200" type="line"/>
      <point x="1192" y="230" type="line"/>
    </contour>
    <contour>
      <point x="557" y="0" type="line"/>
      <point x="660" y="0" type="line"/>
      <point x="660" y="170" type="line"/>
      <point x="557" y="200" type="line"/>
    </contour>
    <contour>
      <point x="557" y="1082" type="line"/>
      <point x="557" y="882" type="line"/>
      <point x="660" y="912" type="line"/>
      <point x="660" y="1082" type="line"/>
    </contour>
    <contour>
      <point x="235" y="1082" type="line"/>
      <point x="82" y="1082" type="line"/>
      <point x="82" y="882" type="line"/>
      <point x="235" y="852" type="line"/>
    </contour>
    <contour>
      <point x="235" y="0" type="line"/>
      <point x="235" y="230" type="line"/>
      <point x="82" y="200" type="line"/>
      <point x="82" y="0" type="line"/>
    </contour>
    <contour>
      <point x="1416" y="1046" type="line"/>
      <point x="1369" y="1077"/>
      <point x="1312" y="1098"/>
      <point x="1238" y="1098" type="curve" smooth="yes"/>
      <point x="1085" y="1098"/>
      <point x="996" y="1027"/>
      <point x="929" y="902" type="curve" smooth="yes"/>
      <point x="818" y="693" type="line"/>
      <point x="433" y="693" type="line"/>
      <point x="470" y="378" type="line"/>
      <point x="969" y="378" type="line"/>
      <point x="1182" y="745" type="line" smooth="yes"/>
      <point x="1219" y="807"/>
      <point x="1264" y="821"/>
      <point x="1298" y="821" type="curve" smooth="yes"/>
      <point x="1329" y="821"/>
      <point x="1340" y="815"/>
      <point x="1360" y="808" type="curve"/>
    </contour>
  </outline>
</glyph>
<glyph name="uni04A4" format="1">
  <advance width="2565"/>
  <unicode hex="04A4"/>
  <outline>
    <contour>
      <point x="1975" y="1456" type="line"/>
      <point x="1069" y="1456" type="line"/>
      <point x="1351" y="1196" type="line"/>
      <point x="1975" y="1196" type="line"/>
    </contour>
    <contour>
      <point x="1975" y="1456" type="line"/>
      <point x="1705" y="1456" type="line"/>
      <point x="1734" y="1063" type="line"/>
      <point x="1975" y="1063" type="line"/>
    </contour>
    <contour>
      <point x="1173" y="846" type="line"/>
      <point x="420" y="846" type="line"/>
      <point x="420" y="586" type="line"/>
      <point x="1173" y="586" type="line"/>
    </contour>
    <contour>
      <point x="520" y="1456" type="line"/>
      <point x="197" y="1456" type="line"/>
      <point x="197" y="0" type="line"/>
      <point x="520" y="0" type="line"/>
    </contour>
    <contour>
      <point x="1399" y="1456" type="line"/>
      <point x="1077" y="1456" type="line"/>
      <point x="1077" y="0" type="line"/>
      <point x="1399" y="0" type="line"/>
    </contour>
    <contour>
      <point x="1399" y="1456" type="line"/>
      <point x="1399" y="1226" type="line"/>
      <point x="1552" y="1256" type="line"/>
      <point x="1552" y="1456" type="line"/>
    </contour>
    <contour>
      <point x="1077" y="1456" type="line"/>
      <point x="924" y="1456" type="line"/>
      <point x="924" y="1256" type="line"/>
      <point x="1077" y="1226" type="line"/>
    </contour>
    <contour>
      <point x="1077" y="0" type="line"/>
      <point x="1077" y="230" type="line"/>
      <point x="924" y="200" type="line"/>
      <point x="924" y="0" type="line"/>
    </contour>
    <contour>
      <point x="1399" y="0" type="line"/>
      <point x="1552" y="0" type="line"/>
      <point x="1552" y="200" type="line"/>
      <point x="1399" y="230" type="line"/>
    </contour>
    <contour>
      <point x="520" y="0" type="line"/>
      <point x="673" y="0" type="line"/>
      <point x="673" y="200" type="line"/>
      <point x="520" y="230" type="line"/>
    </contour>
    <contour>
      <point x="197" y="0" type="line"/>
      <point x="197" y="230" type="line"/>
      <point x="44" y="200" type="line"/>
      <point x="44" y="0" type="line"/>
    </contour>
    <contour>
      <point x="197" y="1456" type="line"/>
      <point x="44" y="1456" type="line"/>
      <point x="44" y="1256" type="line"/>
      <point x="197" y="1226" type="line"/>
    </contour>
    <contour>
      <point x="520" y="1456" type="line"/>
      <point x="520" y="1226" type="line"/>
      <point x="673" y="1256" type="line"/>
      <point x="673" y="1456" type="line"/>
    </contour>
  </outline>
</glyph>
<glyph name="uni04A6" format="1">
  <advance width="2681"/>
  <unicode hex="04A6"/>
  <outline>
    <contour>
      <point x="1416" y="1456" type="line"/>
      <point x="214" y="1456" type="line"/>
      <point x="214" y="0" type="line"/>
      <point x="537" y="0" type="line"/>
      <point x="537" y="1196" type="line"/>
      <point x="1094" y="1196" type="line"/>
      <point x="1094" y="0" type="line"/>
      <point x="1416" y="0" type="line"/>
    </contour>
    <contour>
      <point x="1094" y="0" type="line"/>
      <point x="1094" y="230" type="line"/>
      <point x="941" y="200" type="line"/>
      <point x="941" y="0" type="line"/>
    </contour>
    <contour>
      <point x="1416" y="0" type="line"/>
      <point x="1569" y="0" type="line"/>
      <point x="1569" y="200" type="line"/>
      <point x="1416" y="230" type="line"/>
    </contour>
    <contour>
      <point x="214" y="0" type="line"/>
      <point x="214" y="230" type="line"/>
      <point x="61" y="200" type="line"/>
      <point x="61" y="0" type="line"/>
    </contour>
    <contour>
      <point x="537" y="0" type="line"/>
      <point x="690" y="0" type="line"/>
      <point x="690" y="200" type="line"/>
      <point x="537" y="230" type="line"/>
    </contour>
    <contour>
      <point x="1416" y="1456" type="line"/>
      <point x="1416" y="1226" type="line"/>
      <point x="1569" y="1256" type="line"/>
      <point x="1569" y="1456" type="line"/>
    </contour>
    <contour>
      <point x="214" y="1456" type="line"/>
      <point x="61" y="1456" type="line"/>
      <point x="61" y="1256" type="line"/>
      <point x="214" y="1226" type="line"/>
    </contour>
    <contour>
      <point x="1221" y="575" type="line"/>
      <point x="1532" y="575" type="line" smooth="yes"/>
      <point x="1709" y="575"/>
      <point x="1815" y="466"/>
      <point x="1814" y="224" type="curve" smooth="yes"/>
      <point x="1813" y="120"/>
      <point x="1798" y="-117"/>
      <point x="1568" y="-117" type="curve"/>
      <point x="1568" y="-362" type="line"/>
      <point x="2005" y="-362"/>
      <point x="2136" y="-19"/>
      <point x="2136" y="244" type="curve" smooth="yes"/>
      <point x="2136" y="652"/>
      <point x="1887" y="835"/>
      <point x="1532" y="835" type="curve" smooth="yes"/>
      <point x="1221" y="835" type="line"/>
    </contour>
  </outline>
</glyph>
<glyph name="uni04B9" format="1">
  <advance width="1882"/>
  <unicode hex="04B9"/>
  <outline>
    <contour>
      <point x="763" y="738" type="line"/>
      <point x="594" y="738" type="line"/>
      <point x="594" y="245" type="line"/>
      <point x="763" y="245" type="line"/>
    </contour>
    <contour>
      <point x="1173" y="1082" type="line"/>
      <point x="850" y="1082" type="line"/>
      <point x="850" y="0" type="line"/>
      <point x="1173" y="0" type="line"/>
    </contour>
    <contour>
      <point x="1013" y="635" type="line"/>
      <point x="909" y="597"/>
      <point x="826" y="575"/>
      <point x="734" y="575" type="curve" smooth="yes"/>
      <point x="587" y="575"/>
      <point x="532" y="602"/>
      <point x="532" y="733" type="curve" smooth="yes"/>
      <point x="532" y="1082" type="line"/>
      <point x="210" y="1082" type="line"/>
      <point x="210" y="733" type="line" smooth="yes"/>
      <point x="210" y="438"/>
      <point x="406" y="315"/>
      <point x="734" y="315" type="curve" smooth="yes"/>
      <point x="817" y="315"/>
      <point x="960" y="344"/>
      <point x="1013" y="375" type="curve"/>
    </contour>
    <contour>
      <point x="210" y="1082" type="line"/>
      <point x="57" y="1082" type="line"/>
      <point x="57" y="882" type="line"/>
      <point x="210" y="852" type="line"/>
    </contour>
    <contour>
      <point x="532" y="1082" type="line"/>
      <point x="532" y="852" type="line"/>
      <point x="645" y="882" type="line"/>
      <point x="645" y="1082" type="line"/>
    </contour>
    <contour>
      <point x="850" y="0" type="line"/>
      <point x="850" y="230" type="line"/>
      <point x="697" y="200" type="line"/>
      <point x="697" y="0" type="line"/>
    </contour>
    <contour>
      <point x="1173" y="0" type="line"/>
      <point x="1326" y="0" type="line"/>
      <point x="1326" y="200" type="line"/>
      <point x="1173" y="230" type="line"/>
    </contour>
    <contour>
      <point x="1173" y="1082" type="line"/>
      <point x="1173" y="852" type="line"/>
      <point x="1326" y="882" type="line"/>
      <point x="1326" y="1082" type="line"/>
    </contour>
    <contour>
      <point x="850" y="1082" type="line"/>
      <point x="737" y="1082" type="line"/>
      <point x="737" y="882" type="line"/>
      <point x="850" y="852" type="line"/>
    </contour>
  </outline>
</glyph>
<glyph name="uni04BC" format="1">
  <advance width="2085"/>
  <unicode hex="04BC"/>
  <outline>
    <contour>
      <point x="38" y="1082" type="line"/>
      <point x="38" y="806"/>
      <point x="189" y="635"/>
      <point x="449" y="635" type="curve"/>
      <point x="449" y="860" type="line"/>
      <point x="316" y="860"/>
      <point x="248" y="943"/>
      <point x="248" y="1082" type="curve"/>
    </contour>
    <contour>
      <point x="1037" y="-23" type="curve" smooth="yes"/>
      <point x="1265" y="-23"/>
      <point x="1417" y="31"/>
      <point x="1459" y="52" type="curve"/>
      <point x="1410" y="321" type="line"/>
      <point x="1336" y="296"/>
      <point x="1207" y="262"/>
      <point x="1037" y="262" type="curve" smooth="yes"/>
      <point x="770" y="262"/>
      <point x="682" y="417"/>
      <point x="682" y="607" type="curve" smooth="yes"/>
      <point x="682" y="869" type="line" smooth="yes"/>
      <point x="682" y="1046"/>
      <point x="778" y="1190"/>
      <point x="969" y="1190" type="curve" smooth="yes"/>
      <point x="1151" y="1190"/>
      <point x="1219" y="1066"/>
      <point x="1219" y="909" type="curve" smooth="yes"/>
      <point x="1219" y="878" type="line"/>
      <point x="600" y="878" type="line"/>
      <point x="600" y="614" type="line"/>
      <point x="1541" y="614" type="line"/>
      <point x="1541" y="786" type="line" smooth="yes"/>
      <point x="1541" y="1206"/>
      <point x="1343" y="1475"/>
      <point x="969" y="1475" type="curve" smooth="yes"/>
      <point x="625" y="1477"/>
      <point x="360" y="1225"/>
      <point x="360" y="869" type="curve" smooth="yes"/>
      <point x="360" y="607" type="line" smooth="yes"/>
      <point x="360" y="239"/>
      <point x="586" y="-23"/>
    </contour>
  </outline>
</glyph>
<glyph name="uni04C8" format="1">
  <advance width="1885"/>
  <unicode hex="04C8"/>
  <outline>
    <contour>
      <point x="235" y="1082" type="line"/>
      <point x="235" y="0" type="line"/>
      <point x="557" y="0" type="line"/>
      <point x="557" y="401" type="line"/>
      <point x="872" y="401" type="line"/>
      <point x="872" y="-15" type="line" smooth="yes"/>
      <point x="872" y="-122"/>
      <point x="830" y="-177"/>
      <point x="754" y="-177" type="curve" smooth="yes"/>
      <point x="711" y="-177"/>
      <point x="687" y="-173"/>
      <point x="654" y="-165" type="curve"/>
      <point x="640" y="-420" type="line"/>
      <point x="695" y="-433"/>
      <point x="740" y="-437"/>
      <point x="795" y="-437" type="curve" smooth="yes"/>
      <point x="1044" y="-437"/>
      <point x="1195" y="-288"/>
      <point x="1195" y="-15" type="curve" smooth="yes"/>
      <point x="1195" y="1082" type="line"/>
      <point x="872" y="1082" type="line"/>
      <point x="872" y="660" type="line"/>
      <point x="557" y="660" type="line"/>
      <point x="557" y="1082" type="line"/>
    </contour>
    <contour>
      <point x="1195" y="1082" type="line"/>
      <point x="1195" y="852" type="line"/>
      <point x="1348" y="882" type="line"/>
      <point x="1348" y="1082" type="line"/>
    </contour>
    <contour>
      <point x="872" y="1082" type="line"/>
      <point x="739" y="1082" type="line"/>
      <point x="739" y="882" type="line"/>
      <point x="872" y="852" type="line"/>
    </contour>
    <contour>
      <point x="557" y="1082" type="line"/>
      <point x="557" y="852" type="line"/>
      <point x="690" y="882" type="line"/>
      <point x="690" y="1082" type="line"/>
    </contour>
    <contour>
      <point x="557" y="0" type="line"/>
      <point x="710" y="0" type="line"/>
      <point x="710" y="200" type="line"/>
      <point x="557" y="230" type="line"/>
    </contour>
    <contour>
      <point x="235" y="1082" type="line"/>
      <point x="82" y="1082" type="line"/>
      <point x="82" y="882" type="line"/>
      <point x="235" y="852" type="line"/>
    </contour>
    <contour>
      <point x="235" y="0" type="line"/>
      <point x="235" y="230" type="line"/>
      <point x="82" y="200" type="line"/>
      <point x="82" y="0" type="line"/>
    </contour>
  </outline>
</glyph>
<glyph name="uni04D8" format="1">
  <advance width="1899"/>
  <unicode hex="04D8"/>
  <outline>
    <contour>
      <point x="612" y="1477" type="curve" smooth="yes"/>
      <point x="372" y="1477"/>
      <point x="214" y="1423"/>
      <point x="169" y="1402" type="curve"/>
      <point x="218" y="1133" type="line"/>
      <point x="297" y="1158"/>
      <point x="432" y="1192"/>
      <point x="612" y="1192" type="curve" smooth="yes"/>
      <point x="909" y="1192"/>
      <point x="1007" y="1019"/>
      <point x="1007" y="807" type="curve" smooth="yes"/>
      <point x="1007" y="645" type="line" smooth="yes"/>
      <point x="1007" y="435"/>
      <point x="904" y="264"/>
      <point x="699" y="264" type="curve" smooth="yes"/>
      <point x="472" y="264"/>
      <point x="389" y="388"/>
      <point x="389" y="545" type="curve" smooth="yes"/>
      <point x="389" y="576" type="line"/>
      <point x="1088" y="576" type="line"/>
      <point x="1088" y="840" type="line"/>
      <point x="67" y="840" type="line"/>
      <point x="67" y="668" type="line" smooth="yes"/>
      <point x="67" y="248"/>
      <point x="286" y="-21"/>
      <point x="699" y="-21" type="curve" smooth="yes"/>
      <point x="1055" y="-23"/>
      <point x="1328" y="253"/>
      <point x="1328" y="645" type="curve" smooth="yes"/>
      <point x="1328" y="807" type="line" smooth="yes"/>
      <point x="1328" y="1199"/>
      <point x="1088" y="1477"/>
    </contour>
  </outline>
</glyph>
<glyph name="uni04E0" format="1">
  <advance width="1668"/>
  <unicode hex="04E0"/>
  <outline>
    <contour>
      <point x="122" y="1456" type="line"/>
      <point x="122" y="1196" type="line"/>
      <point x="726" y="1196" type="line"/>
      <point x="397" y="874" type="line"/>
      <point x="397" y="749" type="line"/>
      <point x="630" y="749" type="line"/>
      <point x="1094" y="1241" type="line"/>
      <point x="1093" y="1456" type="line"/>
    </contour>
    <contour>
      <point x="397" y="869" type="line"/>
      <point x="397" y="680" type="line"/>
      <point x="528" y="680" type="line" smooth="yes"/>
      <point x="702" y="680"/>
      <point x="795" y="605"/>
      <point x="795" y="415" type="curve" smooth="yes"/>
      <point x="795" y="317"/>
      <point x="713" y="239"/>
      <point x="573" y="239" type="curve" smooth="yes"/>
      <point x="452" y="239"/>
      <point x="377" y="311"/>
      <point x="377" y="404" type="curve"/>
      <point x="54" y="404" type="line"/>
      <point x="54" y="106"/>
      <point x="318" y="-21"/>
      <point x="573" y="-21" type="curve" smooth="yes"/>
      <point x="889" y="-21"/>
      <point x="1117" y="135"/>
      <point x="1117" y="408" type="curve" smooth="yes"/>
      <point x="1117" y="719"/>
      <point x="920" y="890"/>
      <point x="581" y="890" type="curve"/>
    </contour>
    <contour>
      <point x="122" y="1456" type="line"/>
      <point x="122" y="1063" type="line"/>
      <point x="363" y="1063" type="line"/>
      <point x="392" y="1456" type="line"/>
    </contour>
  </outline>
</glyph>
<glyph name="uni04E1" format="1">
  <advance width="1672"/>
  <unicode hex="04E1"/>
  <outline>
    <contour>
      <point x="110" y="1082" type="line"/>
      <point x="110" y="822" type="line"/>
      <point x="724" y="822" type="line"/>
      <point x="395" y="499" type="line"/>
      <point x="395" y="374" type="line"/>
      <point x="628" y="374" type="line"/>
      <point x="1092" y="866" type="line"/>
      <point x="1091" y="1082" type="line"/>
    </contour>
    <contour>
      <point x="395" y="495" type="line"/>
      <point x="395" y="306" type="line"/>
      <point x="526" y="306" type="line" smooth="yes"/>
      <point x="700" y="306"/>
      <point x="793" y="231"/>
      <point x="793" y="41" type="curve" smooth="yes"/>
      <point x="793" y="-57"/>
      <point x="711" y="-135"/>
      <point x="571" y="-135" type="curve" smooth="yes"/>
      <point x="450" y="-135"/>
      <point x="375" y="-63"/>
      <point x="375" y="29" type="curve"/>
      <point x="52" y="29" type="line"/>
      <point x="52" y="-268"/>
      <point x="316" y="-395"/>
      <point x="571" y="-395" type="curve" smooth="yes"/>
      <point x="887" y="-395"/>
      <point x="1115" y="-239"/>
      <point x="1115" y="33" type="curve" smooth="yes"/>
      <point x="1115" y="344"/>
      <point x="918" y="516"/>
      <point x="579" y="516" type="curve"/>
    </contour>
    <contour>
      <point x="110" y="1082" type="line"/>
      <point x="110" y="689" type="line"/>
      <point x="351" y="689" type="line"/>
      <point x="380" y="1082" type="line"/>
    </contour>
  </outline>
</glyph>
<glyph name="uni0502" format="1">
  <advance width="2254"/>
  <unicode hex="0502"/>
  <outline>
    <contour>
      <point x="615" y="977" type="line" smooth="yes"/>
      <point x="269" y="977"/>
      <point x="50" y="771"/>
      <point x="50" y="489" type="curve" smooth="yes"/>
      <point x="50" y="206"/>
      <point x="269" y="0"/>
      <point x="615" y="0" type="curve" smooth="yes"/>
      <point x="1152" y="0" type="line"/>
      <point x="1152" y="1456" type="line"/>
      <point x="830" y="1456" type="line"/>
      <point x="830" y="260" type="line"/>
      <point x="615" y="260" type="line" smooth="yes"/>
      <point x="454" y="260"/>
      <point x="373" y="369"/>
      <point x="373" y="491" type="curve" smooth="yes"/>
      <point x="373" y="609"/>
      <point x="454" y="717"/>
      <point x="615" y="717" type="curve" smooth="yes"/>
      <point x="944" y="717" type="line"/>
      <point x="944" y="977" type="line"/>
    </contour>
    <contour>
      <point x="1217" y="0" type="line" smooth="yes"/>
      <point x="1479" y="0"/>
      <point x="1718" y="138"/>
      <point x="1723" y="425" type="curve" smooth="yes"/>
      <point x="1726" y="532"/>
      <point x="1691" y="642"/>
      <point x="1656" y="745" type="curve"/>
      <point x="1341" y="745" type="line"/>
      <point x="1380" y="642"/>
      <point x="1403" y="528"/>
      <point x="1401" y="425" type="curve" smooth="yes"/>
      <point x="1397" y="324"/>
      <point x="1334" y="263"/>
      <point x="1217" y="261" type="curve" smooth="yes"/>
      <point x="1080" y="261" type="line"/>
      <point x="1080" y="0" type="line"/>
    </contour>
    <contour>
      <point x="1152" y="1456" type="line"/>
      <point x="1152" y="1226" type="line"/>
      <point x="1305" y="1256" type="line"/>
      <point x="1305" y="1456" type="line"/>
    </contour>
    <contour>
      <point x="830" y="1456" type="line"/>
      <point x="677" y="1456" type="line"/>
      <point x="677" y="1256" type="line"/>
      <point x="830" y="1226" type="line"/>
    </contour>
  </outline>
</glyph>
<glyph name="uni0503" format="1">
  <advance width="2218"/>
  <unicode hex="0503"/>
  <outline>
    <contour>
      <point x="69" y="518" type="line" smooth="yes"/>
      <point x="69" y="203"/>
      <point x="217" y="-21"/>
      <point x="489" y="-21" type="curve" smooth="yes"/>
      <point x="728" y="-21"/>
      <point x="842" y="217"/>
      <point x="881" y="510" type="curve"/>
      <point x="881" y="535" type="line"/>
      <point x="842" y="848"/>
      <point x="728" y="1102"/>
      <point x="491" y="1102" type="curve" smooth="yes"/>
      <point x="217" y="1102"/>
      <point x="69" y="868"/>
      <point x="69" y="539" type="curve" smooth="yes"/>
    </contour>
    <contour>
      <point x="391" y="539" type="line" smooth="yes"/>
      <point x="391" y="707"/>
      <point x="439" y="842"/>
      <point x="573" y="842" type="curve" smooth="yes"/>
      <point x="706" y="842"/>
      <point x="781" y="738"/>
      <point x="781" y="562" type="curve" smooth="yes"/>
      <point x="781" y="483" type="line" smooth="yes"/>
      <point x="781" y="329"/>
      <point x="705" y="239"/>
      <point x="571" y="239" type="curve" smooth="yes"/>
      <point x="435" y="239"/>
      <point x="391" y="356"/>
      <point x="391" y="518" type="curve" smooth="yes"/>
    </contour>
    <contour>
      <point x="724" y="387" type="line"/>
      <point x="739" y="96"/>
      <point x="894" y="-25"/>
      <point x="1150" y="-21" type="curve" smooth="yes"/>
      <point x="1417" y="-21"/>
      <point x="1651" y="158"/>
      <point x="1656" y="529" type="curve" smooth="yes"/>
      <point x="1659" y="666"/>
      <point x="1624" y="802"/>
      <point x="1589" y="932" type="curve"/>
      <point x="1273" y="932" type="line"/>
      <point x="1313" y="799"/>
      <point x="1336" y="662"/>
      <point x="1334" y="529" type="curve" smooth="yes"/>
      <point x="1329" y="354"/>
      <point x="1266" y="245"/>
      <point x="1150" y="243" type="curve" smooth="yes"/>
      <point x="1085" y="243"/>
      <point x="1045" y="304"/>
      <point x="1046" y="387" type="curve" smooth="yes"/>
      <point x="1046" y="1560" type="line"/>
      <point x="724" y="1560" type="line"/>
    </contour>
    <contour>
      <point x="724" y="1560" type="line"/>
      <point x="571" y="1560" type="line"/>
      <point x="571" y="1360" type="line"/>
      <point x="724" y="1330" type="line"/>
    </contour>
  </outline>
</glyph>
<glyph name="uni0506" format="1">
  <advance width="1698"/>
  <unicode hex="0506"/>
  <outline>
    <contour>
      <point x="465" y="578" type="line"/>
      <point x="492" y="587"/>
      <point x="497" y="587"/>
      <point x="550" y="596" type="curve"/>
      <point x="557" y="596"/>
      <point x="563" y="664"/>
      <point x="569" y="664" type="curve"/>
      <point x="836" y="718"/>
      <point x="981" y="843"/>
      <point x="981" y="1030" type="curve" smooth="yes"/>
      <point x="981" y="1315"/>
      <point x="793" y="1466"/>
      <point x="448" y="1466" type="curve" smooth="yes"/>
      <point x="248" y="1466"/>
      <point x="78" y="1399"/>
      <point x="-29" y="1274" type="curve"/>
      <point x="-29" y="1001" type="line"/>
      <point x="203" y="1001" type="line"/>
      <point x="231" y="1158" type="line"/>
      <point x="272" y="1189"/>
      <point x="355" y="1206"/>
      <point x="448" y="1206" type="curve" smooth="yes"/>
      <point x="597" y="1201"/>
      <point x="659" y="1136"/>
      <point x="659" y="1032" type="curve" smooth="yes"/>
      <point x="659" y="905"/>
      <point x="589" y="842"/>
      <point x="408" y="842" type="curve" smooth="yes"/>
      <point x="212" y="842" type="line"/>
      <point x="212" y="578" type="line"/>
    </contour>
    <contour>
      <point x="398" y="578" type="line"/>
      <point x="543" y="578"/>
      <point x="618" y="503"/>
      <point x="618" y="364" type="curve" smooth="yes"/>
      <point x="618" y="256" type="line" smooth="yes"/>
      <point x="618" y="214"/>
      <point x="621" y="49"/>
      <point x="682" y="0" type="curve"/>
      <point x="1015" y="0" type="line"/>
      <point x="1015" y="20" type="line"/>
      <point x="954" y="68"/>
      <point x="940" y="207"/>
      <point x="940" y="254" type="curve" smooth="yes"/>
      <point x="940" y="366" type="line" smooth="yes"/>
      <point x="940" y="583"/>
      <point x="832" y="739"/>
      <point x="479" y="739" type="curve"/>
    </contour>
    <contour>
      <point x="1210" y="262" type="line"/>
      <point x="928" y="262" type="line"/>
      <point x="928" y="9" type="line" smooth="yes"/>
      <point x="928" y="-130"/>
      <point x="896" y="-223"/>
      <point x="852" y="-304" type="curve"/>
      <point x="1006" y="-384" type="line"/>
      <point x="1111" y="-292"/>
      <point x="1209" y="-120"/>
      <point x="1209" y="28" type="curve" smooth="yes"/>
    </contour>
  </outline>
</glyph>
<glyph name="uni0507" format="1">
  <advance width="1706"/>
  <unicode hex="0507"/>
  <outline>
    <contour>
      <point x="540" y="366" type="line"/>
      <point x="572" y="373"/>
      <point x="567" y="373"/>
      <point x="613" y="384" type="curve"/>
      <point x="619" y="389"/>
      <point x="622" y="486"/>
      <point x="628" y="491" type="curve"/>
      <point x="788" y="536"/>
      <point x="876" y="627"/>
      <point x="876" y="762" type="curve" smooth="yes"/>
      <point x="876" y="966"/>
      <point x="713" y="1095"/>
      <point x="424" y="1095" type="curve" smooth="yes"/>
      <point x="195" y="1095"/>
      <point x="-3" y="962"/>
      <point x="-3" y="739" type="curve"/>
      <point x="299" y="739" type="line"/>
      <point x="299" y="799"/>
      <point x="365" y="835"/>
      <point x="434" y="835" type="curve" smooth="yes"/>
      <point x="517" y="833"/>
      <point x="554" y="777"/>
      <point x="554" y="715" type="curve" smooth="yes"/>
      <point x="554" y="645"/>
      <point x="517" y="589"/>
      <point x="424" y="589" type="curve" smooth="yes"/>
      <point x="241" y="589" type="line"/>
      <point x="243" y="366" type="line"/>
    </contour>
    <contour>
      <point x="462" y="366" type="line"/>
      <point x="579" y="366"/>
      <point x="639" y="316"/>
      <point x="639" y="215" type="curve" smooth="yes"/>
      <point x="639" y="152" type="line" smooth="yes"/>
      <point x="639" y="130"/>
      <point x="639" y="24"/>
      <point x="656" y="0" type="curve"/>
      <point x="989" y="0" type="line"/>
      <point x="989" y="12" type="line"/>
      <point x="964" y="37"/>
      <point x="961" y="140"/>
      <point x="961" y="151" type="curve" smooth="yes"/>
      <point x="961" y="216" type="line" smooth="yes"/>
      <point x="961" y="390"/>
      <point x="865" y="515"/>
      <point x="550" y="515" type="curve"/>
    </contour>
    <contour>
      <point x="1175" y="222" type="line"/>
      <point x="893" y="222" type="line"/>
      <point x="893" y="-31" type="line" smooth="yes"/>
      <point x="893" y="-170"/>
      <point x="861" y="-263"/>
      <point x="817" y="-344" type="curve"/>
      <point x="971" y="-424" type="line"/>
      <point x="1076" y="-332"/>
      <point x="1174" y="-160"/>
      <point x="1174" y="-12" type="curve" smooth="yes"/>
    </contour>
  </outline>
</glyph>
<glyph name="uni050A" format="1">
  <advance width="2587"/>
  <unicode hex="050A"/>
  <outline>
    <contour>
      <point x="444" y="846" type="line"/>
      <point x="444" y="586" type="line"/>
      <point x="1197" y="586" type="line"/>
      <point x="1197" y="846" type="line"/>
    </contour>
    <contour>
      <point x="221" y="1456" type="line"/>
      <point x="221" y="0" type="line"/>
      <point x="544" y="0" type="line"/>
      <point x="544" y="1456" type="line"/>
    </contour>
    <contour>
      <point x="1097" y="1456" type="line"/>
      <point x="1097" y="387" type="line"/>
      <point x="1112" y="96"/>
      <point x="1267" y="-25"/>
      <point x="1523" y="-21" type="curve" smooth="yes"/>
      <point x="1790" y="-21"/>
      <point x="2024" y="158"/>
      <point x="2029" y="529" type="curve" smooth="yes"/>
      <point x="2032" y="666"/>
      <point x="1997" y="802"/>
      <point x="1962" y="932" type="curve"/>
      <point x="1646" y="932" type="line"/>
      <point x="1686" y="799"/>
      <point x="1709" y="662"/>
      <point x="1707" y="529" type="curve" smooth="yes"/>
      <point x="1702" y="354"/>
      <point x="1639" y="245"/>
      <point x="1523" y="243" type="curve" smooth="yes"/>
      <point x="1458" y="243"/>
      <point x="1418" y="304"/>
      <point x="1419" y="387" type="curve" smooth="yes"/>
      <point x="1419" y="1456" type="line"/>
    </contour>
    <contour>
      <point x="1419" y="1456" type="line"/>
      <point x="1419" y="1226" type="line"/>
      <point x="1572" y="1256" type="line"/>
      <point x="1572" y="1456" type="line"/>
    </contour>
    <contour>
      <point x="1097" y="1456" type="line"/>
      <point x="944" y="1456" type="line"/>
      <point x="944" y="1256" type="line"/>
      <point x="1097" y="1226" type="line"/>
    </contour>
    <contour>
      <point x="1646" y="932" type="line"/>
      <point x="1583" y="932" type="line"/>
      <point x="1583" y="732" type="line"/>
      <point x="1826" y="702" type="line"/>
    </contour>
    <contour>
      <point x="544" y="1456" type="line"/>
      <point x="544" y="1226" type="line"/>
      <point x="697" y="1256" type="line"/>
      <point x="697" y="1456" type="line"/>
    </contour>
    <contour>
      <point x="544" y="0" type="line"/>
      <point x="697" y="0" type="line"/>
      <point x="697" y="200" type="line"/>
      <point x="544" y="230" type="line"/>
    </contour>
    <contour>
      <point x="221" y="0" type="line"/>
      <point x="221" y="230" type="line"/>
      <point x="68" y="200" type="line"/>
      <point x="68" y="0" type="line"/>
    </contour>
    <contour>
      <point x="221" y="1456" type="line"/>
      <point x="68" y="1456" type="line"/>
      <point x="68" y="1256" type="line"/>
      <point x="221" y="1226" type="line"/>
    </contour>
  </outline>
</glyph>
<glyph name="uni050B" format="1">
  <advance width="2355"/>
  <unicode hex="050B"/>
  <outline>
    <contour>
      <point x="952" y="678" type="line"/>
      <point x="456" y="678" type="line"/>
      <point x="456" y="415" type="line"/>
      <point x="952" y="415" type="line"/>
    </contour>
    <contour>
      <point x="558" y="1082" type="line"/>
      <point x="235" y="1082" type="line"/>
      <point x="235" y="0" type="line"/>
      <point x="558" y="0" type="line"/>
    </contour>
    <contour>
      <point x="884" y="387" type="line"/>
      <point x="901" y="96"/>
      <point x="1063" y="-25"/>
      <point x="1331" y="-21" type="curve" smooth="yes"/>
      <point x="1577" y="-21"/>
      <point x="1791" y="145"/>
      <point x="1796" y="488" type="curve" smooth="yes"/>
      <point x="1799" y="617"/>
      <point x="1763" y="746"/>
      <point x="1729" y="869" type="curve"/>
      <point x="1414" y="869" type="line"/>
      <point x="1453" y="744"/>
      <point x="1476" y="614"/>
      <point x="1474" y="488" type="curve" smooth="yes"/>
      <point x="1470" y="337"/>
      <point x="1421" y="245"/>
      <point x="1331" y="243" type="curve" smooth="yes"/>
      <point x="1252" y="243"/>
      <point x="1205" y="304"/>
      <point x="1207" y="387" type="curve" smooth="yes"/>
      <point x="1207" y="1082" type="line"/>
      <point x="884" y="1082" type="line"/>
    </contour>
    <contour>
      <point x="1207" y="1082" type="line"/>
      <point x="1207" y="852" type="line"/>
      <point x="1360" y="882" type="line"/>
      <point x="1360" y="1082" type="line"/>
    </contour>
    <contour>
      <point x="884" y="1082" type="line"/>
      <point x="761" y="1082" type="line"/>
      <point x="761" y="882" type="line"/>
      <point x="884" y="852" type="line"/>
    </contour>
    <contour>
      <point x="558" y="0" type="line"/>
      <point x="681" y="0" type="line"/>
      <point x="681" y="200" type="line"/>
      <point x="558" y="230" type="line"/>
    </contour>
    <contour>
      <point x="235" y="0" type="line"/>
      <point x="235" y="230" type="line"/>
      <point x="82" y="200" type="line"/>
      <point x="82" y="0" type="line"/>
    </contour>
    <contour>
      <point x="235" y="1082" type="line"/>
      <point x="82" y="1082" type="line"/>
      <point x="82" y="882" type="line"/>
      <point x="235" y="852" type="line"/>
    </contour>
    <contour>
      <point x="558" y="1082" type="line"/>
      <point x="558" y="852" type="line"/>
      <point x="681" y="882" type="line"/>
      <point x="681" y="1082" type="line"/>
    </contour>
  </outline>
</glyph>
<glyph name="uni050C" format="1">
  <advance width="1795"/>
  <unicode hex="050C"/>
  <outline>
    <contour>
      <point x="732" y="-21" type="curve" smooth="yes"/>
      <point x="1021" y="-21"/>
      <point x="1273" y="130"/>
      <point x="1278" y="446" type="curve" smooth="yes"/>
      <point x="1281" y="561"/>
      <point x="1247" y="676"/>
      <point x="1221" y="786" type="curve"/>
      <point x="906" y="786" type="line"/>
      <point x="936" y="675"/>
      <point x="958" y="557"/>
      <point x="956" y="446" type="curve" smooth="yes"/>
      <point x="952" y="320"/>
      <point x="875" y="245"/>
      <point x="732" y="243" type="curve" smooth="yes"/>
      <point x="533" y="243"/>
      <point x="414" y="402"/>
      <point x="414" y="597" type="curve" smooth="yes"/>
      <point x="414" y="861" type="line" smooth="yes"/>
      <point x="414" y="1054"/>
      <point x="533" y="1213"/>
      <point x="732" y="1213" type="curve" smooth="yes"/>
      <point x="848" y="1213"/>
      <point x="942" y="1189"/>
      <point x="1029" y="1145" type="curve"/>
      <point x="1091" y="1388" type="line"/>
      <point x="1002" y="1446"/>
      <point x="886" y="1477"/>
      <point x="732" y="1477" type="curve" smooth="yes"/>
      <point x="350" y="1477"/>
      <point x="91" y="1213"/>
      <point x="91" y="859" type="curve" smooth="yes"/>
      <point x="91" y="597" type="line" smooth="yes"/>
      <point x="91" y="243"/>
      <point x="350" y="-21"/>
    </contour>
    <contour>
      <point x="906" y="786" type="line"/>
      <point x="843" y="786" type="line"/>
      <point x="843" y="586" type="line"/>
      <point x="1086" y="556" type="line"/>
    </contour>
  </outline>
</glyph>
<glyph name="uni050F" format="1">
  <advance width="1873"/>
  <unicode hex="050F"/>
  <outline>
    <contour>
      <point x="1035" y="1082" type="line"/>
      <point x="128" y="1082" type="line"/>
      <point x="128" y="820" type="line"/>
      <point x="1035" y="820" type="line"/>
    </contour>
    <contour>
      <point x="403" y="387" type="line"/>
      <point x="419" y="96"/>
      <point x="581" y="-25"/>
      <point x="849" y="-21" type="curve" smooth="yes"/>
      <point x="1083" y="-21"/>
      <point x="1290" y="104"/>
      <point x="1296" y="365" type="curve" smooth="yes"/>
      <point x="1297" y="444"/>
      <point x="1283" y="526"/>
      <point x="1268" y="603" type="curve"/>
      <point x="953" y="603" type="line"/>
      <point x="966" y="525"/>
      <point x="973" y="443"/>
      <point x="973" y="365" type="curve"/>
      <point x="969" y="289"/>
      <point x="927" y="245"/>
      <point x="849" y="243" type="curve" smooth="yes"/>
      <point x="771" y="243"/>
      <point x="724" y="304"/>
      <point x="725" y="387" type="curve" smooth="yes"/>
      <point x="725" y="1082" type="line"/>
      <point x="403" y="1082" type="line"/>
    </contour>
    <contour>
      <point x="953" y="603" type="line"/>
      <point x="870" y="603" type="line"/>
      <point x="870" y="403" type="line"/>
      <point x="1133" y="373" type="line"/>
    </contour>
    <contour>
      <point x="1185" y="1082" type="line"/>
      <point x="915" y="1082" type="line"/>
      <point x="944" y="689" type="line"/>
      <point x="1185" y="689" type="line"/>
    </contour>
    <contour>
      <point x="38" y="1082" type="line"/>
      <point x="38" y="689" type="line"/>
      <point x="279" y="689" type="line"/>
      <point x="308" y="1082" type="line"/>
    </contour>
  </outline>
</glyph>
<glyph name="underscoredbl" format="1">
  <advance width="1590"/>
  <unicode hex="2017"/>
  <outline>
    <contour>
      <point x="989" y="-266" type="line"/>
      <point x="83" y="-266" type="line"/>
      <point x="83" y="-387" type="line"/>
      <point x="989" y="-387" type="line"/>
    </contour>
    <contour>
      <point x="989" y="0" type="line"/>
      <point x="83" y="0" type="line"/>
      <point x="83" y="-121" type="line"/>
      <point x="989" y="-121" type="line"/>
    </contour>
  </outline>
</glyph>
<glyph name="quoteleft" format="1">
  <advance width="1001"/>
  <unicode hex="2018"/>
  <outline>
    <contour>
      <point x="97" y="1006" type="line"/>
      <point x="358" y="1006" type="line"/>
      <point x="358" y="1207" type="line" smooth="yes"/>
      <point x="358" y="1346"/>
      <point x="390" y="1439"/>
      <point x="434" y="1520" type="curve"/>
      <point x="280" y="1600" type="line"/>
      <point x="185" y="1512"/>
      <point x="97" y="1349"/>
      <point x="97" y="1208" type="curve" smooth="yes"/>
    </contour>
  </outline>
</glyph>
<glyph name="quoteright" format="1">
  <advance width="989"/>
  <unicode hex="2019"/>
  <outline>
    <contour>
      <point x="401" y="1560" type="line"/>
      <point x="140" y="1560" type="line"/>
      <point x="140" y="1367" type="line" smooth="yes"/>
      <point x="140" y="1228"/>
      <point x="108" y="1135"/>
      <point x="64" y="1054" type="curve"/>
      <point x="218" y="974" type="line"/>
      <point x="313" y="1062"/>
      <point x="401" y="1225"/>
      <point x="401" y="1366" type="curve" smooth="yes"/>
    </contour>
  </outline>
</glyph>
<glyph name="quotedblright" format="1">
  <advance width="1367"/>
  <unicode hex="201D"/>
  <outline>
    <contour>
      <point x="415" y="1560" type="line"/>
      <point x="154" y="1560" type="line"/>
      <point x="154" y="1367" type="line" smooth="yes"/>
      <point x="154" y="1228"/>
      <point x="122" y="1135"/>
      <point x="78" y="1054" type="curve"/>
      <point x="232" y="974" type="line"/>
      <point x="327" y="1062"/>
      <point x="415" y="1225"/>
      <point x="415" y="1366" type="curve" smooth="yes"/>
    </contour>
    <contour>
      <point x="762" y="1560" type="line"/>
      <point x="501" y="1560" type="line"/>
      <point x="501" y="1367" type="line" smooth="yes"/>
      <point x="501" y="1228"/>
      <point x="469" y="1135"/>
      <point x="425" y="1054" type="curve"/>
      <point x="579" y="974" type="line"/>
      <point x="674" y="1062"/>
      <point x="762" y="1225"/>
      <point x="762" y="1366" type="curve" smooth="yes"/>
    </contour>
  </outline>
</glyph>
<glyph name="quotedblbase" format="1">
  <advance width="1360"/>
  <unicode hex="201E"/>
  <outline>
    <contour>
      <point x="416" y="309" type="line"/>
      <point x="154" y="309" type="line"/>
      <point x="154" y="63" type="line" smooth="yes"/>
      <point x="154" y="-76"/>
      <point x="122" y="-169"/>
      <point x="78" y="-250" type="curve"/>
      <point x="232" y="-330" type="line"/>
      <point x="327" y="-242"/>
      <point x="415" y="-79"/>
      <point x="415" y="62" type="curve" smooth="yes"/>
    </contour>
    <contour>
      <point x="762" y="309" type="line"/>
      <point x="500" y="309" type="line"/>
      <point x="500" y="63" type="line" smooth="yes"/>
      <point x="500" y="-76"/>
      <point x="468" y="-169"/>
      <point x="424" y="-250" type="curve"/>
      <point x="578" y="-330" type="line"/>
      <point x="673" y="-242"/>
      <point x="761" y="-79"/>
      <point x="761" y="62" type="curve" smooth="yes"/>
    </contour>
  </outline>
</glyph>
<glyph name="uni2025" format="1">
  <advance width="1525"/>
  <unicode hex="2025"/>
  <outline>
    <contour>
      <point x="456" y="284" type="line"/>
      <point x="134" y="284" type="line"/>
      <point x="134" y="0" type="line"/>
      <point x="456" y="0" type="line"/>
    </contour>
    <contour>
      <point x="940" y="284" type="line"/>
      <point x="618" y="284" type="line"/>
      <point x="618" y="0" type="line"/>
      <point x="940" y="0" type="line"/>
    </contour>
  </outline>
</glyph>
<glyph name="ellipsis" format="1">
  <advance width="1998"/>
  <unicode hex="2026"/>
  <outline>
    <contour>
      <point x="456" y="284" type="line"/>
      <point x="134" y="284" type="line"/>
      <point x="134" y="0" type="line"/>
      <point x="456" y="0" type="line"/>
    </contour>
    <contour>
      <point x="940" y="284" type="line"/>
      <point x="618" y="284" type="line"/>
      <point x="618" y="0" type="line"/>
      <point x="940" y="0" type="line"/>
    </contour>
    <contour>
      <point x="1420" y="284" type="line"/>
      <point x="1098" y="284" type="line"/>
      <point x="1098" y="0" type="line"/>
      <point x="1420" y="0" type="line"/>
    </contour>
  </outline>
</glyph>
<glyph name="guilsinglright" format="1">
  <advance width="1071"/>
  <unicode hex="203A"/>
  <outline>
    <contour>
      <point x="67" y="151" type="line"/>
      <point x="267" y="151" type="line"/>
      <point x="542" y="541" type="line"/>
      <point x="542" y="554" type="line"/>
      <point x="304" y="555" type="line"/>
    </contour>
    <contour>
      <point x="67" y="950" type="line"/>
      <point x="304" y="546" type="line"/>
      <point x="542" y="547" type="line"/>
      <point x="542" y="560" type="line"/>
      <point x="267" y="950" type="line"/>
    </contour>
  </outline>
</glyph>
<glyph name="fraction" format="1">
  <advance width="1377"/>
  <unicode hex="2044"/>
  <outline>
    <contour>
      <point x="878" y="1247" type="line"/>
      <point x="726" y="1326" type="line"/>
      <point x="15" y="188" type="line"/>
      <point x="167" y="109" type="line"/>
    </contour>
  </outline>
</glyph>
<glyph name="lira" format="1">
  <advance width="1701"/>
  <unicode hex="20A4"/>
  <outline>
    <contour>
      <point x="1139" y="0" type="line"/>
      <point x="1139" y="260" type="line"/>
      <point x="136" y="260" type="line"/>
      <point x="136" y="0" type="line"/>
    </contour>
    <contour>
      <point x="887" y="471" type="line"/>
      <point x="887" y="649" type="line"/>
      <point x="73" y="649" type="line"/>
      <point x="73" y="471" type="line"/>
    </contour>
    <contour>
      <point x="542" y="1021" type="line" smooth="yes"/>
      <point x="542" y="1149"/>
      <point x="592" y="1217"/>
      <point x="672" y="1217" type="curve" smooth="yes"/>
      <point x="746" y="1217"/>
      <point x="814" y="1175"/>
      <point x="814" y="1052" type="curve"/>
      <point x="1137" y="1052" type="line"/>
      <point x="1137" y="1306"/>
      <point x="972" y="1477"/>
      <point x="673" y="1477" type="curve" smooth="yes"/>
      <point x="401" y="1477"/>
      <point x="220" y="1309"/>
      <point x="220" y="1021" type="curve" smooth="yes"/>
      <point x="240" y="451" type="line" smooth="yes"/>
      <point x="240" y="364"/>
      <point x="217" y="278"/>
      <point x="146" y="260" type="curve"/>
      <point x="393" y="187" type="line"/>
      <point x="505" y="248"/>
      <point x="563" y="320"/>
      <point x="563" y="451" type="curve" smooth="yes"/>
    </contour>
    <contour>
      <point x="880" y="932" type="line"/>
      <point x="69" y="932" type="line"/>
      <point x="69" y="754" type="line"/>
      <point x="880" y="754" type="line"/>
    </contour>
    <contour>
      <point x="1139" y="0" type="line"/>
      <point x="1139" y="393" type="line"/>
      <point x="899" y="393" type="line"/>
      <point x="869" y="0" type="line"/>
    </contour>
  </outline>
</glyph>
<glyph name="peseta" format="1">
  <advance width="2300"/>
  <unicode hex="20A7"/>
  <outline>
    <contour>
      <point x="630" y="499" type="line" smooth="yes"/>
      <point x="988" y="499"/>
      <point x="1183" y="705"/>
      <point x="1183" y="988" type="curve" smooth="yes"/>
      <point x="1183" y="1256"/>
      <point x="988" y="1456"/>
      <point x="630" y="1456" type="curve" smooth="yes"/>
      <point x="214" y="1456" type="line"/>
      <point x="214" y="0" type="line"/>
      <point x="556" y="0" type="line"/>
      <point x="556" y="1171" type="line"/>
      <point x="630" y="1171" type="line" smooth="yes"/>
      <point x="781" y="1171"/>
      <point x="840" y="1081"/>
      <point x="840" y="986" type="curve" smooth="yes"/>
      <point x="840" y="884"/>
      <point x="781" y="784"/>
      <point x="630" y="784" type="curve" smooth="yes"/>
      <point x="434" y="784" type="line"/>
      <point x="434" y="499" type="line"/>
    </contour>
    <contour>
      <point x="214" y="0" type="line"/>
      <point x="214" y="230" type="line"/>
      <point x="61" y="200" type="line"/>
      <point x="61" y="0" type="line"/>
    </contour>
    <contour>
      <point x="556" y="0" type="line"/>
      <point x="709" y="0" type="line"/>
      <point x="709" y="200" type="line"/>
      <point x="556" y="230" type="line"/>
    </contour>
    <contour>
      <point x="214" y="1456" type="line"/>
      <point x="61" y="1456" type="line"/>
      <point x="61" y="1256" type="line"/>
      <point x="214" y="1226" type="line"/>
    </contour>
    <contour>
      <point x="1731" y="1082" type="line"/>
      <point x="1070" y="1082" type="line"/>
      <point x="1070" y="848" type="line"/>
      <point x="1731" y="848" type="line"/>
    </contour>
    <contour>
      <point x="1224" y="1351" type="line"/>
      <point x="1224" y="350" type="line" smooth="yes"/>
      <point x="1224" y="87"/>
      <point x="1347" y="-21"/>
      <point x="1555" y="-21" type="curve" smooth="yes"/>
      <point x="1634" y="-21"/>
      <point x="1688" y="-16"/>
      <point x="1760" y="3" type="curve"/>
      <point x="1736" y="253" type="line"/>
      <point x="1703" y="246"/>
      <point x="1682" y="243"/>
      <point x="1636" y="243" type="curve" smooth="yes"/>
      <point x="1587" y="243"/>
      <point x="1546" y="270"/>
      <point x="1546" y="352" type="curve" smooth="yes"/>
      <point x="1546" y="1351" type="line"/>
    </contour>
  </outline>
</glyph>
<glyph name="uni2105" format="1">
  <advance width="1924"/>
  <unicode hex="2105"/>
  <outline>
    <contour>
      <point x="443" y="1068" type="line"/>
      <point x="443" y="1029"/>
      <point x="414" y="982"/>
      <point x="352" y="982" type="curve" smooth="yes"/>
      <point x="288" y="982"/>
      <point x="258" y="1038"/>
      <point x="258" y="1099" type="curve" smooth="yes"/>
      <point x="258" y="1176" type="line" smooth="yes"/>
      <point x="258" y="1239"/>
      <point x="287" y="1295"/>
      <point x="350" y="1295" type="curve" smooth="yes"/>
      <point x="413" y="1295"/>
      <point x="443" y="1248"/>
      <point x="443" y="1207" type="curve"/>
      <point x="652" y="1207" type="line"/>
      <point x="652" y="1349"/>
      <point x="553" y="1477"/>
      <point x="350" y="1477" type="curve" smooth="yes"/>
      <point x="152" y="1477"/>
      <point x="49" y="1341"/>
      <point x="49" y="1176" type="curve" smooth="yes"/>
      <point x="49" y="1099" type="line" smooth="yes"/>
      <point x="49" y="936"/>
      <point x="152" y="800"/>
      <point x="352" y="800" type="curve" smooth="yes"/>
      <point x="553" y="800"/>
      <point x="652" y="928"/>
      <point x="652" y="1068" type="curve"/>
    </contour>
    <contour>
      <point x="742" y="280" type="line" smooth="yes"/>
      <point x="742" y="116"/>
      <point x="853" y="-20"/>
      <point x="1066" y="-20" type="curve" smooth="yes"/>
      <point x="1280" y="-20"/>
      <point x="1386" y="116"/>
      <point x="1386" y="280" type="curve" smooth="yes"/>
      <point x="1386" y="357" type="line" smooth="yes"/>
      <point x="1386" y="521"/>
      <point x="1280" y="657"/>
      <point x="1064" y="657" type="curve" smooth="yes"/>
      <point x="853" y="657"/>
      <point x="742" y="521"/>
      <point x="742" y="357" type="curve" smooth="yes"/>
    </contour>
    <contour>
      <point x="951" y="357" type="line" smooth="yes"/>
      <point x="951" y="419"/>
      <point x="988" y="475"/>
      <point x="1064" y="475" type="curve" smooth="yes"/>
      <point x="1140" y="475"/>
      <point x="1177" y="419"/>
      <point x="1177" y="357" type="curve" smooth="yes"/>
      <point x="1177" y="280" type="line" smooth="yes"/>
      <point x="1177" y="218"/>
      <point x="1159" y="162"/>
      <point x="1066" y="162" type="curve" smooth="yes"/>
      <point x="1000" y="162"/>
      <point x="951" y="218"/>
      <point x="951" y="280" type="curve" smooth="yes"/>
    </contour>
    <contour>
      <point x="1164" y="1247" type="line"/>
      <point x="1012" y="1326" type="line"/>
      <point x="301" y="188" type="line"/>
      <point x="453" y="109" type="line"/>
    </contour>
  </outline>
</glyph>
<glyph name="trademark" format="1">
  <advance width="1734"/>
  <unicode hex="2122"/>
  <outline>
    <contour>
      <point x="349" y="1456" type="line"/>
      <point x="189" y="1456" type="line"/>
      <point x="189" y="917" type="line"/>
      <point x="349" y="917" type="line"/>
    </contour>
    <contour>
      <point x="472" y="1456" type="line"/>
      <point x="69" y="1456" type="line"/>
      <point x="69" y="1340" type="line"/>
      <point x="472" y="1340" type="line"/>
    </contour>
    <contour>
      <point x="822" y="1098" type="line"/>
      <point x="713" y="1456" type="line"/>
      <point x="593" y="1456" type="line"/>
      <point x="782" y="913" type="line"/>
      <point x="862" y="913" type="line"/>
      <point x="1052" y="1456" type="line"/>
      <point x="931" y="1456" type="line"/>
    </contour>
    <contour>
      <point x="681" y="1456" type="line"/>
      <point x="540" y="1456" type="line"/>
      <point x="540" y="913" type="line"/>
      <point x="681" y="913" type="line"/>
    </contour>
    <contour>
      <point x="958" y="913" type="line"/>
      <point x="1099" y="913" type="line"/>
      <point x="1099" y="1456" type="line"/>
      <point x="958" y="1456" type="line"/>
    </contour>
  </outline>
</glyph>
<glyph name="estimated" format="1">
  <advance width="1653"/>
  <unicode hex="212E"/>
  <outline>
    <contour>
      <point x="966" y="198" type="line"/>
      <point x="848" y="114"/>
      <point x="722" y="76"/>
      <point x="598" y="76" type="curve" smooth="yes"/>
      <point x="494" y="76"/>
      <point x="398" y="118"/>
      <point x="325" y="186" type="curve"/>
      <point x="325" y="514" type="line"/>
      <point x="1093" y="514" type="line"/>
      <point x="1093" y="549"/>
      <point x="1093" y="557"/>
      <point x="1093" y="561" type="curve" smooth="yes"/>
      <point x="1093" y="872"/>
      <point x="872" y="1102"/>
      <point x="598" y="1102" type="curve" smooth="yes"/>
      <point x="336" y="1102"/>
      <point x="74" y="849"/>
      <point x="74" y="541" type="curve" smooth="yes"/>
      <point x="74" y="233"/>
      <point x="308" y="-20"/>
      <point x="598" y="-20" type="curve" smooth="yes"/>
      <point x="729" y="-20"/>
      <point x="856" y="24"/>
      <point x="968" y="94" type="curve"/>
    </contour>
    <contour>
      <point x="598" y="1008" type="curve" smooth="yes"/>
      <point x="700" y="1008"/>
      <point x="795" y="964"/>
      <point x="865" y="895" type="curve"/>
      <point x="865" y="609" type="line"/>
      <point x="325" y="609" type="line"/>
      <point x="325" y="886" type="line"/>
      <point x="401" y="961"/>
      <point x="498" y="1008"/>
    </contour>
  </outline>
</glyph>
<glyph name="fiveeighths" format="1">
  <advance width="2332"/>
  <unicode hex="215D"/>
  <outline>
    <contour>
      <point x="329" y="991" type="line"/>
      <point x="345" y="1009"/>
      <point x="378" y="1033"/>
      <point x="459" y="1033" type="curve" smooth="yes"/>
      <point x="522" y="1033"/>
      <point x="569" y="987"/>
      <point x="569" y="915" type="curve" smooth="yes"/>
      <point x="569" y="854"/>
      <point x="532" y="810"/>
      <point x="447" y="810" type="curve" smooth="yes"/>
      <point x="370" y="810"/>
      <point x="317" y="839"/>
      <point x="317" y="894" type="curve"/>
      <point x="95" y="883" type="line"/>
      <point x="95" y="714"/>
      <point x="264" y="643"/>
      <point x="447" y="643" type="curve" smooth="yes"/>
      <point x="691" y="643"/>
      <point x="791" y="761"/>
      <point x="791" y="924" type="curve" smooth="yes"/>
      <point x="791" y="1085"/>
      <point x="685" y="1180"/>
      <point x="507" y="1177" type="curve" smooth="yes"/>
      <point x="441" y="1176"/>
      <point x="393" y="1159"/>
      <point x="360" y="1139" type="curve"/>
      <point x="375" y="1292" type="line"/>
      <point x="737" y="1292" type="line"/>
      <point x="737" y="1455" type="line"/>
      <point x="180" y="1455" type="line"/>
      <point x="128" y="1000" type="line"/>
    </contour>
    <contour>
      <point x="1397" y="1247" type="line"/>
      <point x="1245" y="1326" type="line"/>
      <point x="534" y="188" type="line"/>
      <point x="686" y="109" type="line"/>
    </contour>
    <contour>
      <point x="1854" y="226" type="curve" smooth="yes"/>
      <point x="1854" y="358"/>
      <point x="1699" y="445"/>
      <point x="1508" y="445" type="curve" smooth="yes"/>
      <point x="1312" y="445"/>
      <point x="1150" y="358"/>
      <point x="1150" y="226" type="curve" smooth="yes"/>
      <point x="1150" y="72"/>
      <point x="1312" y="-11"/>
      <point x="1509" y="-11" type="curve" smooth="yes"/>
      <point x="1701" y="-11"/>
      <point x="1854" y="72"/>
    </contour>
    <contour>
      <point x="1631" y="241" type="curve" smooth="yes"/>
      <point x="1631" y="188"/>
      <point x="1576" y="156"/>
      <point x="1509" y="156" type="curve" smooth="yes"/>
      <point x="1434" y="156"/>
      <point x="1372" y="188"/>
      <point x="1372" y="241" type="curve" smooth="yes"/>
      <point x="1372" y="296"/>
      <point x="1434" y="332"/>
      <point x="1508" y="332" type="curve" smooth="yes"/>
      <point x="1575" y="332"/>
      <point x="1631" y="296"/>
    </contour>
    <contour>
      <point x="1828" y="592" type="curve" smooth="yes"/>
      <point x="1828" y="738"/>
      <point x="1685" y="812"/>
      <point x="1508" y="812" type="curve" smooth="yes"/>
      <point x="1326" y="812"/>
      <point x="1174" y="738"/>
      <point x="1174" y="592" type="curve" smooth="yes"/>
      <point x="1174" y="466"/>
      <point x="1326" y="384"/>
      <point x="1509" y="384" type="curve" smooth="yes"/>
      <point x="1686" y="384"/>
      <point x="1828" y="466"/>
    </contour>
    <contour>
      <point x="1606" y="575" type="curve" smooth="yes"/>
      <point x="1606" y="528"/>
      <point x="1562" y="498"/>
      <point x="1509" y="498" type="curve" smooth="yes"/>
      <point x="1449" y="498"/>
      <point x="1398" y="528"/>
      <point x="1398" y="575" type="curve" smooth="yes"/>
      <point x="1398" y="622"/>
      <point x="1449" y="646"/>
      <point x="1508" y="646" type="curve" smooth="yes"/>
      <point x="1561" y="646"/>
      <point x="1606" y="621"/>
    </contour>
  </outline>
</glyph>
<glyph name="partialdiff" format="1">
  <advance width="1719"/>
  <unicode hex="2202"/>
  <outline>
    <contour>
      <point x="354" y="1276" type="line"/>
      <point x="661" y="1208"/>
      <point x="820" y="1017"/>
      <point x="820" y="637" type="curve" smooth="yes"/>
      <point x="820" y="575" type="line" smooth="yes"/>
      <point x="820" y="384"/>
      <point x="714" y="239"/>
      <point x="582" y="239" type="curve" smooth="yes"/>
      <point x="449" y="239"/>
      <point x="369" y="337"/>
      <point x="369" y="468" type="curve" smooth="yes"/>
      <point x="369" y="622"/>
      <point x="441" y="720"/>
      <point x="590" y="720" type="curve" smooth="yes"/>
      <point x="761" y="720"/>
      <point x="853" y="640"/>
      <point x="853" y="578" type="curve"/>
      <point x="926" y="614" type="line"/>
      <point x="926" y="836"/>
      <point x="744" y="961"/>
      <point x="529" y="961" type="curve" smooth="yes"/>
      <point x="223" y="961"/>
      <point x="46" y="764"/>
      <point x="46" y="468" type="curve" smooth="yes"/>
      <point x="46" y="196"/>
      <point x="259" y="-21"/>
      <point x="578" y="-21" type="curve" smooth="yes"/>
      <point x="897" y="-21"/>
      <point x="1143" y="222"/>
      <point x="1143" y="575" type="curve" smooth="yes"/>
      <point x="1143" y="635" type="line" smooth="yes"/>
      <point x="1143" y="1126"/>
      <point x="903" y="1485"/>
      <point x="456" y="1557" type="curve"/>
    </contour>
  </outline>
</glyph>
<glyph name="radical" format="1">
  <advance width="1626"/>
  <unicode hex="221A"/>
  <outline>
    <contour>
      <point x="612" y="446" type="line"/>
      <point x="531" y="0" type="line"/>
      <point x="708" y="0" type="line"/>
      <point x="1082" y="1456" type="line"/>
      <point x="862" y="1456" type="line"/>
    </contour>
    <contour>
      <point x="444" y="748" type="line"/>
      <point x="192" y="748" type="line"/>
      <point x="447" y="0" type="line"/>
      <point x="621" y="0" type="line"/>
      <point x="517" y="446" type="line"/>
    </contour>
    <contour>
      <point x="45" y="485" type="line"/>
      <point x="432" y="485" type="line"/>
      <point x="432" y="748" type="line"/>
      <point x="45" y="748" type="line"/>
    </contour>
  </outline>
</glyph>
<glyph name="infinity" format="1">
  <advance width="2619"/>
  <unicode hex="221E"/>
  <outline>
    <contour>
      <point x="82" y="517" type="line" smooth="yes"/>
      <point x="82" y="202"/>
      <point x="290" y="-21"/>
      <point x="626" y="-21" type="curve" smooth="yes"/>
      <point x="961" y="-21"/>
      <point x="1116" y="312"/>
      <point x="1169" y="539" type="curve"/>
      <point x="1169" y="562" type="line"/>
      <point x="1116" y="788"/>
      <point x="961" y="1102"/>
      <point x="624" y="1102" type="curve" smooth="yes"/>
      <point x="290" y="1102"/>
      <point x="82" y="879"/>
      <point x="82" y="564" type="curve" smooth="yes"/>
    </contour>
    <contour>
      <point x="404" y="564" type="line" smooth="yes"/>
      <point x="404" y="721"/>
      <point x="476" y="842"/>
      <point x="624" y="842" type="curve" smooth="yes"/>
      <point x="818" y="842"/>
      <point x="902" y="602"/>
      <point x="908" y="562" type="curve"/>
      <point x="908" y="539" type="line"/>
      <point x="903" y="496"/>
      <point x="814" y="239"/>
      <point x="626" y="239" type="curve" smooth="yes"/>
      <point x="475" y="239"/>
      <point x="404" y="355"/>
      <point x="404" y="517" type="curve" smooth="yes"/>
    </contour>
    <contour>
      <point x="2055" y="564" type="line" smooth="yes"/>
      <point x="2055" y="879"/>
      <point x="1847" y="1102"/>
      <point x="1512" y="1102" type="curve" smooth="yes"/>
      <point x="1175" y="1102"/>
      <point x="1020" y="788"/>
      <point x="967" y="562" type="curve"/>
      <point x="967" y="539" type="line"/>
      <point x="1020" y="312"/>
      <point x="1175" y="-21"/>
      <point x="1510" y="-21" type="curve" smooth="yes"/>
      <point x="1847" y="-21"/>
      <point x="2055" y="202"/>
      <point x="2055" y="517" type="curve" smooth="yes"/>
    </contour>
    <contour>
      <point x="1732" y="517" type="line" smooth="yes"/>
      <point x="1732" y="355"/>
      <point x="1659" y="239"/>
      <point x="1510" y="239" type="curve" smooth="yes"/>
      <point x="1322" y="239"/>
      <point x="1233" y="496"/>
      <point x="1228" y="539" type="curve"/>
      <point x="1228" y="562" type="line"/>
      <point x="1234" y="602"/>
      <point x="1318" y="842"/>
      <point x="1512" y="842" type="curve" smooth="yes"/>
      <point x="1661" y="842"/>
      <point x="1732" y="721"/>
      <point x="1732" y="564" type="curve" smooth="yes"/>
    </contour>
  </outline>
</glyph>
<glyph name="integral" format="1">
  <advance width="1220"/>
  <unicode hex="222B"/>
  <outline>
    <contour>
      <point x="457" y="-15" type="curve" smooth="yes"/>
      <point x="457" y="1194" type="line" smooth="yes"/>
      <point x="457" y="1276"/>
      <point x="506" y="1321"/>
      <point x="594" y="1321" type="curve" smooth="yes"/>
      <point x="638" y="1321"/>
      <point x="663" y="1317"/>
      <point x="694" y="1311" type="curve"/>
      <point x="718" y="1560" type="line"/>
      <point x="662" y="1572"/>
      <point x="609" y="1581"/>
      <point x="553" y="1581" type="curve" smooth="yes"/>
      <point x="290" y="1581"/>
      <point x="135" y="1445"/>
      <point x="135" y="1194" type="curve" smooth="yes"/>
      <point x="135" y="-15" type="line" smooth="yes"/>
      <point x="135" y="-122"/>
      <point x="92" y="-177"/>
      <point x="16" y="-177" type="curve" smooth="yes"/>
      <point x="-26" y="-177"/>
      <point x="-51" y="-173"/>
      <point x="-83" y="-165" type="curve"/>
      <point x="-98" y="-420" type="line"/>
      <point x="-43" y="-433"/>
      <point x="2" y="-437"/>
      <point x="57" y="-437" type="curve" smooth="yes"/>
      <point x="306" y="-437"/>
      <point x="457" y="-288"/>
    </contour>
  </outline>
</glyph>
